<svg xmlns="http://www.w3.org/2000/svg" viewBox="0 0 59.47 56.69"><defs><style>.cls-1,.cls-2{fill:#fff;}.cls-1{opacity:0.56;}.cls-3{fill:#153d4f;}</style></defs><title>Artboard 111</title><g id="Layer_9" data-name="Layer 9"><path class="cls-1" d="M28.58,52.6C13.93,52.6,4.32,41.36,4.32,26.72s13.37-21.9,28-21.9,23.34,9.24,23.34,23.89S43.22,52.6,28.58,52.6Z"/><path class="cls-2" d="M31.74,0C15.29,0,0,10.07,0,26.52S14.31,56.69,30.76,56.69,59.57,46.23,59.57,29.78,48.19,0,31.74,0ZM28.58,52.6C13.93,52.6,4.32,41.36,4.32,26.72s13.37-21.9,28-21.9,23.34,9.24,23.34,23.89S43.22,52.6,28.58,52.6Z"/><path class="cls-3" d="M26,25.24a8.9,8.9,0,0,1,3-.57,8.68,8.68,0,0,1,2.82.46,7.76,7.76,0,0,1,2.49,1.42,6.74,6.74,0,0,1,1.82,2.63A10,10,0,0,1,36.84,33a9.25,9.25,0,0,1-2.15,6.22,6.35,6.35,0,0,1-5,2.53,9.4,9.4,0,0,1-4.95-1.28q-2.13-1.29-2.13-2.82a2.63,2.63,0,0,1,.17-1.1,1.26,1.26,0,0,1,.63-.59,1.8,1.8,0,0,1,.83-.23,2,2,0,0,1,1,.44c.43.29,1,.71,1.79,1.25a4.56,4.56,0,0,0,2.65.8,3.28,3.28,0,0,0,2.64-1.51,5.36,5.36,0,0,0,1.15-3.32c0-3.46-1.54-5.18-4.64-5.18a16.12,16.12,0,0,0-2.32.19c-.88.13-1.46.2-1.73.23a2.47,2.47,0,0,1-1.09-.27q-.81-.77-.81-4.89a43.58,43.58,0,0,1,.2-5.34c.12-.8.34-1.27.65-1.4a18.31,18.31,0,0,1,4.81-.34,21.55,21.55,0,0,1,6.43.77,1.45,1.45,0,0,1,.77,1.32,2,2,0,0,1-.48,1.4,1,1,0,0,1-1,.42,30.17,30.17,0,0,0-6.41-.69c-.66,0-1.33,0-2,.08C25.87,20.72,25.91,22.56,26,25.24Z"/><path class="cls-3" d="M42.33,14.42a2.43,2.43,0,0,1,2.53,1.92,4.22,4.22,0,0,1,.23,1.46,3.06,3.06,0,0,1-1.57,2.38,3.15,3.15,0,0,1-1.73.46,3.22,3.22,0,0,1-2-.83,2.72,2.72,0,0,1-1-2.24,2.82,2.82,0,0,1,1-2.28A3.79,3.79,0,0,1,42.33,14.42Zm.92,2.92a1.22,1.22,0,0,0-.38-1A1.49,1.49,0,0,0,42,16a1.37,1.37,0,0,0-.92.41,1.25,1.25,0,0,0-.44.94c0,.82.44,1.22,1.31,1.22A1.13,1.13,0,0,0,43.25,17.34Z"/></g></svg>