<?xml version="1.0" encoding="utf-8"?>
<!-- Generator: Adobe Illustrator 23.0.1, SVG Export Plug-In . SVG Version: 6.00 Build 0)  -->
<svg version="1.1" xmlns="http://www.w3.org/2000/svg" xmlns:xlink="http://www.w3.org/1999/xlink" x="0px" y="0px"
	 viewBox="0 0 59.47 56.69" style="enable-background:new 0 0 59.47 56.69;" xml:space="preserve">
<style type="text/css">
	.st0{fill:#6D6228;}
	.st1{opacity:0.45;}
	.st2{fill:#9BAEBD;}
	.st3{opacity:0.32;}
	.st4{opacity:0.83;}
	.st5{opacity:0.73;}
	.st6{opacity:0.45;fill:#9BAEBD;}
	.st7{fill:#CC722D;}
	.st8{fill:#EE9241;}
	.st9{fill:#1E5148;}
	.st10{fill:#296960;}
	.st11{opacity:0.13;}
	.st12{fill:#FEE238;}
	.st13{fill:#E1D4CD;}
	.st14{fill:#FFFFFF;}
	.st15{fill:#AA6A84;}
	.st16{fill:#DB83A5;}
	.st17{fill:none;}
	.st18{fill:#AA9D97;}
	.st19{fill:#416377;}
	.st20{fill:#8E8987;}
	.st21{fill:#777472;}
	.st22{opacity:0.56;fill:#FFFFFF;}
	.st23{fill:#381812;}
	.st24{fill:#BC3926;}
	.st25{fill:#8D5C38;}
	.st26{fill:#543E2E;}
	.st27{fill:#2F4049;}
	.st28{fill:#83B7AD;}
	.st29{opacity:0.59;fill:#416377;}
	.st30{fill:#FFFFFF;stroke:#FFFFFF;stroke-width:3;stroke-miterlimit:10;}
	.st31{fill:url(#SVGID_177_);}
	.st32{fill:url(#SVGID_178_);}
	.st33{fill:#EBEBEB;}
	.st34{fill:url(#SVGID_179_);}
	.st35{fill:#66C5B3;stroke:#66C5B3;stroke-width:3;stroke-miterlimit:10;}
	.st36{fill:url(#SVGID_180_);}
	.st37{fill:url(#SVGID_181_);}
	.st38{fill:url(#SVGID_182_);}
	.st39{fill:url(#SVGID_183_);}
	.st40{fill:url(#SVGID_184_);}
	.st41{fill:url(#SVGID_185_);}
	.st42{fill:url(#SVGID_186_);}
	.st43{fill:url(#SVGID_187_);}
	.st44{fill:url(#SVGID_188_);}
	.st45{fill:url(#SVGID_189_);}
	.st46{fill:url(#SVGID_190_);}
	.st47{fill:url(#SVGID_191_);}
	.st48{fill:#DB83A5;stroke:#DB83A5;stroke-width:3;stroke-miterlimit:10;}
	.st49{fill:#EE2924;stroke:#EE2924;stroke-width:3;stroke-miterlimit:10;}
	.st50{fill:#FEE238;stroke:#FEE238;stroke-width:3;stroke-miterlimit:10;}
	.st51{fill:#FCB017;stroke:#FCB017;stroke-width:3;stroke-miterlimit:10;}
	.st52{fill:#B3B3B3;}
	.st53{fill:#FFFFFF;stroke:#FFFFFF;stroke-width:10;stroke-miterlimit:10;}
	.st54{fill:#F6ADC6;}
	.st55{fill:#E8DFD9;}
	.st56{fill:none;stroke:#000000;stroke-width:7;stroke-linecap:round;stroke-linejoin:round;stroke-miterlimit:10;}
	.st57{fill:#FFFFFF;stroke:#FFFFFF;stroke-width:10;stroke-linecap:round;stroke-linejoin:round;stroke-miterlimit:10;}
	.st58{fill:#E5E5E5;}
	.st59{fill:#D3584A;}
	.st60{fill:#153D4F;}
	.st61{fill:#724D38;}
	.st62{opacity:0.42;fill:#E1D4CD;}
	.st63{fill:#C5AC32;}
	.st64{clip-path:url(#SVGID_239_);}
	.st65{fill:#8C9973;}
	.st66{fill:#687054;stroke:#DB83A5;stroke-miterlimit:10;}
	.st67{fill:#687054;}
	.st68{fill:#81C453;}
	.st69{fill:#1D7CAD;}
	.st70{fill:#4C382E;}
	.st71{fill:#B29183;}
	.st72{fill:#3F2F28;}
	.st73{fill:none;stroke:#CC722D;stroke-width:0;stroke-linecap:round;stroke-linejoin:round;}
	.st74{fill:url(#SVGID_242_);}
	.st75{fill:#7D7D7D;}
	.st76{fill:#4A494A;}
	.st77{fill:#03576B;}
	.st78{fill:#37A5B7;}
	.st79{fill:#606161;}
	.st80{fill:url(#SVGID_243_);}
	.st81{fill:url(#SVGID_244_);}
	.st82{fill:url(#SVGID_245_);}
	.st83{fill:url(#SVGID_246_);}
	.st84{fill:url(#SVGID_247_);}
	.st85{fill:url(#SVGID_248_);}
	.st86{fill:#56C8E0;stroke:#56C8E0;stroke-width:3;stroke-miterlimit:10;}
	.st87{fill:#3C489E;}
	.st88{fill:none;stroke:#9BC9CE;stroke-width:3;stroke-miterlimit:10;}
	.st89{fill:#C61D69;}
	.st90{fill:#852656;}
	.st91{fill:#E4BD22;}
	.st92{fill:#3B9444;stroke:#FFFFFF;stroke-width:3;stroke-linecap:round;stroke-linejoin:round;stroke-miterlimit:10;}
	.st93{opacity:0.88;}
	.st94{opacity:0.58;fill:#939393;}
	.st95{fill:#EF3B27;}
	.st96{fill:#8A3830;}
	.st97{fill:#10464C;}
	.st98{clip-path:url(#SVGID_262_);}
	.st99{opacity:0.47;fill:#086472;}
	.st100{clip-path:url(#SVGID_264_);}
	.st101{clip-path:url(#SVGID_266_);}
	.st102{fill:#086472;}
</style>
<g id="Layer_11">
</g>
<g id="Layer_13">
</g>
<g id="Layer_10">
</g>
<g id="Layer_14">
</g>
<g id="Layer_18">
</g>
<g id="Layer_17">
</g>
<g id="Layer_7">
</g>
<g id="Layer_16">
</g>
<g id="Layer_8">
</g>
<g id="Layer_9">
	<g>
		<path class="st22" d="M28.53,52.6c-14.65,0-24.26-11.23-24.26-25.88c0-14.65,13.38-21.89,28.02-21.89
			c14.65,0,23.34,9.24,23.34,23.89S43.17,52.6,28.53,52.6z"/>
		<path class="st14" d="M31.69,0C15.25,0-0.05,10.07-0.05,26.52c0,16.45,14.31,30.18,30.76,30.18s28.8-10.46,28.8-26.91
			C59.52,13.33,48.14,0,31.69,0z M28.53,52.6c-14.65,0-24.26-11.23-24.26-25.88c0-14.65,13.38-21.89,28.02-21.89
			c14.65,0,23.34,9.24,23.34,23.89S43.17,52.6,28.53,52.6z"/>
		<g>
			
				<radialGradient id="SVGID_2_" cx="26.6416" cy="31.7283" r="28.9215" fx="44.4926" fy="54.4833" gradientTransform="matrix(0.9593 0 0 0.9593 5.1674 -4.5275)" gradientUnits="userSpaceOnUse">
				<stop  offset="0.0291" style="stop-color:#F7B43A;stop-opacity:0.9"/>
				<stop  offset="0.1468" style="stop-color:#F7B83A;stop-opacity:0.9"/>
				<stop  offset="0.3011" style="stop-color:#F9C43A;stop-opacity:0.9"/>
				<stop  offset="0.4748" style="stop-color:#FCD739;stop-opacity:0.9"/>
				<stop  offset="0.5556" style="stop-color:#FEE238;stop-opacity:0.9"/>
				<stop  offset="0.7567" style="stop-color:#FFEFA8;stop-opacity:0.9"/>
			</radialGradient>
			<path style="fill:url(#SVGID_2_);" d="M40.53,41.68c-0.08,0-0.15-0.02-0.22-0.06l-9.59-5.04l-9.59,5.04
				c-0.07,0.04-0.15,0.06-0.22,0.06c-0.1,0-0.2-0.03-0.28-0.09c-0.15-0.11-0.22-0.29-0.19-0.47l1.83-10.67l-7.75-7.56
				c-0.13-0.13-0.18-0.32-0.12-0.49c0.06-0.17,0.21-0.3,0.39-0.33l10.72-1.56l4.79-9.71c0.08-0.16,0.25-0.27,0.43-0.27
				c0.18,0,0.35,0.1,0.43,0.27l4.79,9.71l10.72,1.56c0.18,0.03,0.33,0.15,0.39,0.33c0.06,0.17,0.01,0.36-0.12,0.49l-7.75,7.56
				l1.83,10.67c0.03,0.18-0.04,0.36-0.19,0.47C40.73,41.65,40.63,41.68,40.53,41.68z"/>
			<path class="st14" d="M30.73,11.02l4.9,9.94l10.97,1.59l-7.94,7.73l1.87,10.92l-9.81-5.16l-9.81,5.16l1.87-10.92l-7.94-7.73
				l10.97-1.59L30.73,11.02 M30.73,10.06c-0.37,0-0.7,0.21-0.86,0.53l-4.68,9.48L14.72,21.6c-0.36,0.05-0.66,0.31-0.77,0.65
				c-0.11,0.35-0.02,0.73,0.24,0.98l7.57,7.38l-1.79,10.42c-0.06,0.36,0.09,0.72,0.38,0.94c0.17,0.12,0.37,0.18,0.56,0.18
				c0.15,0,0.31-0.04,0.45-0.11l9.36-4.92l9.36,4.92c0.14,0.07,0.29,0.11,0.45,0.11c0.2,0,0.4-0.06,0.56-0.18
				c0.3-0.21,0.44-0.58,0.38-0.94l-1.79-10.42l7.57-7.38c0.26-0.25,0.36-0.64,0.24-0.98c-0.11-0.35-0.41-0.6-0.77-0.65l-10.47-1.52
				l-4.68-9.48C31.42,10.26,31.09,10.06,30.73,10.06L30.73,10.06z"/>
		</g>
	</g>
</g>
<g id="Layer_12">
</g>
<g id="Layer_15">
</g>
<g id="Layer_19">
</g>
<g id="Layer_20">
</g>
</svg>
