<?xml version="1.0" encoding="utf-8"?>
<!-- Generator: Adobe Illustrator 23.0.1, SVG Export Plug-In . SVG Version: 6.00 Build 0)  -->
<svg version="1.1" xmlns="http://www.w3.org/2000/svg" xmlns:xlink="http://www.w3.org/1999/xlink" x="0px" y="0px"
	 viewBox="0 0 61.2 56.69" style="enable-background:new 0 0 61.2 56.69;" xml:space="preserve">
<style type="text/css">
	.st0{fill:#6D6228;}
	.st1{opacity:0.45;}
	.st2{fill:#9BAEBD;}
	.st3{opacity:0.32;}
	.st4{opacity:0.83;}
	.st5{opacity:0.73;}
	.st6{opacity:0.45;fill:#9BAEBD;}
	.st7{fill:#CC722D;}
	.st8{fill:#EE9241;}
	.st9{fill:#1E5148;}
	.st10{fill:#296960;}
	.st11{opacity:0.13;}
	.st12{fill:#FEE238;}
	.st13{fill:#E1D4CD;}
	.st14{fill:#FFFFFF;}
	.st15{fill:#AA6A84;}
	.st16{fill:#DB83A5;}
	.st17{fill:none;}
	.st18{fill:#AA9D97;}
	.st19{fill:#416377;}
	.st20{fill:#8E8987;}
	.st21{fill:#777472;}
	.st22{opacity:0.56;fill:#FFFFFF;}
	.st23{fill:#381812;}
	.st24{fill:#BC3926;}
	.st25{fill:#8D5C38;}
	.st26{fill:#543E2E;}
	.st27{fill:#2F4049;}
	.st28{fill:#83B7AD;}
	.st29{opacity:0.59;fill:#416377;}
	.st30{fill:#FFFFFF;stroke:#FFFFFF;stroke-width:3;stroke-miterlimit:10;}
	.st31{fill:url(#SVGID_177_);}
	.st32{fill:url(#SVGID_178_);}
	.st33{fill:#EBEBEB;}
	.st34{fill:url(#SVGID_179_);}
	.st35{fill:#66C5B3;stroke:#66C5B3;stroke-width:3;stroke-miterlimit:10;}
	.st36{fill:url(#SVGID_180_);}
	.st37{fill:url(#SVGID_181_);}
	.st38{fill:url(#SVGID_182_);}
	.st39{fill:url(#SVGID_183_);}
	.st40{fill:url(#SVGID_184_);}
	.st41{fill:url(#SVGID_185_);}
	.st42{fill:url(#SVGID_186_);}
	.st43{fill:url(#SVGID_187_);}
	.st44{fill:url(#SVGID_188_);}
	.st45{fill:url(#SVGID_189_);}
	.st46{fill:url(#SVGID_190_);}
	.st47{fill:url(#SVGID_191_);}
	.st48{fill:#DB83A5;stroke:#DB83A5;stroke-width:3;stroke-miterlimit:10;}
	.st49{fill:#EE2924;stroke:#EE2924;stroke-width:3;stroke-miterlimit:10;}
	.st50{fill:#FEE238;stroke:#FEE238;stroke-width:3;stroke-miterlimit:10;}
	.st51{fill:#FCB017;stroke:#FCB017;stroke-width:3;stroke-miterlimit:10;}
	.st52{fill:#B3B3B3;}
	.st53{fill:#FFFFFF;stroke:#FFFFFF;stroke-width:10;stroke-miterlimit:10;}
	.st54{fill:#F6ADC6;}
	.st55{fill:#E8DFD9;}
	.st56{fill:none;stroke:#000000;stroke-width:7;stroke-linecap:round;stroke-linejoin:round;stroke-miterlimit:10;}
	.st57{fill:#FFFFFF;stroke:#FFFFFF;stroke-width:10;stroke-linecap:round;stroke-linejoin:round;stroke-miterlimit:10;}
	.st58{fill:#E5E5E5;}
	.st59{fill:#D3584A;}
	.st60{fill:#153D4F;}
	.st61{fill:#724D38;}
	.st62{opacity:0.42;fill:#E1D4CD;}
	.st63{fill:#C5AC32;}
	.st64{clip-path:url(#SVGID_239_);}
	.st65{fill:#8C9973;}
	.st66{fill:#687054;stroke:#DB83A5;stroke-miterlimit:10;}
	.st67{fill:#687054;}
	.st68{fill:#81C453;}
	.st69{fill:#1D7CAD;}
	.st70{fill:#4C382E;}
	.st71{fill:#B29183;}
	.st72{fill:#3F2F28;}
	.st73{fill:none;stroke:#CC722D;stroke-width:0;stroke-linecap:round;stroke-linejoin:round;}
	.st74{fill:url(#SVGID_242_);}
	.st75{fill:#7D7D7D;}
	.st76{fill:#4A494A;}
	.st77{fill:#03576B;}
	.st78{fill:#37A5B7;}
	.st79{fill:#606161;}
	.st80{fill:url(#SVGID_243_);}
	.st81{fill:url(#SVGID_244_);}
	.st82{fill:url(#SVGID_245_);}
	.st83{fill:url(#SVGID_246_);}
	.st84{fill:url(#SVGID_247_);}
	.st85{fill:url(#SVGID_248_);}
	.st86{fill:#56C8E0;stroke:#56C8E0;stroke-width:3;stroke-miterlimit:10;}
	.st87{fill:#3C489E;}
	.st88{fill:none;stroke:#9BC9CE;stroke-width:3;stroke-miterlimit:10;}
	.st89{fill:#C61D69;}
	.st90{fill:#852656;}
	.st91{fill:#E4BD22;}
	.st92{fill:#3B9444;stroke:#FFFFFF;stroke-width:3;stroke-linecap:round;stroke-linejoin:round;stroke-miterlimit:10;}
	.st93{opacity:0.88;}
	.st94{opacity:0.58;fill:#939393;}
	.st95{fill:#EF3B27;}
	.st96{fill:#8A3830;}
	.st97{fill:#10464C;}
	.st98{clip-path:url(#SVGID_262_);}
	.st99{opacity:0.47;fill:#086472;}
	.st100{clip-path:url(#SVGID_264_);}
	.st101{clip-path:url(#SVGID_266_);}
	.st102{fill:#086472;}
</style>
<g id="Layer_11">
</g>
<g id="Layer_13">
</g>
<g id="Layer_10">
</g>
<g id="Layer_14">
</g>
<g id="Layer_18">
</g>
<g id="Layer_17">
</g>
<g id="Layer_7">
</g>
<g id="Layer_16">
</g>
<g id="Layer_8">
</g>
<g id="Layer_9">
	<g>
		<path class="st14" d="M11.47,28.55c-0.27-0.46-0.44-0.75-0.6-1.04c-3.28-5.65-6.57-11.3-9.84-16.97c-2.08-3.61-0.93-7.87,2.6-9.75
			c3.25-1.74,7.34-0.51,9.31,2.84c2.6,4.44,5.17,8.89,7.75,13.34c0.17,0.29,0.33,0.57,0.53,0.91c2.85-3.29,6.1-3.93,9.81-1.82
			c2.72-4.12,6.87-4.45,10.22-2.39c1.09-1.82,2.59-3.07,4.73-3.51c2.74-0.56,5.79,0.66,7.2,3.09c1.97,3.4,4.07,6.75,5.72,10.31
			c3.16,6.79,3.09,13.67-0.4,20.37c-1.74,3.34-3.96,6.33-7.01,8.64c-4.1,3.11-8.78,4.31-13.85,4.08c-4.79-0.22-9.23-1.67-13.41-3.97
			c-6.42-3.53-12.25-7.86-17.5-12.96c-1.27-1.23-2.3-2.65-2.87-4.38c-1.28-3.9,1.97-7.77,6.03-7.13
			C10.35,28.3,10.8,28.41,11.47,28.55z M11.98,21.73c2.3,3.97,4.61,7.93,6.9,11.9c0.31,0.54,0.65,1.07,0.83,1.66
			c0.16,0.52,0.12,1.11,0.17,1.67c-0.55-0.02-1.12,0.04-1.64-0.1c-0.5-0.13-0.95-0.43-1.4-0.7c-1.65-0.97-3.28-1.98-4.94-2.94
			c-0.69-0.4-1.42-0.76-2.17-1.04C9.03,31.92,8.35,32,7.82,32.67c-0.5,0.63-0.47,1.29-0.09,1.9c0.52,0.83,1.05,1.7,1.74,2.39
			c4.19,4.14,8.85,7.69,13.88,10.75c3.61,2.2,7.36,4.09,11.6,4.76c4.73,0.75,9.26,0.31,13.37-2.39c2.59-1.7,4.46-4.07,6.04-6.68
			c3.49-5.78,3.88-11.84,1.12-17.93c-1.57-3.46-3.64-6.69-5.52-10c-0.84-1.48-2.58-1.96-3.99-1.19c-1.44,0.78-1.97,2.46-1.26,4
			c0.56,1.22,0.28,2.39-0.69,2.92c-1.01,0.55-2.17,0.12-2.89-1.07c-0.45-0.74-0.85-1.51-1.32-2.24c-0.95-1.49-2.52-1.96-3.92-1.21
			c-1.53,0.81-2.06,2.38-1.36,4.03c0.12,0.28,0.27,0.57,0.31,0.86c0.13,0.88-0.4,1.82-1.16,2.13c-0.9,0.36-1.89,0.07-2.44-0.78
			c-0.68-1.03-1.25-2.14-2-3.13c-0.74-0.99-2.09-1.27-3.18-0.85c-1.25,0.48-2.01,1.47-1.96,2.75c0.02,0.63,0.28,1.25,0.47,1.87
			c0.27,0.85,0.12,1.59-0.54,2.19c-0.67,0.6-1.46,0.72-2.22,0.23c-0.41-0.27-0.77-0.7-1.03-1.13c-3.66-6.26-7.29-12.54-10.93-18.8
			C9.56,5.55,9.24,5.08,8.84,4.7c-0.93-0.91-2.4-1.03-3.53-0.38C4.26,4.94,3.63,6.3,3.94,7.5c0.14,0.53,0.4,1.04,0.68,1.52
			C7.06,13.26,9.52,17.49,11.98,21.73z"/>
		<path class="st78" d="M11.98,21.73c-2.46-4.23-4.92-8.47-7.36-12.71C4.34,8.54,4.07,8.03,3.94,7.5C3.63,6.3,4.26,4.94,5.32,4.32
			C6.44,3.66,7.91,3.79,8.84,4.7c0.39,0.38,0.71,0.86,0.99,1.33c3.65,6.27,7.28,12.54,10.93,18.8c0.25,0.43,0.61,0.86,1.03,1.13
			c0.75,0.49,1.55,0.37,2.22-0.23c0.66-0.59,0.81-1.33,0.54-2.19c-0.19-0.61-0.44-1.24-0.47-1.87c-0.05-1.28,0.72-2.27,1.96-2.75
			c1.1-0.42,2.44-0.14,3.18,0.85c0.74,0.98,1.32,2.09,2,3.13c0.56,0.85,1.54,1.14,2.44,0.78c0.75-0.3,1.28-1.24,1.16-2.13
			c-0.04-0.3-0.19-0.58-0.31-0.86c-0.7-1.65-0.17-3.22,1.36-4.03c1.4-0.74,2.96-0.27,3.92,1.21c0.47,0.73,0.87,1.5,1.32,2.24
			c0.72,1.19,1.88,1.62,2.89,1.07c0.97-0.53,1.25-1.7,0.69-2.92c-0.7-1.54-0.17-3.22,1.26-4c1.41-0.77,3.15-0.29,3.99,1.19
			c1.88,3.31,3.95,6.54,5.52,10c2.77,6.09,2.37,12.15-1.12,17.93c-1.58,2.61-3.45,4.98-6.04,6.68c-4.11,2.7-8.64,3.14-13.37,2.39
			c-4.24-0.67-7.99-2.56-11.6-4.76c-5.03-3.06-9.69-6.61-13.88-10.75c-0.69-0.68-1.22-1.55-1.74-2.39c-0.38-0.61-0.41-1.27,0.09-1.9
			c0.53-0.66,1.21-0.75,1.92-0.49c0.75,0.28,1.47,0.64,2.17,1.04c1.66,0.96,3.29,1.97,4.94,2.94c0.45,0.27,0.91,0.57,1.4,0.7
			c0.52,0.13,1.09,0.07,1.64,0.1c-0.05-0.56-0.01-1.15-0.17-1.67c-0.18-0.58-0.52-1.12-0.83-1.66
			C16.59,29.66,14.28,25.69,11.98,21.73z"/>
	</g>
</g>
<g id="Layer_12">
</g>
<g id="Layer_15">
</g>
<g id="Layer_19">
</g>
<g id="Layer_20">
</g>
</svg>
