<?xml version="1.0" encoding="utf-8"?>
<!-- Generator: Adobe Illustrator 23.0.1, SVG Export Plug-In . SVG Version: 6.00 Build 0)  -->
<svg version="1.1" xmlns="http://www.w3.org/2000/svg" xmlns:xlink="http://www.w3.org/1999/xlink" x="0px" y="0px"
	 viewBox="0 0 59.47 56.69" style="enable-background:new 0 0 59.47 56.69;" xml:space="preserve">
<style type="text/css">
	.st0{fill:#6D6228;}
	.st1{opacity:0.45;}
	.st2{fill:#9BAEBD;}
	.st3{opacity:0.32;}
	.st4{opacity:0.83;}
	.st5{opacity:0.73;}
	.st6{opacity:0.45;fill:#9BAEBD;}
	.st7{fill:#CC722D;}
	.st8{fill:#EE9241;}
	.st9{fill:#1E5148;}
	.st10{fill:#296960;}
	.st11{opacity:0.13;}
	.st12{fill:#FEE238;}
	.st13{fill:#E1D4CD;}
	.st14{fill:#FFFFFF;}
	.st15{fill:#AA6A84;}
	.st16{fill:#DB83A5;}
	.st17{fill:none;}
	.st18{fill:#AA9D97;}
	.st19{fill:#416377;}
	.st20{fill:#8E8987;}
	.st21{fill:#777472;}
	.st22{opacity:0.56;fill:#FFFFFF;}
	.st23{fill:#381812;}
	.st24{fill:#BC3926;}
	.st25{fill:#8D5C38;}
	.st26{fill:#543E2E;}
	.st27{fill:#2F4049;}
	.st28{fill:#83B7AD;}
	.st29{opacity:0.59;fill:#416377;}
	.st30{fill:#FFFFFF;stroke:#FFFFFF;stroke-width:3;stroke-miterlimit:10;}
	.st31{fill:url(#SVGID_177_);}
	.st32{fill:url(#SVGID_178_);}
	.st33{fill:#EBEBEB;}
	.st34{fill:url(#SVGID_179_);}
	.st35{fill:#66C5B3;stroke:#66C5B3;stroke-width:3;stroke-miterlimit:10;}
	.st36{fill:url(#SVGID_180_);}
	.st37{fill:url(#SVGID_181_);}
	.st38{fill:url(#SVGID_182_);}
	.st39{fill:url(#SVGID_183_);}
	.st40{fill:url(#SVGID_184_);}
	.st41{fill:url(#SVGID_185_);}
	.st42{fill:url(#SVGID_186_);}
	.st43{fill:url(#SVGID_187_);}
	.st44{fill:url(#SVGID_188_);}
	.st45{fill:url(#SVGID_189_);}
	.st46{fill:url(#SVGID_190_);}
	.st47{fill:url(#SVGID_191_);}
	.st48{fill:#DB83A5;stroke:#DB83A5;stroke-width:3;stroke-miterlimit:10;}
	.st49{fill:#EE2924;stroke:#EE2924;stroke-width:3;stroke-miterlimit:10;}
	.st50{fill:#FEE238;stroke:#FEE238;stroke-width:3;stroke-miterlimit:10;}
	.st51{fill:#FCB017;stroke:#FCB017;stroke-width:3;stroke-miterlimit:10;}
	.st52{fill:#B3B3B3;}
	.st53{fill:#FFFFFF;stroke:#FFFFFF;stroke-width:10;stroke-miterlimit:10;}
	.st54{fill:#F6ADC6;}
	.st55{fill:#E8DFD9;}
	.st56{fill:none;stroke:#000000;stroke-width:7;stroke-linecap:round;stroke-linejoin:round;stroke-miterlimit:10;}
	.st57{fill:#FFFFFF;stroke:#FFFFFF;stroke-width:10;stroke-linecap:round;stroke-linejoin:round;stroke-miterlimit:10;}
	.st58{fill:#E5E5E5;}
	.st59{fill:#D3584A;}
	.st60{fill:#153D4F;}
	.st61{fill:#724D38;}
	.st62{opacity:0.42;fill:#E1D4CD;}
	.st63{fill:#C5AC32;}
	.st64{clip-path:url(#SVGID_239_);}
	.st65{fill:#8C9973;}
	.st66{fill:#687054;stroke:#DB83A5;stroke-miterlimit:10;}
	.st67{fill:#687054;}
	.st68{fill:#81C453;}
	.st69{fill:#1D7CAD;}
	.st70{fill:#4C382E;}
	.st71{fill:#B29183;}
	.st72{fill:#3F2F28;}
	.st73{fill:none;stroke:#CC722D;stroke-width:0;stroke-linecap:round;stroke-linejoin:round;}
	.st74{fill:url(#SVGID_242_);}
	.st75{fill:#7D7D7D;}
	.st76{fill:#4A494A;}
	.st77{fill:#03576B;}
	.st78{fill:#37A5B7;}
	.st79{fill:#606161;}
	.st80{fill:url(#SVGID_243_);}
	.st81{fill:url(#SVGID_244_);}
	.st82{fill:url(#SVGID_245_);}
	.st83{fill:url(#SVGID_246_);}
	.st84{fill:url(#SVGID_247_);}
	.st85{fill:url(#SVGID_248_);}
	.st86{fill:#56C8E0;stroke:#56C8E0;stroke-width:3;stroke-miterlimit:10;}
	.st87{fill:#3C489E;}
	.st88{fill:none;stroke:#9BC9CE;stroke-width:3;stroke-miterlimit:10;}
	.st89{fill:#C61D69;}
	.st90{fill:#852656;}
	.st91{fill:#E4BD22;}
	.st92{fill:#3B9444;stroke:#FFFFFF;stroke-width:3;stroke-linecap:round;stroke-linejoin:round;stroke-miterlimit:10;}
	.st93{opacity:0.88;}
	.st94{opacity:0.58;fill:#939393;}
	.st95{fill:#EF3B27;}
	.st96{fill:#8A3830;}
	.st97{fill:#10464C;}
	.st98{clip-path:url(#SVGID_262_);}
	.st99{opacity:0.47;fill:#086472;}
	.st100{clip-path:url(#SVGID_264_);}
	.st101{clip-path:url(#SVGID_266_);}
	.st102{fill:#086472;}
</style>
<g id="Layer_11">
</g>
<g id="Layer_13">
</g>
<g id="Layer_10">
</g>
<g id="Layer_14">
</g>
<g id="Layer_18">
</g>
<g id="Layer_17">
</g>
<g id="Layer_7">
</g>
<g id="Layer_16">
</g>
<g id="Layer_8">
</g>
<g id="Layer_9">
	<g>
		<g>
			<path class="st22" d="M28.58,52.6c-14.65,0-24.26-11.23-24.26-25.88c0-14.65,13.38-21.89,28.02-21.89
				c14.65,0,23.34,9.24,23.34,23.89S43.22,52.6,28.58,52.6z"/>
			<g>
				<path class="st14" d="M31.74,0C15.29,0,0,10.07,0,26.52c0,16.45,14.31,30.18,30.76,30.18s28.8-10.46,28.8-26.91
					C59.57,13.33,48.19,0,31.74,0z M28.58,52.6c-14.65,0-24.26-11.23-24.26-25.88c0-14.65,13.38-21.89,28.02-21.89
					c14.65,0,23.34,9.24,23.34,23.89S43.22,52.6,28.58,52.6z"/>
				<g>
					<g>
						<g>
							<path class="st60" d="M18.89,43.24c-0.6,0-1.21-0.09-1.82-0.25c-1.3-0.36-2.24-1.15-2.64-2.22c-0.41-1.11-0.2-2.45,0.56-3.57
								c0.99-1.47,2.44-2.37,4.44-2.75c0.37-0.07,0.75-0.11,1.12-0.11c0.53,0,1.05,0.07,1.58,0.21V15.03c0-0.23,0.16-0.43,0.39-0.47
								l19.83-3.97c0.03-0.01,0.06-0.01,0.09-0.01c0.11,0,0.22,0.04,0.3,0.11c0.11,0.09,0.18,0.23,0.18,0.37l0,6.64
								c0,5.86,0,11.92,0.01,17.88c0,1.6-0.56,2.89-1.68,3.85c-1.43,1.22-2.96,1.84-4.54,1.84c-0.67,0-1.37-0.11-2.06-0.33
								c-1.18-0.38-2.05-1.16-2.43-2.19c-0.39-1.04-0.24-2.2,0.41-3.27c1.11-1.82,2.82-2.84,5.1-3.05c0.17-0.02,0.34-0.02,0.52-0.02
								c0.46,0,0.92,0.05,1.36,0.09c0.1,0.01,0.21,0.02,0.31,0.03V20l-0.13,0.03c-0.48,0.09-0.96,0.19-1.43,0.28
								c-0.76,0.15-1.79,0.36-3.05,0.61c-2.49,0.5-5.92,1.19-10.18,2.03c-0.02,0-0.04,0.01-0.05,0.01c0,0.01,0,0.03,0,0.06
								c0,1.81,0,3.62,0,5.44c0,3,0,6.1,0.02,9.15c0.01,1.55-0.51,2.77-1.59,3.73C22.08,42.6,20.53,43.24,18.89,43.24z"/>
							<path class="st14" d="M42.42,11.07c0,0.25,0,0.43,0,0.61c0,7.97-0.01,15.94,0.01,23.9c0,1.41-0.46,2.58-1.51,3.48
								c-1.28,1.09-2.69,1.72-4.23,1.72c-0.62,0-1.25-0.1-1.91-0.31c-2.16-0.7-2.94-2.81-1.75-4.75c1.07-1.76,2.73-2.64,4.74-2.82
								c0.16-0.01,0.31-0.02,0.47-0.02c0.7,0,1.42,0.12,2.15,0.17c0-4.46,0-9.02,0-13.63c-0.73,0.14-1.44,0.28-2.14,0.42
								c-2.27,0.45-6.81,1.37-13.22,2.64c-0.35,0.07-0.44,0.2-0.44,0.54c0.01,4.86-0.01,9.73,0.02,14.59
								c0.01,1.36-0.43,2.48-1.43,3.37c-1.28,1.14-2.71,1.78-4.29,1.78c-0.55,0-1.11-0.08-1.7-0.24c-2.64-0.72-3.09-3.18-1.81-5.07
								c0.99-1.46,2.44-2.22,4.14-2.54c0.34-0.07,0.69-0.1,1.03-0.1c0.69,0,1.37,0.13,2.06,0.38c0-6.74,0-13.43,0-20.17
								C29.2,13.71,35.79,12.4,42.42,11.07 M42.42,10.11c-0.06,0-0.13,0.01-0.19,0.02l-19.83,3.97c-0.45,0.09-0.77,0.48-0.77,0.94
								v18.92c-0.37-0.06-0.74-0.1-1.1-0.1c-0.4,0-0.81,0.04-1.21,0.11c-2.1,0.4-3.7,1.39-4.75,2.95c-0.85,1.25-1.07,2.75-0.61,4.01
								c0.45,1.23,1.51,2.12,2.97,2.52c0.66,0.18,1.31,0.27,1.95,0.27c1.76,0,3.42-0.68,4.93-2.02c1.17-1.04,1.76-2.42,1.75-4.09
								c-0.02-3.05-0.02-6.15-0.02-9.14c0-1.7,0-3.41,0-5.11c4.14-0.82,7.47-1.49,9.92-1.98c1.23-0.25,2.22-0.45,2.97-0.6
								c0.33-0.07,0.66-0.13,0.99-0.2v11.41c-0.39-0.04-0.79-0.07-1.19-0.07c-0.2,0-0.38,0.01-0.56,0.02
								c-2.4,0.22-4.3,1.35-5.47,3.28c-0.73,1.2-0.89,2.51-0.45,3.69c0.44,1.17,1.41,2.05,2.73,2.48c0.74,0.24,1.48,0.36,2.2,0.36
								c1.7,0,3.34-0.66,4.85-1.95c1.23-1.05,1.85-2.47,1.85-4.21c-0.02-5.94-0.01-11.98-0.01-17.83c0-2.03,0-4.05,0-6.08v-0.61
								c0-0.29-0.13-0.56-0.35-0.74C42.86,10.19,42.64,10.11,42.42,10.11L42.42,10.11z"/>
						</g>
					</g>
				</g>
			</g>
		</g>
	</g>
</g>
<g id="Layer_12">
</g>
<g id="Layer_15">
</g>
<g id="Layer_19">
</g>
<g id="Layer_20">
</g>
</svg>
