<svg id="Layer_1" data-name="Layer 1" xmlns="http://www.w3.org/2000/svg" viewBox="0 0 193.02 272.15"><defs><style>.cls-1{fill:#757576;}.cls-2{fill:#231f20;}</style></defs><title>Artboard 1</title><path class="cls-1" d="M150.77,79.24q0,18.47-9.76,30.71T108.88,136q4.26,6.39,13.84,19.53t11.72,16.33l11,18.1q10.65-17.38,12.43-26.27,2.83-10.65,14.55-10.65a14.69,14.69,0,0,1,9.94,3.37,11.36,11.36,0,0,1,3.91,9.06q0,13.85-27.69,47.21,11,21.3,16.33,36.93a15,15,0,0,1-5,9.23,13.85,13.85,0,0,1-9.59,3.9,13.23,13.23,0,0,1-9.58-4.26,39.56,39.56,0,0,1-4.62-9.58q-1.77-5.33-6-15.27-16.34,17.4-27.34,23.61T87.4,263.49q-14.39,0-28.94-11.36a72.7,72.7,0,0,1-22-28A66.16,66.16,0,0,1,29,194.26q0-23.43,12.07-37.81t35.5-27.87Q59.88,98.42,59.88,76.75T73.2,42.31a44.7,44.7,0,0,1,32.13-12.78q18.81,0,32.12,15.62T150.77,79.24ZM86.86,233.31q18.47,0,40.83-22.72-1.43-2.13-3.55-5.5t-6.21-9.58q-4.08-6.21-12.07-17.4A189.56,189.56,0,0,1,91.48,154.5l-2.84-5a187.46,187.46,0,0,0-16,12.43q-16,13.85-16,32.13A44.1,44.1,0,0,0,69.11,225.5,23,23,0,0,0,86.86,233.31ZM106,56.52q-18.47,0-19.18,29.82a82,82,0,0,0,10.3,30.53Q122,102,122,87.23t-5.32-22.9Q112.07,56.52,106,56.52Z"/><path class="cls-2" d="M3.74,76q0-31.62,14-50.11t38-18.49q27.51,0,41.83,21.91l.75-19.42h13.94v132q0,26-14.56,41.21T58.28,198.26A59.93,59.93,0,0,1,31.45,192a52.23,52.23,0,0,1-20.11-16.75l8.34-9q15.81,19.41,37.6,19.42,18.68,0,29.14-11T97.25,144.1V127.17q-14.32,19.92-41.71,19.92-23.41,0-37.6-18.67T3.74,78Zm15.07,2.61q0,25.78,10.33,40.66t29.14,14.87q27.51,0,39-24.65V46.86Q92,33.91,82.18,27.13T58.53,20.35q-18.81,0-29.26,14.75T18.81,78.61Z"/></svg>