<?xml version="1.0" encoding="utf-8"?>
<!-- Generator: Adobe Illustrator 23.0.1, SVG Export Plug-In . SVG Version: 6.00 Build 0)  -->
<svg version="1.1" xmlns="http://www.w3.org/2000/svg" xmlns:xlink="http://www.w3.org/1999/xlink" x="0px" y="0px"
	 viewBox="0 0 59.47 56.69" style="enable-background:new 0 0 59.47 56.69;" xml:space="preserve">
<style type="text/css">
	.st0{fill:#6D6228;}
	.st1{opacity:0.45;}
	.st2{fill:#9BAEBD;}
	.st3{opacity:0.32;}
	.st4{opacity:0.83;}
	.st5{opacity:0.73;}
	.st6{opacity:0.45;fill:#9BAEBD;}
	.st7{fill:#CC722D;}
	.st8{fill:#EE9241;}
	.st9{fill:#1E5148;}
	.st10{fill:#296960;}
	.st11{opacity:0.13;}
	.st12{fill:#FEE238;}
	.st13{fill:#E1D4CD;}
	.st14{fill:#FFFFFF;}
	.st15{fill:#AA6A84;}
	.st16{fill:#DB83A5;}
	.st17{fill:none;}
	.st18{fill:#AA9D97;}
	.st19{fill:#416377;}
	.st20{fill:#8E8987;}
	.st21{fill:#777472;}
	.st22{opacity:0.56;fill:#FFFFFF;}
	.st23{fill:#381812;}
	.st24{fill:#BC3926;}
	.st25{fill:#8D5C38;}
	.st26{fill:#543E2E;}
	.st27{fill:#2F4049;}
	.st28{fill:#83B7AD;}
	.st29{opacity:0.59;fill:#416377;}
	.st30{fill:#FFFFFF;stroke:#FFFFFF;stroke-width:3;stroke-miterlimit:10;}
	.st31{fill:url(#SVGID_177_);}
	.st32{fill:url(#SVGID_178_);}
	.st33{fill:#EBEBEB;}
	.st34{fill:url(#SVGID_179_);}
	.st35{fill:#66C5B3;stroke:#66C5B3;stroke-width:3;stroke-miterlimit:10;}
	.st36{fill:url(#SVGID_180_);}
	.st37{fill:url(#SVGID_181_);}
	.st38{fill:url(#SVGID_182_);}
	.st39{fill:url(#SVGID_183_);}
	.st40{fill:url(#SVGID_184_);}
	.st41{fill:url(#SVGID_185_);}
	.st42{fill:url(#SVGID_186_);}
	.st43{fill:url(#SVGID_187_);}
	.st44{fill:url(#SVGID_188_);}
	.st45{fill:url(#SVGID_189_);}
	.st46{fill:url(#SVGID_190_);}
	.st47{fill:url(#SVGID_191_);}
	.st48{fill:#DB83A5;stroke:#DB83A5;stroke-width:3;stroke-miterlimit:10;}
	.st49{fill:#EE2924;stroke:#EE2924;stroke-width:3;stroke-miterlimit:10;}
	.st50{fill:#FEE238;stroke:#FEE238;stroke-width:3;stroke-miterlimit:10;}
	.st51{fill:#FCB017;stroke:#FCB017;stroke-width:3;stroke-miterlimit:10;}
	.st52{fill:#B3B3B3;}
	.st53{fill:#FFFFFF;stroke:#FFFFFF;stroke-width:10;stroke-miterlimit:10;}
	.st54{fill:#F6ADC6;}
	.st55{fill:#E8DFD9;}
	.st56{fill:none;stroke:#000000;stroke-width:7;stroke-linecap:round;stroke-linejoin:round;stroke-miterlimit:10;}
	.st57{fill:#FFFFFF;stroke:#FFFFFF;stroke-width:10;stroke-linecap:round;stroke-linejoin:round;stroke-miterlimit:10;}
	.st58{fill:#E5E5E5;}
	.st59{fill:#D3584A;}
	.st60{fill:#153D4F;}
	.st61{fill:#724D38;}
	.st62{opacity:0.42;fill:#E1D4CD;}
	.st63{fill:#C5AC32;}
	.st64{clip-path:url(#SVGID_239_);}
	.st65{fill:#8C9973;}
	.st66{fill:#687054;stroke:#DB83A5;stroke-miterlimit:10;}
	.st67{fill:#687054;}
	.st68{fill:#81C453;}
	.st69{fill:#1D7CAD;}
	.st70{fill:#4C382E;}
	.st71{fill:#B29183;}
	.st72{fill:#3F2F28;}
	.st73{fill:none;stroke:#CC722D;stroke-width:0;stroke-linecap:round;stroke-linejoin:round;}
	.st74{fill:url(#SVGID_242_);}
	.st75{fill:#7D7D7D;}
	.st76{fill:#4A494A;}
	.st77{fill:#03576B;}
	.st78{fill:#37A5B7;}
	.st79{fill:#606161;}
	.st80{fill:url(#SVGID_243_);}
	.st81{fill:url(#SVGID_244_);}
	.st82{fill:url(#SVGID_245_);}
	.st83{fill:url(#SVGID_246_);}
	.st84{fill:url(#SVGID_247_);}
	.st85{fill:url(#SVGID_248_);}
	.st86{fill:#56C8E0;stroke:#56C8E0;stroke-width:3;stroke-miterlimit:10;}
	.st87{fill:#3C489E;}
	.st88{fill:none;stroke:#9BC9CE;stroke-width:3;stroke-miterlimit:10;}
	.st89{fill:#C61D69;}
	.st90{fill:#852656;}
	.st91{fill:#E4BD22;}
	.st92{fill:#3B9444;stroke:#FFFFFF;stroke-width:3;stroke-linecap:round;stroke-linejoin:round;stroke-miterlimit:10;}
	.st93{opacity:0.88;}
	.st94{opacity:0.58;fill:#939393;}
	.st95{fill:#EF3B27;}
	.st96{fill:#8A3830;}
	.st97{fill:#10464C;}
	.st98{clip-path:url(#SVGID_262_);}
	.st99{opacity:0.47;fill:#086472;}
	.st100{clip-path:url(#SVGID_264_);}
	.st101{clip-path:url(#SVGID_266_);}
	.st102{fill:#086472;}
</style>
<g id="Layer_11">
</g>
<g id="Layer_13">
</g>
<g id="Layer_10">
</g>
<g id="Layer_14">
</g>
<g id="Layer_18">
</g>
<g id="Layer_17">
</g>
<g id="Layer_7">
</g>
<g id="Layer_16">
</g>
<g id="Layer_8">
</g>
<g id="Layer_9">
	<g>
		<g>
			<g>
				<path class="st22" d="M28.58,52.6c-14.65,0-24.26-11.23-24.26-25.88c0-14.65,13.38-21.89,28.02-21.89
					c14.65,0,23.34,9.24,23.34,23.89S43.22,52.6,28.58,52.6z"/>
				<g>
					<path class="st14" d="M31.74,0C15.29,0,0,10.07,0,26.52c0,16.45,14.31,30.18,30.76,30.18s28.8-10.46,28.8-26.91
						C59.57,13.33,48.19,0,31.74,0z M28.58,52.6c-14.65,0-24.26-11.23-24.26-25.88c0-14.65,13.38-21.89,28.02-21.89
						c14.65,0,23.34,9.24,23.34,23.89S43.22,52.6,28.58,52.6z"/>
				</g>
			</g>
			<g>
				<path class="st60" d="M15.83,44.64c-0.04,0-0.07,0-0.11-0.01c0,0-0.55,0.01-0.55,0.01c-0.06,0-0.13-0.01-0.19-0.04
					c-0.77-0.35-1.15-0.8-1.28-1.52c-0.31-1.7-0.62-3.4-0.92-5.1l-1.77-9.88c-0.33-1.85-0.66-3.7-1-5.55
					c-0.08-0.46-0.18-0.93-0.27-1.39l-0.12-0.62c-0.01-0.03-0.01-0.06-0.01-0.09V19.2c0-0.08,0.02-0.17,0.07-0.24
					c0.37-0.6,0.9-0.95,1.63-1.08c1.15-0.2,2.32-0.42,3.45-0.64c0.57-0.11,1.14-0.22,1.72-0.32c0.05-0.41,0.11-0.81,0.17-1.21
					c0.05-0.33,0.1-0.67,0.14-1c0.14-1.04,0.86-1.71,1.84-1.71c0.1,0,0.2,0.01,0.31,0.02c0.68,0.09,1.36,0.19,2.04,0.29l2.58,0.38
					c1.54,0.23,3.09,0.46,4.63,0.68c0.1,0.01,0.2,0.03,0.29,0.05c0.23,0.04,0.44,0.08,0.64,0.08c0.06,0,0.12,0,0.18-0.01
					c0.82-0.12,1.66-0.29,2.47-0.45c0.33-0.07,0.67-0.13,1-0.19L35,13.44c1.84-0.35,3.68-0.69,5.52-1.04
					c0.37-0.07,0.73-0.15,1.1-0.23l0.51-0.11c0.03-0.01,0.06-0.01,0.09-0.01h1.03c0.07,0,0.13,0.02,0.19,0.04
					c0.68,0.33,1.08,0.89,1.21,1.73c0.1,0.63,0.21,1.28,0.33,1.9c0.07,0.39,0.14,0.79,0.21,1.18c0.52,0.07,1.01,0.14,1.51,0.22
					c0.51,0.08,1.01,0.15,1.52,0.22c0.78,0.1,1.33,0.43,1.67,1.02c0.04,0.07,0.06,0.15,0.06,0.23v1.83c0,0.05-0.01,0.1-0.03,0.15
					c0,0-0.03,0.07-0.03,0.07c0,0,0,0,0-0.01l-0.93,6.59l-0.24,1.69c-0.15,1.03-0.29,2.06-0.44,3.09c-0.02,0.12-0.04,0.24-0.06,0.36
					c-0.06,0.34-0.11,0.66-0.08,0.94c0.09,0.73,0.23,1.47,0.36,2.19c0.05,0.29,0.11,0.57,0.16,0.86c0.21,1.16-0.24,1.94-1.33,2.32
					c-0.12,0.78-0.23,1.57-0.34,2.35c-0.14,1.1-0.85,1.76-1.88,1.76c0,0,0,0,0,0c-0.13,0-0.27-0.01-0.41-0.03
					c-0.71-0.11-1.43-0.22-2.14-0.33c-2.56-0.38-5.11-0.76-7.67-1.14c-0.09-0.01-0.18-0.03-0.27-0.05
					c-0.16-0.03-0.31-0.06-0.44-0.06c-0.04,0-0.07,0-0.1,0.01c-2.13,0.38-4.29,0.79-6.38,1.19l-9.29,1.76
					c-0.82,0.15-2.24,0.45-2.44,0.5c-0.03,0.01-0.07,0.02-0.1,0.02C15.87,44.64,15.85,44.64,15.83,44.64z"/>
				<path class="st14" d="M43.25,12.5c0.59,0.28,0.86,0.76,0.95,1.39c0.16,1.03,0.36,2.06,0.54,3.09c0.04,0.2,0.08,0.33,0.33,0.36
					c1.03,0.13,2.05,0.31,3.08,0.44c0.57,0.07,1.04,0.29,1.34,0.8c0,0.61,0,1.22,0,1.83c-0.02,0.04-0.04,0.09-0.04,0.13
					c-0.31,2.2-0.62,4.4-0.93,6.6c-0.23,1.6-0.46,3.19-0.68,4.79c-0.06,0.47-0.19,0.96-0.13,1.41c0.13,1.03,0.35,2.05,0.53,3.07
					c0.18,0.98-0.17,1.54-1.12,1.84c-0.08,0.03-0.18,0.14-0.19,0.22c-0.13,0.82-0.25,1.64-0.35,2.46c-0.11,0.88-0.64,1.37-1.43,1.37
					c-0.11,0-0.22-0.01-0.34-0.03c-0.72-0.11-1.43-0.22-2.15-0.33c-2.56-0.38-5.11-0.76-7.67-1.14c-0.26-0.04-0.52-0.11-0.78-0.11
					c-0.06,0-0.12,0-0.18,0.02c-2.64,0.48-5.28,0.98-7.92,1.48c-2.58,0.49-5.17,0.98-7.75,1.47c-0.84,0.16-2.51,0.51-2.51,0.52
					l0-0.02l-0.66,0.01c-0.62-0.28-0.92-0.61-1.02-1.19c-0.31-1.7-0.62-3.4-0.92-5.09c-0.57-3.16-1.13-6.33-1.7-9.49
					c-0.35-1.98-0.71-3.96-1.07-5.94c-0.12-0.67-0.26-1.34-0.39-2.02c0-0.42,0-0.84,0-1.26c0.31-0.5,0.73-0.77,1.32-0.87
					c1.75-0.3,3.5-0.65,5.25-0.98c0.18-0.03,0.25-0.1,0.27-0.29c0.09-0.77,0.22-1.53,0.32-2.29c0.11-0.82,0.64-1.32,1.4-1.32
					c0.08,0,0.16,0.01,0.25,0.02c0.93,0.12,1.85,0.27,2.77,0.4c2.16,0.32,4.32,0.64,6.48,0.96c0.33,0.05,0.67,0.13,1,0.13
					c0.08,0,0.16-0.01,0.24-0.02c1.17-0.17,2.32-0.42,3.48-0.64c2.58-0.49,5.17-0.97,7.75-1.46c0.54-0.1,1.08-0.23,1.61-0.34
					C42.56,12.5,42.91,12.5,43.25,12.5 M43.25,11.6h-1.03c-0.06,0-0.12,0.01-0.19,0.02c-0.17,0.04-0.34,0.07-0.51,0.11
					c-0.36,0.08-0.73,0.16-1.08,0.23c-1.81,0.34-3.62,0.68-5.43,1.03l-2.32,0.44c-0.34,0.06-0.67,0.13-1.01,0.19
					c-0.8,0.16-1.63,0.32-2.44,0.44c-0.03,0-0.07,0.01-0.11,0.01c-0.16,0-0.36-0.03-0.56-0.07c-0.1-0.02-0.21-0.04-0.31-0.05
					c-1.51-0.22-3.01-0.44-4.52-0.67l-1.96-0.29l-0.74-0.11c-0.67-0.1-1.36-0.2-2.04-0.29c-0.12-0.02-0.25-0.02-0.37-0.02
					c-1.22,0-2.12,0.82-2.29,2.1c-0.04,0.33-0.09,0.67-0.14,1c-0.04,0.29-0.08,0.59-0.12,0.89c-0.47,0.09-0.94,0.18-1.41,0.27
					c-1.12,0.21-2.29,0.44-3.43,0.63c-0.85,0.15-1.5,0.58-1.94,1.29c-0.09,0.14-0.13,0.31-0.13,0.47v1.26
					c0,0.06,0.01,0.12,0.02,0.17c0.04,0.21,0.08,0.42,0.12,0.63c0.09,0.46,0.18,0.91,0.26,1.37c0.33,1.79,0.65,3.59,0.97,5.38
					l0.1,0.55l0.75,4.21c0.31,1.76,0.63,3.52,0.94,5.28c0.3,1.7,0.61,3.4,0.92,5.1c0.16,0.86,0.63,1.43,1.54,1.85
					c0.12,0.05,0.25,0.08,0.37,0.08c0.01,0,0.01,0,0.02,0l0.55-0.01c0.03,0,0.07,0.01,0.1,0.01c0.03,0,0.06,0,0.1-0.01
					c0.49-0.05,0.85-0.49,0.8-0.98c0.05,0.48-0.28,0.86-0.64,0.96c0.17-0.05,1.62-0.35,2.42-0.5l2.28-0.43
					c1.82-0.35,3.65-0.69,5.47-1.03l1.61-0.3c2.07-0.39,4.21-0.8,6.31-1.17l0,0c0,0,0.01,0,0.02,0c0.08,0,0.22,0.03,0.35,0.05
					c0.1,0.02,0.2,0.04,0.29,0.05c2.56,0.38,5.11,0.76,7.67,1.14c0.71,0.11,1.43,0.21,2.14,0.33c0.16,0.03,0.33,0.04,0.48,0.04
					c1.26,0,2.15-0.83,2.33-2.16c0.09-0.69,0.19-1.39,0.29-2.08c1.11-0.49,1.6-1.44,1.37-2.72c-0.05-0.29-0.11-0.57-0.16-0.86
					c-0.14-0.74-0.27-1.45-0.36-2.16c-0.03-0.22,0.02-0.5,0.07-0.81c0.02-0.13,0.04-0.25,0.06-0.37c0.14-1.03,0.29-2.07,0.44-3.1
					c0.08-0.56,0.16-1.12,0.24-1.69l0.41-2.94c0.17-1.19,0.34-2.39,0.5-3.58c0.01-0.01,0.01-0.03,0.01-0.04
					c0.03-0.09,0.05-0.19,0.05-0.3v-1.83c0-0.16-0.04-0.32-0.12-0.46c-0.41-0.7-1.09-1.12-2-1.23c-0.5-0.06-1.01-0.14-1.51-0.21
					c-0.39-0.06-0.79-0.12-1.19-0.17c-0.05-0.29-0.1-0.57-0.15-0.86c-0.11-0.62-0.23-1.26-0.33-1.89c-0.15-0.98-0.64-1.67-1.46-2.06
					C43.52,11.63,43.39,11.6,43.25,11.6L43.25,11.6z"/>
			</g>
			<g>
				<path class="st17" d="M12.96,20.89c0.63,3.51,1.26,7,1.88,10.48c0.02,0,0.04,0,0.06,0c0.52-3.7,1.04-7.41,1.57-11.15
					C15.29,20.45,14.16,20.67,12.96,20.89z"/>
				<path class="st17" d="M16.61,41.16c2.99-0.56,5.94-1.12,8.88-1.67c0-0.02,0-0.04,0-0.05c-3.14-0.46-6.28-0.93-9.45-1.4
					C16.23,39.11,16.42,40.13,16.61,41.16z"/>
				<path class="st17" d="M41.7,15.48c-1.3,0.25-2.56,0.48-3.82,0.72c0,0.02,0,0.04,0,0.07c1.35,0.2,2.7,0.4,4.08,0.6
					C41.86,16.37,41.78,15.92,41.7,15.48z"/>
				<path class="st17" d="M17.11,35.36c9,1.33,17.96,2.65,26.94,3.98c0.89-6.33,1.78-12.61,2.67-18.94
					c-9-1.33-17.96-2.65-26.93-3.98C18.88,22.76,18,29.05,17.11,35.36z M25.82,20.9c1.46,0,2.63,1.2,2.63,2.69
					c0,1.48-1.19,2.7-2.63,2.69c-1.47-0.01-2.64-1.22-2.63-2.72C23.2,22.09,24.38,20.89,25.82,20.9z M23.41,30.61
					c1.92-0.24,3.76,0.13,5.56,0.76c0.2,0.07,0.3,0.05,0.43-0.11c1.86-2.2,3.73-4.4,5.6-6.59c0.06-0.07,0.12-0.14,0.21-0.23
					c1.05,2.11,2.08,4.2,3.14,6.33c0.83-0.88,1.64-1.73,2.5-2.64c0.55,3.07,1.09,6.08,1.65,9.14c-7.78-1.15-15.51-2.29-23.29-3.44
					c0.22-0.63,0.54-1.16,0.97-1.63C21.04,31.25,22.16,30.77,23.41,30.61z"/>
				<g>
					<path class="st14" d="M37.87,16.2c1.26-0.24,2.52-0.47,3.82-0.72c0.08,0.45,0.17,0.89,0.26,1.39c-1.38-0.2-2.73-0.4-4.08-0.6
						C37.87,16.24,37.87,16.22,37.87,16.2z M14.9,31.38c-0.02,0-0.04,0-0.06,0c-0.63-3.49-1.25-6.97-1.88-10.48
						c1.2-0.23,2.33-0.44,3.51-0.67C15.94,23.97,15.42,27.67,14.9,31.38z M25.49,39.48c-2.94,0.55-5.89,1.11-8.88,1.67
						c-0.19-1.03-0.37-2.05-0.57-3.12c3.18,0.47,6.31,0.93,9.45,1.4C25.49,39.45,25.49,39.47,25.49,39.48z M44.05,39.34
						c-8.98-1.33-17.94-2.65-26.94-3.98c0.89-6.31,1.78-12.6,2.67-18.94c8.98,1.33,17.94,2.65,26.93,3.98
						C45.82,26.72,44.94,33.01,44.05,39.34z"/>
				</g>
				<path class="st60" d="M42.5,37.28c-0.55-3.06-1.09-6.07-1.65-9.14c-0.86,0.91-1.67,1.76-2.5,2.64c-1.06-2.14-2.1-4.22-3.14-6.33
					c-0.08,0.09-0.15,0.16-0.21,0.23c-1.87,2.2-3.74,4.39-5.6,6.59c-0.13,0.16-0.24,0.18-0.43,0.11c-1.8-0.63-3.64-1-5.56-0.76
					c-1.26,0.16-2.37,0.64-3.23,1.6c-0.42,0.47-0.74,1-0.97,1.63C26.99,34.99,34.72,36.13,42.5,37.28z"/>
				<path class="st60" d="M25.82,26.28c1.44,0.01,2.63-1.21,2.63-2.69c0-1.49-1.17-2.68-2.63-2.69c-1.44,0-2.62,1.19-2.63,2.66
					C23.18,25.06,24.35,26.27,25.82,26.28z"/>
			</g>
		</g>
	</g>
</g>
<g id="Layer_12">
</g>
<g id="Layer_15">
</g>
<g id="Layer_19">
</g>
<g id="Layer_20">
</g>
</svg>
