<?xml version="1.0" encoding="utf-8"?>
<!-- Generator: Adobe Illustrator 23.0.1, SVG Export Plug-In . SVG Version: 6.00 Build 0)  -->
<svg version="1.1" xmlns="http://www.w3.org/2000/svg" xmlns:xlink="http://www.w3.org/1999/xlink" x="0px" y="0px"
	 viewBox="0 0 59.47 56.69" style="enable-background:new 0 0 59.47 56.69;" xml:space="preserve">
<style type="text/css">
	.st0{fill:#6D6228;}
	.st1{opacity:0.45;}
	.st2{fill:#9BAEBD;}
	.st3{opacity:0.32;}
	.st4{opacity:0.83;}
	.st5{opacity:0.73;}
	.st6{opacity:0.45;fill:#9BAEBD;}
	.st7{fill:#CC722D;}
	.st8{fill:#EE9241;}
	.st9{fill:#1E5148;}
	.st10{fill:#296960;}
	.st11{opacity:0.13;}
	.st12{fill:#FEE238;}
	.st13{fill:#E1D4CD;}
	.st14{fill:#FFFFFF;}
	.st15{fill:#AA6A84;}
	.st16{fill:#DB83A5;}
	.st17{fill:none;}
	.st18{fill:#AA9D97;}
	.st19{fill:#416377;}
	.st20{fill:#8E8987;}
	.st21{fill:#777472;}
	.st22{opacity:0.56;fill:#FFFFFF;}
	.st23{fill:#381812;}
	.st24{fill:#BC3926;}
	.st25{fill:#8D5C38;}
	.st26{fill:#543E2E;}
	.st27{fill:#2F4049;}
	.st28{fill:#83B7AD;}
	.st29{opacity:0.59;fill:#416377;}
	.st30{fill:#FFFFFF;stroke:#FFFFFF;stroke-width:3;stroke-miterlimit:10;}
	.st31{fill:url(#SVGID_177_);}
	.st32{fill:url(#SVGID_178_);}
	.st33{fill:#EBEBEB;}
	.st34{fill:url(#SVGID_179_);}
	.st35{fill:#66C5B3;stroke:#66C5B3;stroke-width:3;stroke-miterlimit:10;}
	.st36{fill:url(#SVGID_180_);}
	.st37{fill:url(#SVGID_181_);}
	.st38{fill:url(#SVGID_182_);}
	.st39{fill:url(#SVGID_183_);}
	.st40{fill:url(#SVGID_184_);}
	.st41{fill:url(#SVGID_185_);}
	.st42{fill:url(#SVGID_186_);}
	.st43{fill:url(#SVGID_187_);}
	.st44{fill:url(#SVGID_188_);}
	.st45{fill:url(#SVGID_189_);}
	.st46{fill:url(#SVGID_190_);}
	.st47{fill:url(#SVGID_191_);}
	.st48{fill:#DB83A5;stroke:#DB83A5;stroke-width:3;stroke-miterlimit:10;}
	.st49{fill:#EE2924;stroke:#EE2924;stroke-width:3;stroke-miterlimit:10;}
	.st50{fill:#FEE238;stroke:#FEE238;stroke-width:3;stroke-miterlimit:10;}
	.st51{fill:#FCB017;stroke:#FCB017;stroke-width:3;stroke-miterlimit:10;}
	.st52{fill:#B3B3B3;}
	.st53{fill:#FFFFFF;stroke:#FFFFFF;stroke-width:10;stroke-miterlimit:10;}
	.st54{fill:#F6ADC6;}
	.st55{fill:#E8DFD9;}
	.st56{fill:none;stroke:#000000;stroke-width:7;stroke-linecap:round;stroke-linejoin:round;stroke-miterlimit:10;}
	.st57{fill:#FFFFFF;stroke:#FFFFFF;stroke-width:10;stroke-linecap:round;stroke-linejoin:round;stroke-miterlimit:10;}
	.st58{fill:#E5E5E5;}
	.st59{fill:#D3584A;}
	.st60{fill:#153D4F;}
	.st61{fill:#724D38;}
	.st62{opacity:0.42;fill:#E1D4CD;}
	.st63{fill:#C5AC32;}
	.st64{clip-path:url(#SVGID_239_);}
	.st65{fill:#8C9973;}
	.st66{fill:#687054;stroke:#DB83A5;stroke-miterlimit:10;}
	.st67{fill:#687054;}
	.st68{fill:#81C453;}
	.st69{fill:#1D7CAD;}
	.st70{fill:#4C382E;}
	.st71{fill:#B29183;}
	.st72{fill:#3F2F28;}
	.st73{fill:none;stroke:#CC722D;stroke-width:0;stroke-linecap:round;stroke-linejoin:round;}
	.st74{fill:url(#SVGID_242_);}
	.st75{fill:#7D7D7D;}
	.st76{fill:#4A494A;}
	.st77{fill:#03576B;}
	.st78{fill:#37A5B7;}
	.st79{fill:#606161;}
	.st80{fill:url(#SVGID_243_);}
	.st81{fill:url(#SVGID_244_);}
	.st82{fill:url(#SVGID_245_);}
	.st83{fill:url(#SVGID_246_);}
	.st84{fill:url(#SVGID_247_);}
	.st85{fill:url(#SVGID_248_);}
	.st86{fill:#56C8E0;stroke:#56C8E0;stroke-width:3;stroke-miterlimit:10;}
	.st87{fill:#3C489E;}
	.st88{fill:none;stroke:#9BC9CE;stroke-width:3;stroke-miterlimit:10;}
	.st89{fill:#C61D69;}
	.st90{fill:#852656;}
	.st91{fill:#E4BD22;}
	.st92{fill:#3B9444;stroke:#FFFFFF;stroke-width:3;stroke-linecap:round;stroke-linejoin:round;stroke-miterlimit:10;}
	.st93{opacity:0.88;}
	.st94{opacity:0.58;fill:#939393;}
	.st95{fill:#EF3B27;}
	.st96{fill:#8A3830;}
	.st97{fill:#10464C;}
	.st98{clip-path:url(#SVGID_262_);}
	.st99{opacity:0.47;fill:#086472;}
	.st100{clip-path:url(#SVGID_264_);}
	.st101{clip-path:url(#SVGID_266_);}
	.st102{fill:#086472;}
</style>
<g id="Layer_11">
</g>
<g id="Layer_13">
</g>
<g id="Layer_10">
</g>
<g id="Layer_14">
</g>
<g id="Layer_18">
</g>
<g id="Layer_17">
</g>
<g id="Layer_7">
</g>
<g id="Layer_16">
</g>
<g id="Layer_8">
</g>
<g id="Layer_9">
	<g>
		<g>
			<path class="st22" d="M28.53,52.6c-14.65,0-24.26-11.23-24.26-25.88c0-14.65,13.38-21.89,28.02-21.89
				c14.65,0,23.34,9.24,23.34,23.89S43.17,52.6,28.53,52.6z"/>
			<g>
				<path class="st14" d="M31.69,0C15.25,0-0.05,10.07-0.05,26.52c0,16.45,14.31,30.18,30.76,30.18s28.8-10.46,28.8-26.91
					C59.52,13.33,48.14,0,31.69,0z M28.53,52.6c-14.65,0-24.26-11.23-24.26-25.88c0-14.65,13.38-21.89,28.02-21.89
					c14.65,0,23.34,9.24,23.34,23.89S43.17,52.6,28.53,52.6z"/>
			</g>
		</g>
		<g>
			<path class="st14" d="M30.28,42.44c4.13,0,8.26,0,12.39,0c0.35,0,0.71,0,1.05-0.06c2.38-0.41,3.99-2.34,4-4.76
				c0-5.03,0-10.06-0.01-15.08c0-0.43-0.05-0.88-0.15-1.3c-0.53-2.12-2.41-3.56-4.6-3.56c-1.09,0-2.18,0-3.27,0
				c-0.11,0-0.28-0.03-0.33-0.11c-0.22-0.4-0.41-0.82-0.62-1.22c-0.14-0.27-0.26-0.57-0.46-0.79c-0.86-0.95-1.98-1.3-3.22-1.3
				c-3.17-0.01-6.34,0-9.51,0c-0.65,0-1.27,0.11-1.87,0.36c-0.74,0.32-1.38,0.77-1.73,1.53c-0.2,0.43-0.42,0.86-0.61,1.3
				c-0.09,0.19-0.2,0.26-0.42,0.26c-1.09-0.01-2.18-0.01-3.27-0.01c-2.64,0-4.75,2.09-4.75,4.72c-0.01,5.1-0.01,10.21,0,15.31
				c0,1.44,0.57,2.65,1.67,3.6c0.94,0.81,2.05,1.13,3.28,1.13C22,42.44,26.14,42.44,30.28,42.44z"/>
			<g>
				<path class="st60" d="M17.84,42.89c-1.43,0-2.59-0.4-3.56-1.24c-1.21-1.04-1.82-2.36-1.83-3.94c-0.01-4.54-0.01-9.41,0-15.31
					c0.01-2.9,2.29-5.17,5.2-5.17l1.63,0c0.55,0,1.09,0,1.64,0.01c0,0,0,0,0,0c0.13-0.28,0.25-0.54,0.38-0.8
					c0.08-0.16,0.16-0.33,0.23-0.49c0.37-0.78,0.99-1.34,1.97-1.75c0.62-0.26,1.31-0.4,2.05-0.4l5.42,0c1.36,0,2.73,0,4.09,0.01
					c1.5,0,2.69,0.49,3.55,1.45c0.2,0.22,0.32,0.48,0.44,0.71c0.03,0.06,0.06,0.12,0.09,0.18c0.08,0.16,0.17,0.33,0.25,0.49
					c0.1,0.21,0.2,0.4,0.3,0.6c0,0,0,0,0,0c0.56,0,1.11,0,1.67,0l1.59,0c2.39,0,4.46,1.6,5.03,3.9c0.11,0.44,0.17,0.91,0.17,1.41
					c0.01,4.26,0.01,8.53,0.01,12.79l0,2.29c0,2.66-1.76,4.75-4.37,5.2c-0.38,0.06-0.75,0.07-1.12,0.07c-2.39,0-4.77,0-7.15,0
					l-12.19,0c-1.83,0-3.66,0-5.49,0C17.85,42.89,17.84,42.89,17.84,42.89z M30.29,22.82c-3.99,0.01-7.24,3.26-7.24,7.25
					c0,1.93,0.75,3.75,2.12,5.11c1.37,1.37,3.19,2.12,5.14,2.12c4.02-0.01,7.27-3.26,7.26-7.23c-0.01-3.99-3.27-7.24-7.26-7.24
					v-0.45L30.29,22.82z"/>
				<path class="st14" d="M31.01,14.25c1.35,0,2.7,0,4.05,0.01c1.24,0,2.36,0.35,3.22,1.3c0.2,0.22,0.32,0.52,0.46,0.79
					c0.21,0.4,0.4,0.82,0.62,1.22c0.04,0.08,0.22,0.11,0.33,0.11c0.55,0,1.11,0,1.66,0c0.5,0,1,0,1.49,0c0.04,0,0.07,0,0.11,0
					c2.19,0,4.07,1.44,4.6,3.56c0.11,0.42,0.15,0.86,0.15,1.3c0.01,5.03,0.01,10.06,0.01,15.08c0,2.42-1.61,4.35-4,4.76
					c-0.34,0.06-0.7,0.06-1.05,0.06c-2.37,0-4.73,0-7.1,0c-1.77,0-3.53,0-5.3,0c-2.3,0-4.6,0-6.89,0c-1.84,0-3.69,0-5.53,0
					c0,0-0.01,0-0.01,0c-1.22,0-2.33-0.32-3.27-1.13c-1.1-0.95-1.66-2.16-1.67-3.6c-0.01-5.1-0.01-10.21,0-15.31
					c0.01-2.64,2.12-4.72,4.75-4.72c0.53,0,1.07,0,1.6,0c0.56,0,1.11,0,1.67,0.01c0,0,0.01,0,0.01,0c0.21,0,0.32-0.07,0.4-0.26
					c0.2-0.44,0.41-0.86,0.61-1.3c0.36-0.76,0.99-1.21,1.73-1.53c0.6-0.25,1.22-0.36,1.87-0.36c0,0,0,0,0,0c0.12,0,0.23,0,0.35,0
					C27.61,14.25,29.31,14.25,31.01,14.25 M30.31,37.74c0.01,0,0.01,0,0.02,0c4.26-0.01,7.7-3.45,7.69-7.68
					c-0.01-4.25-3.47-7.69-7.71-7.69c-0.01,0-0.01,0-0.02,0c-4.24,0.01-7.69,3.46-7.69,7.7C22.6,34.31,26.05,37.74,30.31,37.74
					 M31.01,13.35l-2.55,0l-2.55,0h-0.35c-0.8,0-1.55,0.15-2.22,0.43c-1.07,0.45-1.79,1.1-2.2,1.97c-0.08,0.16-0.15,0.32-0.23,0.49
					c-0.09,0.18-0.17,0.36-0.26,0.54c-0.46,0-0.93-0.01-1.39-0.01l-0.85,0l-0.75,0c-3.16,0-5.65,2.47-5.65,5.62
					c-0.01,5.86-0.01,10.72,0,15.31c0,1.69,0.69,3.17,1.98,4.28c1.04,0.89,2.34,1.34,3.86,1.34c1.86,0,3.7,0,5.54,0l3.45,0l3.45,0
					l2.43,0l2.86,0c2.37,0,4.73,0,7.1,0c0.38,0,0.79,0,1.21-0.07c2.79-0.48,4.74-2.8,4.74-5.64l0-2.15c0-4.24,0-8.63-0.01-12.94
					c0-0.53-0.06-1.04-0.18-1.51c-0.62-2.49-2.87-4.24-5.47-4.24h-0.11l-0.75,0l-0.75,0c-0.46,0-0.93,0-1.39,0
					c-0.06-0.11-0.11-0.23-0.17-0.35c-0.08-0.17-0.16-0.34-0.25-0.5c-0.03-0.06-0.06-0.11-0.09-0.17c-0.13-0.25-0.27-0.54-0.51-0.81
					c-0.95-1.06-2.26-1.6-3.89-1.6C33.72,13.35,32.37,13.35,31.01,13.35L31.01,13.35z M30.31,36.84c-1.82,0-3.53-0.71-4.82-1.99
					c-1.29-1.28-1.99-2.98-1.99-4.79c0-3.74,3.05-6.79,6.8-6.8c3.76,0,6.82,3.05,6.83,6.79c0.01,3.73-3.04,6.77-6.8,6.78H30.31
					L30.31,36.84z"/>
			</g>
			<path class="st14" d="M38.02,30.06c0.01,4.23-3.43,7.67-7.69,7.68c-4.27,0.01-7.73-3.43-7.73-7.68c0-4.24,3.45-7.69,7.69-7.7
				C34.55,22.36,38.01,25.81,38.02,30.06z M30.32,24.52c-3.08,0-5.58,2.46-5.59,5.51c0,3.08,2.48,5.58,5.56,5.58
				c3.07,0,5.58-2.48,5.59-5.52C35.89,27.01,33.41,24.53,30.32,24.52z"/>
			<g>
				<path class="st60" d="M30.3,36.06c-1.61,0-3.12-0.63-4.26-1.77s-1.76-2.65-1.76-4.26c0.01-3.29,2.71-5.96,6.03-5.96
					c1.62,0,3.13,0.63,4.27,1.76c1.13,1.13,1.76,2.65,1.75,4.26C36.33,33.38,33.62,36.06,30.3,36.06L30.3,36.06z"/>
				<path class="st14" d="M30.32,24.52C30.32,24.52,30.32,24.52,30.32,24.52c3.09,0,5.57,2.48,5.57,5.57
					c-0.01,3.04-2.51,5.52-5.58,5.52c0,0,0,0,0,0c-3.08,0-5.57-2.5-5.56-5.58C24.74,26.99,27.24,24.52,30.32,24.52 M30.32,23.62
					c-3.57,0-6.48,2.88-6.48,6.41c0,1.73,0.67,3.36,1.89,4.58c1.22,1.22,2.84,1.9,4.57,1.9c3.57,0,6.48-2.88,6.49-6.42
					c0-1.73-0.67-3.36-1.88-4.58C33.68,24.3,32.06,23.62,30.32,23.62C30.32,23.62,30.32,23.62,30.32,23.62L30.32,23.62z"/>
			</g>
		</g>
	</g>
</g>
<g id="Layer_12">
</g>
<g id="Layer_15">
</g>
<g id="Layer_19">
</g>
<g id="Layer_20">
</g>
</svg>
