<?xml version="1.0" encoding="utf-8"?>
<!-- Generator: Adobe Illustrator 23.0.1, SVG Export Plug-In . SVG Version: 6.00 Build 0)  -->
<svg version="1.1" xmlns="http://www.w3.org/2000/svg" xmlns:xlink="http://www.w3.org/1999/xlink" x="0px" y="0px"
	 viewBox="0 0 59.47 56.69" style="enable-background:new 0 0 59.47 56.69;" xml:space="preserve">
<style type="text/css">
	.st0{fill:#6D6228;}
	.st1{opacity:0.45;}
	.st2{fill:#9BAEBD;}
	.st3{opacity:0.32;}
	.st4{opacity:0.83;}
	.st5{opacity:0.73;}
	.st6{opacity:0.45;fill:#9BAEBD;}
	.st7{fill:#CC722D;}
	.st8{fill:#EE9241;}
	.st9{fill:#1E5148;}
	.st10{fill:#296960;}
	.st11{opacity:0.13;}
	.st12{fill:#FEE238;}
	.st13{fill:#E1D4CD;}
	.st14{fill:#FFFFFF;}
	.st15{fill:#AA6A84;}
	.st16{fill:#DB83A5;}
	.st17{fill:none;}
	.st18{fill:#AA9D97;}
	.st19{fill:#416377;}
	.st20{fill:#8E8987;}
	.st21{fill:#777472;}
	.st22{opacity:0.56;fill:#FFFFFF;}
	.st23{fill:#381812;}
	.st24{fill:#BC3926;}
	.st25{fill:#8D5C38;}
	.st26{fill:#543E2E;}
	.st27{fill:#2F4049;}
	.st28{fill:#83B7AD;}
	.st29{opacity:0.59;fill:#416377;}
	.st30{fill:#FFFFFF;stroke:#FFFFFF;stroke-width:3;stroke-miterlimit:10;}
	.st31{fill:url(#SVGID_177_);}
	.st32{fill:url(#SVGID_178_);}
	.st33{fill:#EBEBEB;}
	.st34{fill:url(#SVGID_179_);}
	.st35{fill:#66C5B3;stroke:#66C5B3;stroke-width:3;stroke-miterlimit:10;}
	.st36{fill:url(#SVGID_180_);}
	.st37{fill:url(#SVGID_181_);}
	.st38{fill:url(#SVGID_182_);}
	.st39{fill:url(#SVGID_183_);}
	.st40{fill:url(#SVGID_184_);}
	.st41{fill:url(#SVGID_185_);}
	.st42{fill:url(#SVGID_186_);}
	.st43{fill:url(#SVGID_187_);}
	.st44{fill:url(#SVGID_188_);}
	.st45{fill:url(#SVGID_189_);}
	.st46{fill:url(#SVGID_190_);}
	.st47{fill:url(#SVGID_191_);}
	.st48{fill:#DB83A5;stroke:#DB83A5;stroke-width:3;stroke-miterlimit:10;}
	.st49{fill:#EE2924;stroke:#EE2924;stroke-width:3;stroke-miterlimit:10;}
	.st50{fill:#FEE238;stroke:#FEE238;stroke-width:3;stroke-miterlimit:10;}
	.st51{fill:#FCB017;stroke:#FCB017;stroke-width:3;stroke-miterlimit:10;}
	.st52{fill:#B3B3B3;}
	.st53{fill:#FFFFFF;stroke:#FFFFFF;stroke-width:10;stroke-miterlimit:10;}
	.st54{fill:#F6ADC6;}
	.st55{fill:#E8DFD9;}
	.st56{fill:none;stroke:#000000;stroke-width:7;stroke-linecap:round;stroke-linejoin:round;stroke-miterlimit:10;}
	.st57{fill:#FFFFFF;stroke:#FFFFFF;stroke-width:10;stroke-linecap:round;stroke-linejoin:round;stroke-miterlimit:10;}
	.st58{fill:#E5E5E5;}
	.st59{fill:#D3584A;}
	.st60{fill:#153D4F;}
	.st61{fill:#724D38;}
	.st62{opacity:0.42;fill:#E1D4CD;}
	.st63{fill:#C5AC32;}
	.st64{clip-path:url(#SVGID_239_);}
	.st65{fill:#8C9973;}
	.st66{fill:#687054;stroke:#DB83A5;stroke-miterlimit:10;}
	.st67{fill:#687054;}
	.st68{fill:#81C453;}
	.st69{fill:#1D7CAD;}
	.st70{fill:#4C382E;}
	.st71{fill:#B29183;}
	.st72{fill:#3F2F28;}
	.st73{fill:none;stroke:#CC722D;stroke-width:0;stroke-linecap:round;stroke-linejoin:round;}
	.st74{fill:url(#SVGID_242_);}
	.st75{fill:#7D7D7D;}
	.st76{fill:#4A494A;}
	.st77{fill:#03576B;}
	.st78{fill:#37A5B7;}
	.st79{fill:#606161;}
	.st80{fill:url(#SVGID_243_);}
	.st81{fill:url(#SVGID_244_);}
	.st82{fill:url(#SVGID_245_);}
	.st83{fill:url(#SVGID_246_);}
	.st84{fill:url(#SVGID_247_);}
	.st85{fill:url(#SVGID_248_);}
	.st86{fill:#56C8E0;stroke:#56C8E0;stroke-width:3;stroke-miterlimit:10;}
	.st87{fill:#3C489E;}
	.st88{fill:none;stroke:#9BC9CE;stroke-width:3;stroke-miterlimit:10;}
	.st89{fill:#C61D69;}
	.st90{fill:#852656;}
	.st91{fill:#E4BD22;}
	.st92{fill:#3B9444;stroke:#FFFFFF;stroke-width:3;stroke-linecap:round;stroke-linejoin:round;stroke-miterlimit:10;}
	.st93{opacity:0.88;}
	.st94{opacity:0.58;fill:#939393;}
	.st95{fill:#EF3B27;}
	.st96{fill:#8A3830;}
	.st97{fill:#10464C;}
	.st98{clip-path:url(#SVGID_262_);}
	.st99{opacity:0.47;fill:#086472;}
	.st100{clip-path:url(#SVGID_264_);}
	.st101{clip-path:url(#SVGID_266_);}
	.st102{fill:#086472;}
</style>
<g id="Layer_11">
</g>
<g id="Layer_13">
</g>
<g id="Layer_10">
</g>
<g id="Layer_14">
</g>
<g id="Layer_18">
</g>
<g id="Layer_17">
</g>
<g id="Layer_7">
</g>
<g id="Layer_16">
</g>
<g id="Layer_8">
</g>
<g id="Layer_9">
	<g>
		
			<radialGradient id="SVGID_2_" cx="12.1315" cy="33.9217" r="48.2645" fx="41.9216" fy="71.8955" gradientTransform="matrix(0.9593 0 0 0.9593 18.0974 -4.5275)" gradientUnits="userSpaceOnUse">
			<stop  offset="0.0291" style="stop-color:#F7B43A;stop-opacity:0.9"/>
			<stop  offset="0.1468" style="stop-color:#F7B83A;stop-opacity:0.9"/>
			<stop  offset="0.3011" style="stop-color:#F9C43A;stop-opacity:0.9"/>
			<stop  offset="0.4748" style="stop-color:#FCD739;stop-opacity:0.9"/>
			<stop  offset="0.5556" style="stop-color:#FEE238;stop-opacity:0.9"/>
			<stop  offset="0.7567" style="stop-color:#FFEFA8;stop-opacity:0.9"/>
		</radialGradient>
		<path style="fill:url(#SVGID_2_);" d="M14.33,54.37c-0.48,0-0.96-0.15-1.36-0.44c-0.71-0.52-1.07-1.4-0.92-2.27l2.74-15.95
			L3.19,24.41c-0.63-0.62-0.86-1.54-0.59-2.38s1-1.45,1.87-1.58l16.02-2.33l7.16-14.51c0.39-0.79,1.2-1.29,2.08-1.29
			c0.88,0,1.69,0.5,2.08,1.29l7.16,14.51L55,20.45c0.87,0.13,1.6,0.74,1.87,1.58c0.27,0.84,0.05,1.76-0.59,2.38l-11.59,11.3
			l2.74,15.95c0.15,0.87-0.21,1.75-0.92,2.27c-0.4,0.29-0.88,0.44-1.36,0.44c-0.37,0-0.74-0.09-1.08-0.27l-14.33-7.53l-14.33,7.53
			C15.07,54.29,14.7,54.37,14.33,54.37z"/>
		<path class="st14" d="M29.74,4.64l7.7,15.61l17.22,2.5L42.2,34.9l2.94,17.16l-15.41-8.1l-15.41,8.1l2.94-17.16L4.81,22.75
			l17.22-2.5L29.74,4.64 M29.74,0c-1.77,0-3.38,1-4.16,2.59l-6.62,13.42L4.14,18.16c-1.75,0.25-3.2,1.48-3.74,3.16
			c-0.55,1.68-0.09,3.52,1.17,4.76l10.72,10.45L9.76,51.27c-0.3,1.74,0.42,3.5,1.85,4.54c0.81,0.59,1.77,0.89,2.73,0.89
			c0.74,0,1.48-0.18,2.16-0.53l13.25-6.96l13.25,6.96c0.68,0.36,1.42,0.53,2.16,0.53c0.96,0,1.92-0.3,2.73-0.89
			c1.43-1.04,2.14-2.8,1.85-4.54l-2.53-14.75L57.9,26.07c1.26-1.23,1.72-3.08,1.17-4.76c-0.55-1.68-2-2.9-3.74-3.16l-14.81-2.15
			L33.9,2.59C33.11,1,31.5,0,29.74,0L29.74,0z"/>
	</g>
</g>
<g id="Layer_12">
</g>
<g id="Layer_15">
</g>
<g id="Layer_19">
</g>
<g id="Layer_20">
</g>
</svg>
