<svg xmlns="http://www.w3.org/2000/svg" viewBox="0 0 307 130"><defs><style>.cls-1{fill:#828f8c;}.cls-2,.cls-3{fill:#fff;}.cls-2{opacity:0.56;}.cls-4{fill:#5b6472;}</style></defs><title>Artboard 8</title><g id="Layer_4" data-name="Layer 4"><path class="cls-1" d="M163.13,0C78.08,0,0,19.12,0,58s72,72,157,72c54.65,0,95.85-5.57,122-22,14.55-9.14,28-23.7,28-37.6C307,31.52,248.18,0,163.13,0ZM146.75,124.32C71,124.32,21.32,97.77,21.32,63.15S90.48,11.4,166.22,11.4,286.89,33.24,286.89,67.86,222.49,124.32,146.75,124.32Z"/><path class="cls-2" d="M147.42,116.4C75,116.4,27.49,92.49,27.49,61.32S93.62,14.72,166,14.72,281.42,34.39,281.42,65.56,219.84,116.4,147.42,116.4Z"/><path class="cls-3" d="M163.08,4.45C81.76,4.45,6.15,25.88,6.15,60.89s70.77,64.22,152.09,64.22,142.41-22.26,142.41-57.27S244.41,4.45,163.08,4.45Zm-15.66,112C75,116.4,27.49,92.49,27.49,61.32S93.62,14.72,166,14.72,281.42,34.39,281.42,65.56,219.84,116.4,147.42,116.4Z"/><path class="cls-4" d="M75.88,58.09a4.76,4.76,0,0,0-4-1.79c-1.85,0-3.71.83-3.71,2.91,0,4.54,10.75,1.95,10.75,10,0,4.86-3.84,7.23-8.28,7.23a9.4,9.4,0,0,1-7.43-3.08l3-2.94a5.33,5.33,0,0,0,4.48,2.37c1.86,0,4-1,4-3.1,0-5-10.75-2.12-10.75-10.21,0-4.67,4.16-6.85,8.35-6.85A9.28,9.28,0,0,1,78.83,55Z"/><path class="cls-4" d="M87.79,56.87h-7V53.23H98.76v3.64H91.82v19h-4Z"/><path class="cls-4" d="M107.05,66.19l-8.51-13h5l5.57,9,5.63-9h4.8l-8.51,13v9.69h-4Z"/><path class="cls-4" d="M121.67,53.23h4v19h9.63v3.65H121.67Z"/><path class="cls-4" d="M138.28,53.23h15v3.64h-11v5.57h10.4v3.65h-10.4v6.14h11.56v3.65H138.28Z"/><path class="cls-4" d="M178,74.22a19.64,19.64,0,0,1-9.38,2.24c-7,0-12-4.74-12-11.81,0-7.26,5-12,12-12,3.46,0,6.56.74,8.93,2.85l-3,3a8.55,8.55,0,0,0-5.92-2.21c-4.67,0-7.78,3.58-7.78,8.09,0,4.84,3.11,8.42,7.78,8.42a11,11,0,0,0,5.31-1.18V66.28h-4.64V62.63H178Z"/><path class="cls-4" d="M200.87,67.56c0,5.47-3.93,8.9-9.12,8.9s-9.12-3.43-9.12-8.9V53.23h4v14.2c0,2.24,1.21,5.19,5.08,5.19s5.09-3,5.09-5.19V53.23h4Z"/><path class="cls-4" d="M205.74,53.23h4V75.88h-4Z"/><path class="cls-4" d="M214.73,53.23h8.93c6,0,11.52,3.64,11.52,11.32s-6.56,11.33-12,11.33h-8.45Zm7,19c5,0,9.18-2.17,9.18-7.68s-3.58-7.68-8.51-7.68h-3.68V72.23Z"/><path class="cls-4" d="M239,53.23h15v3.64h-11v5.57h10.4v3.65h-10.4v6.14H254.6v3.65H239Z"/></g></svg>