<svg xmlns="http://www.w3.org/2000/svg" viewBox="0 0 307 130"><defs><style>.cls-1{fill:#828f8c;}.cls-2,.cls-3{fill:#fff;}.cls-2{opacity:0.56;}.cls-4{fill:#5b6472;}</style></defs><title>Artboard 7</title><g id="Layer_4" data-name="Layer 4"><path class="cls-1" d="M163.13,0C78.08,0,0,19.12,0,58s72,72,157,72c54.65,0,95.85-5.57,122-22,14.55-9.14,28-23.7,28-37.6C307,31.52,248.18,0,163.13,0ZM146.75,124.32C71,124.32,21.32,97.77,21.32,63.15S90.48,11.4,166.22,11.4,286.89,33.24,286.89,67.86,222.49,124.32,146.75,124.32Z"/><path class="cls-2" d="M147.42,116.4C75,116.4,27.49,92.49,27.49,61.32S93.62,14.72,166,14.72,281.42,34.39,281.42,65.56,219.84,116.4,147.42,116.4Z"/><path class="cls-3" d="M163.08,4.45C81.76,4.45,6.15,25.88,6.15,60.89s70.77,64.22,152.09,64.22,142.41-22.26,142.41-57.27S244.41,4.45,163.08,4.45Zm-15.66,112C75,116.4,27.49,92.49,27.49,61.32S93.62,14.72,166,14.72,281.42,34.39,281.42,65.56,219.84,116.4,147.42,116.4Z"/><path class="cls-4" d="M64.78,53.23h7.61c4.39,0,8.36,1.53,8.36,6.56,0,5.69-4.26,6.72-9.06,6.72H68.81v9.37h-4Zm6.46,9.82c2.31,0,5.28-.13,5.28-3.2,0-2.78-2.65-3.17-4.83-3.17H68.81v6.37Z"/><path class="cls-4" d="M84.33,53.23H92.2c4.35,0,8.45,1.4,8.45,6.49a5.81,5.81,0,0,1-5.25,6.15l6,10H96.55l-5.24-9.6h-3v9.6h-4Zm7.17,9.6c2.27,0,4.93-.2,4.93-3.14,0-2.69-2.5-3-4.58-3H88.36v6.15Z"/><path class="cls-4" d="M115.24,52.65c7.07-.13,12.06,4.61,12.06,11.87,0,7.07-5,11.81-12.06,11.94s-12-4.74-12-11.81C103.27,57.39,108.27,52.65,115.24,52.65Zm0,20.16c4.71,0,7.81-3.58,7.81-8.42,0-4.51-3.1-8.09-7.81-8.09s-7.77,3.58-7.77,8.09C107.5,69.23,110.6,72.81,115.27,72.81Z"/><path class="cls-4" d="M135.79,56.87h-6.95V53.23h17.92v3.64h-6.94v19h-4Z"/><path class="cls-4" d="M160.26,52.65c7.08-.13,12.07,4.61,12.07,11.87,0,7.07-5,11.81-12.07,11.94s-12-4.74-12-11.81C148.3,57.39,153.29,52.65,160.26,52.65Zm0,20.16c4.7,0,7.8-3.58,7.8-8.42,0-4.51-3.1-8.09-7.8-8.09s-7.78,3.58-7.78,8.09C152.52,69.23,155.63,72.81,160.3,72.81Z"/><path class="cls-4" d="M180.81,56.87h-6.94V53.23h17.91v3.64h-6.94v19h-4Z"/><path class="cls-4" d="M200.07,66.19l-8.51-13h5.06l5.56,9,5.64-9h4.8l-8.52,13v9.69h-4Z"/><path class="cls-4" d="M214.7,53.23h7.61c4.39,0,8.35,1.53,8.35,6.56,0,5.69-4.25,6.72-9,6.72h-2.88v9.37h-4Zm6.46,9.82c2.3,0,5.28-.13,5.28-3.2,0-2.78-2.66-3.17-4.83-3.17h-2.88v6.37Z"/><path class="cls-4" d="M234.25,53.23h15v3.64h-11v5.57h10.4v3.65h-10.4v6.14h11.55v3.65H234.25Z"/></g></svg>