<?xml version="1.0" encoding="utf-8"?>
<!-- Generator: Adobe Illustrator 23.0.1, SVG Export Plug-In . SVG Version: 6.00 Build 0)  -->
<svg version="1.1" xmlns="http://www.w3.org/2000/svg" xmlns:xlink="http://www.w3.org/1999/xlink" x="0px" y="0px"
	 viewBox="0 0 67.67 56.69" style="enable-background:new 0 0 67.67 56.69;" xml:space="preserve">
<style type="text/css">
	.st0{opacity:0.45;}
	.st1{fill:#9BAEBD;}
	.st2{opacity:0.32;}
	.st3{opacity:0.83;}
	.st4{opacity:0.73;}
	.st5{opacity:0.45;fill:#9BAEBD;}
	.st6{fill:#CC722D;}
	.st7{fill:#EE9241;}
	.st8{fill:#1E5148;}
	.st9{fill:#296960;}
	.st10{opacity:0.13;}
	.st11{fill:#FEE238;}
	.st12{fill:#E1D4CD;}
	.st13{fill:#FFFFFF;}
	.st14{fill:#AA6A84;}
	.st15{fill:#DB83A5;}
	.st16{fill:none;}
	.st17{fill:#AA9D97;}
	.st18{fill:#416377;}
	.st19{fill:#8E8987;}
	.st20{fill:#777472;}
	.st21{opacity:0.56;fill:#FFFFFF;}
	.st22{fill:#381812;}
	.st23{fill:#BC3926;}
	.st24{fill:#6D6228;}
	.st25{fill:#8D5C38;}
	.st26{fill:#543E2E;}
	.st27{fill:#2F4049;}
	.st28{fill:#83B7AD;}
	.st29{opacity:0.59;fill:#416377;}
	.st30{fill:#FFFFFF;stroke:#FFFFFF;stroke-width:3;stroke-miterlimit:10;}
	.st31{fill:url(#SVGID_177_);}
	.st32{fill:url(#SVGID_178_);}
	.st33{fill:#EBEBEB;}
	.st34{fill:url(#SVGID_179_);}
	.st35{fill:#66C5B3;stroke:#66C5B3;stroke-width:3;stroke-miterlimit:10;}
	.st36{fill:url(#SVGID_180_);}
	.st37{fill:url(#SVGID_181_);}
	.st38{fill:url(#SVGID_182_);}
	.st39{fill:url(#SVGID_183_);}
	.st40{fill:url(#SVGID_184_);}
	.st41{fill:url(#SVGID_185_);}
	.st42{fill:url(#SVGID_186_);}
	.st43{fill:url(#SVGID_187_);}
	.st44{fill:url(#SVGID_188_);}
	.st45{fill:url(#SVGID_189_);}
	.st46{fill:url(#SVGID_190_);}
	.st47{fill:url(#SVGID_191_);}
	.st48{fill:#DB83A5;stroke:#DB83A5;stroke-width:3;stroke-miterlimit:10;}
	.st49{fill:#EE2924;stroke:#EE2924;stroke-width:3;stroke-miterlimit:10;}
	.st50{fill:#FEE238;stroke:#FEE238;stroke-width:3;stroke-miterlimit:10;}
	.st51{fill:#FCB017;stroke:#FCB017;stroke-width:3;stroke-miterlimit:10;}
	.st52{fill:#B3B3B3;}
	.st53{fill:#FFFFFF;stroke:#FFFFFF;stroke-width:10;stroke-miterlimit:10;}
	.st54{fill:#F6ADC6;}
	.st55{fill:#E8DFD9;}
	.st56{fill:none;stroke:#000000;stroke-width:7;stroke-linecap:round;stroke-linejoin:round;stroke-miterlimit:10;}
	.st57{fill:#FFFFFF;stroke:#FFFFFF;stroke-width:10;stroke-linecap:round;stroke-linejoin:round;stroke-miterlimit:10;}
	.st58{fill:#E5E5E5;}
	.st59{fill:#D3584A;}
	.st60{fill:#153D4F;}
	.st61{fill:#724D38;}
	.st62{opacity:0.42;fill:#E1D4CD;}
	.st63{fill:#C5AC32;}
	.st64{clip-path:url(#SVGID_239_);}
	.st65{fill:#8C9973;}
	.st66{fill:#687054;stroke:#DB83A5;stroke-miterlimit:10;}
	.st67{fill:#687054;}
	.st68{fill:#81C453;}
	.st69{fill:#1D7CAD;}
	.st70{fill:#4C382E;}
	.st71{fill:#B29183;}
	.st72{fill:#3F2F28;}
	.st73{fill:none;stroke:#CC722D;stroke-width:0;stroke-linecap:round;stroke-linejoin:round;}
	.st74{fill:url(#SVGID_242_);}
	.st75{fill:#7D7D7D;}
	.st76{fill:#4A494A;}
	.st77{fill:#03576B;}
	.st78{fill:#37A5B7;}
	.st79{fill:#606161;}
	.st80{fill:url(#SVGID_243_);}
	.st81{fill:url(#SVGID_244_);}
	.st82{fill:url(#SVGID_245_);}
	.st83{fill:url(#SVGID_246_);}
	.st84{fill:url(#SVGID_247_);}
	.st85{fill:url(#SVGID_248_);}
	.st86{fill:#56C8E0;stroke:#56C8E0;stroke-width:3;stroke-miterlimit:10;}
	.st87{fill:#3C489E;}
	.st88{fill:none;stroke:#9BC9CE;stroke-width:3;stroke-miterlimit:10;}
	.st89{fill:#C61D69;}
	.st90{fill:#852656;}
	.st91{fill:#E4BD22;}
	.st92{fill:#3B9444;stroke:#FFFFFF;stroke-width:3;stroke-linecap:round;stroke-linejoin:round;stroke-miterlimit:10;}
	.st93{opacity:0.88;}
	.st94{opacity:0.58;fill:#939393;}
	.st95{fill:#EF3B27;}
	.st96{fill:#8A3830;}
	.st97{fill:#10464C;}
	.st98{clip-path:url(#SVGID_262_);}
	.st99{opacity:0.47;fill:#086472;}
	.st100{clip-path:url(#SVGID_264_);}
	.st101{clip-path:url(#SVGID_266_);}
	.st102{fill:#086472;}
	.st103{clip-path:url(#SVGID_268_);}
	.st104{clip-path:url(#SVGID_270_);}
	.st105{fill:#DAEAEF;}
	.st106{opacity:0.6;fill:#4987AC;}
	.st107{fill:#8CB279;}
	.st108{clip-path:url(#SVGID_280_);}
	.st109{fill:#406C54;}
	.st110{fill:#79B257;}
	.st111{fill:#97C484;}
	.st112{opacity:0.34;fill:#606161;}
	.st113{opacity:0.54;fill:#9BAEBD;}
	.st114{opacity:0.52;}
	.st115{clip-path:url(#SVGID_300_);}
	.st116{opacity:0.56;}
</style>
<g id="Layer_11">
</g>
<g id="Layer_13">
</g>
<g id="Layer_10">
</g>
<g id="Layer_14">
</g>
<g id="Layer_18">
</g>
<g id="Layer_17">
</g>
<g id="Layer_7">
</g>
<g id="Layer_16">
</g>
<g id="Layer_8">
</g>
<g id="Layer_9">
	<g>
	</g>
	<g>
		<defs>
			<polygon id="SVGID_299_" points="67.66,56.69 0,56.69 0.33,0 67.99,0 			"/>
		</defs>
		<clipPath id="SVGID_2_">
			<use xlink:href="#SVGID_299_"  style="overflow:visible;"/>
		</clipPath>
		<g style="clip-path:url(#SVGID_2_);">
			<g class="st116">
				<path class="st13" d="M60.97,1.83H-0.39c-2.74,0-4.97,2.22-4.97,4.97v43.13c0,2.74,2.22,4.97,4.97,4.97h61.36
					c2.74,0,4.97-2.22,4.97-4.97V6.79C65.94,4.05,63.72,1.83,60.97,1.83"/>
			</g>
			<path class="st13" d="M60.97,1.83c2.74,0,4.97,2.22,4.97,4.97v43.13c0,2.74-2.22,4.97-4.97,4.97H-0.39
				c-2.74,0-4.97-2.22-4.97-4.97V6.79c0-2.74,2.22-4.97,4.97-4.97H60.97 M60.97,0.09H-0.39c-3.69,0-6.7,3.01-6.7,6.7v43.13
				c0,3.69,3.01,6.7,6.7,6.7h61.36c3.69,0,6.7-3.01,6.7-6.7V6.79C67.67,3.1,64.67,0.09,60.97,0.09L60.97,0.09z"/>
			<g>
				<g>
					<path d="M29.64,47.1v-3.82l0.5-0.12c0.2-0.05,0.41-0.09,0.62-0.14c0.43-0.09,0.87-0.19,1.29-0.32c2.01-0.65,3.17-2.23,3.2-4.32
						c0.01-0.72,0-1.44-0.01-2.16c-0.01-1.09-0.02-2.22,0.02-3.33c0.14-3.35-1.55-5.22-5.03-5.58l-0.58-0.06v-4.02l7.73,0
						c1.25,0,2.49,0,3.74,0c2.38,0,3.91,1.55,3.91,3.95l0,10.57c0,3.15,1.46,4.83,4.58,5.29c0.09,0.01,0.18,0.02,0.28,0.03
						l0.76,0.09v3.94H29.64z"/>
					<path class="st13" d="M37.28,23.88c1.28,0,2.56,0,3.84,0c2.02,0,3.26,1.26,3.27,3.3c0,3.52,0,7.04,0,10.57
						c0,3.47,1.7,5.43,5.14,5.93c0.15,0.02,0.3,0.04,0.49,0.06c0,0.91,0,1.78,0,2.72c-6.56,0-13.11,0-19.72,0c0-0.88,0-1.75,0-2.65
						c0.64-0.15,1.31-0.27,1.95-0.48c2.29-0.74,3.62-2.54,3.65-4.94c0.02-1.82-0.06-3.65,0.02-5.47c0.18-4.18-2.35-5.92-5.61-6.25
						c0-0.88,0-1.77,0-2.78c0.49,0,0.99,0,1.48,0c0.05,0,0.09,0,0.14,0C33.7,23.88,35.49,23.88,37.28,23.88 M37.28,22.58l-2.68,0
						l-2.68,0h-0.14H30.3H29v1.3v2.78v1.17l1.17,0.12c3.11,0.32,4.57,1.92,4.44,4.9c-0.05,1.13-0.04,2.27-0.03,3.36
						c0.01,0.71,0.01,1.43,0.01,2.14c-0.02,1.83-1,3.15-2.75,3.71c-0.38,0.12-0.79,0.21-1.22,0.31c-0.21,0.05-0.43,0.09-0.63,0.14
						l-1,0.24v1.03v2.65v1.3h1.3h19.72h1.3v-1.3v-2.72v-1.16l-1.15-0.13l-0.19-0.02c-0.09-0.01-0.18-0.02-0.27-0.03
						c-2.82-0.41-4.02-1.8-4.02-4.65l0-4.78c0-1.93,0-3.85,0-5.78c0-2.75-1.84-4.59-4.56-4.6C39.84,22.58,38.56,22.58,37.28,22.58
						L37.28,22.58z"/>
				</g>
				<g>
					<path d="M40.13,19.9c-2.58-0.01-4.86-2.27-4.88-4.84c-0.01-1.24,0.52-2.5,1.46-3.45c0.94-0.95,2.19-1.49,3.43-1.49
						c2.59,0.01,4.87,2.27,4.89,4.85c0.01,1.24-0.52,2.5-1.46,3.44C42.64,19.36,41.39,19.9,40.13,19.9L40.13,19.9z"/>
					<path class="st13" d="M40.14,10.77C40.15,10.77,40.15,10.77,40.14,10.77c2.22,0.01,4.22,1.99,4.24,4.2
						c0.02,2.25-1.99,4.28-4.24,4.28c0,0,0,0-0.01,0c-2.22,0-4.21-1.98-4.23-4.2C35.88,12.8,37.9,10.77,40.14,10.77 M40.14,9.47
						c-1.42,0-2.84,0.61-3.89,1.68c-1.06,1.07-1.66,2.5-1.65,3.91c0.03,2.92,2.61,5.48,5.53,5.49c1.43,0,2.85-0.61,3.91-1.68
						c1.06-1.07,1.66-2.49,1.64-3.91c-0.03-2.92-2.61-5.49-5.53-5.49h0H40.14L40.14,9.47z"/>
				</g>
			</g>
		</g>
	</g>
</g>
<g id="Layer_12">
</g>
<g id="Layer_15">
</g>
<g id="Layer_19">
</g>
<g id="Layer_20">
</g>
</svg>
