<?xml version="1.0" encoding="utf-8"?>
<!-- Generator: Adobe Illustrator 23.0.1, SVG Export Plug-In . SVG Version: 6.00 Build 0)  -->
<svg version="1.1" xmlns="http://www.w3.org/2000/svg" xmlns:xlink="http://www.w3.org/1999/xlink" x="0px" y="0px"
	 viewBox="0 0 58.75 150.53" style="enable-background:new 0 0 58.75 150.53;" xml:space="preserve">
<style type="text/css">
	.st0{fill:#6D6228;}
	.st1{opacity:0.45;}
	.st2{fill:#9BAEBD;}
	.st3{opacity:0.32;}
	.st4{opacity:0.83;}
	.st5{opacity:0.73;}
	.st6{opacity:0.45;fill:#9BAEBD;}
	.st7{fill:#CC722D;}
	.st8{fill:#EE9241;}
	.st9{fill:#1E5148;}
	.st10{fill:#296960;}
	.st11{opacity:0.13;}
	.st12{fill:#FEE238;}
	.st13{fill:#E1D4CD;}
	.st14{fill:#FFFFFF;}
	.st15{fill:#AA6A84;}
	.st16{fill:#DB83A5;}
	.st17{fill:none;}
	.st18{fill:#AA9D97;}
	.st19{fill:#416377;}
	.st20{fill:#8E8987;}
	.st21{fill:#777472;}
	.st22{opacity:0.56;fill:#FFFFFF;}
	.st23{fill:#381812;}
	.st24{fill:#BC3926;}
	.st25{fill:#8D5C38;}
	.st26{fill:#543E2E;}
	.st27{fill:#2F4049;}
	.st28{fill:#83B7AD;}
	.st29{opacity:0.59;fill:#416377;}
	.st30{fill:#FFFFFF;stroke:#FFFFFF;stroke-width:3;stroke-miterlimit:10;}
	.st31{fill:url(#SVGID_177_);}
	.st32{fill:url(#SVGID_178_);}
	.st33{fill:#EBEBEB;}
	.st34{fill:url(#SVGID_179_);}
	.st35{fill:#66C5B3;stroke:#66C5B3;stroke-width:3;stroke-miterlimit:10;}
	.st36{fill:url(#SVGID_180_);}
	.st37{fill:url(#SVGID_181_);}
	.st38{fill:url(#SVGID_182_);}
	.st39{fill:url(#SVGID_183_);}
	.st40{fill:url(#SVGID_184_);}
	.st41{fill:url(#SVGID_185_);}
	.st42{fill:url(#SVGID_186_);}
	.st43{fill:url(#SVGID_187_);}
	.st44{fill:url(#SVGID_188_);}
	.st45{fill:url(#SVGID_189_);}
	.st46{fill:url(#SVGID_190_);}
	.st47{fill:url(#SVGID_191_);}
	.st48{fill:#DB83A5;stroke:#DB83A5;stroke-width:3;stroke-miterlimit:10;}
	.st49{fill:#EE2924;stroke:#EE2924;stroke-width:3;stroke-miterlimit:10;}
	.st50{fill:#FEE238;stroke:#FEE238;stroke-width:3;stroke-miterlimit:10;}
	.st51{fill:#FCB017;stroke:#FCB017;stroke-width:3;stroke-miterlimit:10;}
	.st52{fill:#B3B3B3;}
	.st53{fill:#FFFFFF;stroke:#FFFFFF;stroke-width:10;stroke-miterlimit:10;}
	.st54{fill:#F6ADC6;}
	.st55{fill:#E8DFD9;}
	.st56{fill:none;stroke:#000000;stroke-width:7;stroke-linecap:round;stroke-linejoin:round;stroke-miterlimit:10;}
	.st57{fill:#FFFFFF;stroke:#FFFFFF;stroke-width:10;stroke-linecap:round;stroke-linejoin:round;stroke-miterlimit:10;}
	.st58{fill:#E5E5E5;}
	.st59{fill:#D3584A;}
	.st60{fill:#153D4F;}
	.st61{fill:#724D38;}
	.st62{opacity:0.42;fill:#E1D4CD;}
	.st63{fill:#C5AC32;}
	.st64{clip-path:url(#SVGID_239_);}
	.st65{fill:#8C9973;}
	.st66{fill:#687054;stroke:#DB83A5;stroke-miterlimit:10;}
	.st67{fill:#687054;}
	.st68{fill:#81C453;}
	.st69{fill:#1D7CAD;}
	.st70{fill:#4C382E;}
	.st71{fill:#B29183;}
	.st72{fill:#3F2F28;}
	.st73{fill:none;stroke:#CC722D;stroke-width:0;stroke-linecap:round;stroke-linejoin:round;}
	.st74{fill:url(#SVGID_242_);}
	.st75{fill:#7D7D7D;}
	.st76{fill:#4A494A;}
	.st77{fill:#03576B;}
	.st78{fill:#37A5B7;}
	.st79{fill:#606161;}
	.st80{fill:url(#SVGID_243_);}
	.st81{fill:url(#SVGID_244_);}
	.st82{fill:url(#SVGID_245_);}
	.st83{fill:url(#SVGID_246_);}
	.st84{fill:url(#SVGID_247_);}
	.st85{fill:url(#SVGID_248_);}
	.st86{fill:#56C8E0;stroke:#56C8E0;stroke-width:3;stroke-miterlimit:10;}
	.st87{fill:#3C489E;}
	.st88{fill:none;stroke:#9BC9CE;stroke-width:3;stroke-miterlimit:10;}
	.st89{fill:#C61D69;}
	.st90{fill:#852656;}
	.st91{fill:#E4BD22;}
	.st92{fill:#3B9444;stroke:#FFFFFF;stroke-width:3;stroke-linecap:round;stroke-linejoin:round;stroke-miterlimit:10;}
	.st93{opacity:0.88;}
	.st94{opacity:0.58;fill:#939393;}
	.st95{fill:#EF3B27;}
	.st96{fill:#8A3830;}
	.st97{fill:#10464C;}
	.st98{clip-path:url(#SVGID_262_);}
	.st99{opacity:0.47;fill:#086472;}
	.st100{clip-path:url(#SVGID_264_);}
	.st101{clip-path:url(#SVGID_266_);}
	.st102{fill:#086472;}
</style>
<g id="Layer_11">
</g>
<g id="Layer_13">
</g>
<g id="Layer_10">
</g>
<g id="Layer_14">
</g>
<g id="Layer_18">
</g>
<g id="Layer_17">
</g>
<g id="Layer_7">
</g>
<g id="Layer_16">
</g>
<g id="Layer_8">
</g>
<g id="Layer_9">
	<g>
		<g>
			<path class="st75" d="M28.79,149.07c-14.55,0-26-10.95-27.23-26.03c-0.81-10.01,3.14-21.53,12.2-24.92V17.81
				c0-8.71,7.02-16.35,15.02-16.35c8.32,0,15.02,10.21,15.02,18.66v78.26c6.82,4.54,13.48,13.32,13.48,23.24
				C57.29,136.24,43.97,149.07,28.79,149.07z"/>
			<path class="st14" d="M28.79,2.91c7.49,0,13.56,9.71,13.56,17.2v79.05c7.27,4.53,13.48,13.25,13.48,22.45
				c0,14.18-12.87,26-27.05,26c-14.18,0-24.63-10.56-25.77-24.69c-0.82-10.15,3.29-21.15,12.21-23.76V17.81
				C15.23,10.32,21.3,2.91,28.79,2.91 M28.79,0c-8.78,0-16.48,8.32-16.48,17.81v79.33c-4.03,1.79-7.28,5.15-9.48,9.84
				c-2.22,4.72-3.18,10.46-2.72,16.18c0.62,7.6,3.77,14.53,8.87,19.5c5.22,5.08,12.25,7.87,19.81,7.87c7.56,0,15.15-3.09,20.84-8.48
				c5.88-5.57,9.12-12.83,9.12-20.43c0-10.14-6.57-19.13-13.48-24.01V20.12C45.27,11,37.92,0,28.79,0L28.79,0z"/>
		</g>
		<g>
			<path class="st76" d="M41.3,102.13l-1.65-1.03v-1.94V20.12c0-5.98-4.88-13.71-10.07-13.71c-5.27,0-10.07,5.43-10.07,11.4v81.36
				v2.62L17,102.52c-7.27,2.13-10.39,11.73-9.71,20.12c1.03,12.64,10.19,21.48,22.29,21.48c12.54,0,23.55-10.52,23.55-22.5
				C53.13,113.26,47.19,105.81,41.3,102.13z"/>
		</g>
		<path class="st77" d="M33.71,106.85v-8.83c0-2.73-2.21-4.94-4.94-4.94s-4.94,2.21-4.94,4.94v8.83
			c-6.36,2.08-12.07,8.4-12.07,15.45c0,8.78,8.24,15.54,17.01,15.54c8.78,0,15.89-7.11,15.89-15.89
			C44.66,114.9,40.07,108.93,33.71,106.85z"/>
		<path class="st78" d="M34.7,104.38v-8.83c0-2.73-2.21-4.94-4.94-4.94s-3.42,2.42-3.42,5.15l-0.31,9.16
			c-6.36,2.08-11.34,7.87-11.34,14.92c0,8.78,6.7,14.26,15.48,14.26c8.78,0,15.48-5.83,15.48-14.61
			C45.65,112.44,41.05,106.46,34.7,104.38z"/>
		<g>
			<path class="st14" d="M24.51,45.28H13.43c-0.8,0-1.46-0.65-1.46-1.46s0.65-1.46,1.46-1.46h11.08c0.8,0,1.46,0.65,1.46,1.46
				S25.31,45.28,24.51,45.28z"/>
		</g>
		<g>
			<path class="st14" d="M24.51,63.86H13.43c-0.8,0-1.46-0.65-1.46-1.46s0.65-1.46,1.46-1.46h11.08c0.8,0,1.46,0.65,1.46,1.46
				S25.31,63.86,24.51,63.86z"/>
		</g>
		<g>
			<path class="st14" d="M24.51,82.44H13.43c-0.8,0-1.46-0.65-1.46-1.46s0.65-1.46,1.46-1.46h11.08c0.8,0,1.46,0.65,1.46,1.46
				S25.31,82.44,24.51,82.44z"/>
		</g>
	</g>
</g>
<g id="Layer_12">
</g>
<g id="Layer_15">
</g>
<g id="Layer_19">
</g>
<g id="Layer_20">
</g>
</svg>
