<?xml version="1.0" encoding="utf-8"?>
<!-- Generator: Adobe Illustrator 23.0.1, SVG Export Plug-In . SVG Version: 6.00 Build 0)  -->
<svg version="1.1" xmlns="http://www.w3.org/2000/svg" xmlns:xlink="http://www.w3.org/1999/xlink" x="0px" y="0px"
	 viewBox="0 0 59.47 56.69" style="enable-background:new 0 0 59.47 56.69;" xml:space="preserve">
<style type="text/css">
	.st0{fill:#6D6228;}
	.st1{opacity:0.45;}
	.st2{fill:#9BAEBD;}
	.st3{opacity:0.32;}
	.st4{opacity:0.83;}
	.st5{opacity:0.73;}
	.st6{opacity:0.45;fill:#9BAEBD;}
	.st7{fill:#CC722D;}
	.st8{fill:#EE9241;}
	.st9{fill:#1E5148;}
	.st10{fill:#296960;}
	.st11{opacity:0.13;}
	.st12{fill:#FEE238;}
	.st13{fill:#E1D4CD;}
	.st14{fill:#FFFFFF;}
	.st15{fill:#AA6A84;}
	.st16{fill:#DB83A5;}
	.st17{fill:none;}
	.st18{fill:#AA9D97;}
	.st19{fill:#416377;}
	.st20{fill:#8E8987;}
	.st21{fill:#777472;}
	.st22{opacity:0.56;fill:#FFFFFF;}
	.st23{fill:#381812;}
	.st24{fill:#BC3926;}
	.st25{fill:#8D5C38;}
	.st26{fill:#543E2E;}
	.st27{fill:#2F4049;}
	.st28{fill:#83B7AD;}
	.st29{opacity:0.59;fill:#416377;}
	.st30{fill:#FFFFFF;stroke:#FFFFFF;stroke-width:3;stroke-miterlimit:10;}
	.st31{fill:url(#SVGID_177_);}
	.st32{fill:url(#SVGID_178_);}
	.st33{fill:#EBEBEB;}
	.st34{fill:url(#SVGID_179_);}
	.st35{fill:#66C5B3;stroke:#66C5B3;stroke-width:3;stroke-miterlimit:10;}
	.st36{fill:url(#SVGID_180_);}
	.st37{fill:url(#SVGID_181_);}
	.st38{fill:url(#SVGID_182_);}
	.st39{fill:url(#SVGID_183_);}
	.st40{fill:url(#SVGID_184_);}
	.st41{fill:url(#SVGID_185_);}
	.st42{fill:url(#SVGID_186_);}
	.st43{fill:url(#SVGID_187_);}
	.st44{fill:url(#SVGID_188_);}
	.st45{fill:url(#SVGID_189_);}
	.st46{fill:url(#SVGID_190_);}
	.st47{fill:url(#SVGID_191_);}
	.st48{fill:#DB83A5;stroke:#DB83A5;stroke-width:3;stroke-miterlimit:10;}
	.st49{fill:#EE2924;stroke:#EE2924;stroke-width:3;stroke-miterlimit:10;}
	.st50{fill:#FEE238;stroke:#FEE238;stroke-width:3;stroke-miterlimit:10;}
	.st51{fill:#FCB017;stroke:#FCB017;stroke-width:3;stroke-miterlimit:10;}
	.st52{fill:#B3B3B3;}
	.st53{fill:#FFFFFF;stroke:#FFFFFF;stroke-width:10;stroke-miterlimit:10;}
	.st54{fill:#F6ADC6;}
	.st55{fill:#E8DFD9;}
	.st56{fill:none;stroke:#000000;stroke-width:7;stroke-linecap:round;stroke-linejoin:round;stroke-miterlimit:10;}
	.st57{fill:#FFFFFF;stroke:#FFFFFF;stroke-width:10;stroke-linecap:round;stroke-linejoin:round;stroke-miterlimit:10;}
	.st58{fill:#E5E5E5;}
	.st59{fill:#D3584A;}
	.st60{fill:#153D4F;}
	.st61{fill:#724D38;}
	.st62{opacity:0.42;fill:#E1D4CD;}
	.st63{fill:#C5AC32;}
	.st64{clip-path:url(#SVGID_239_);}
	.st65{fill:#8C9973;}
	.st66{fill:#687054;stroke:#DB83A5;stroke-miterlimit:10;}
	.st67{fill:#687054;}
	.st68{fill:#81C453;}
	.st69{fill:#1D7CAD;}
	.st70{fill:#4C382E;}
	.st71{fill:#B29183;}
	.st72{fill:#3F2F28;}
	.st73{fill:none;stroke:#CC722D;stroke-width:0;stroke-linecap:round;stroke-linejoin:round;}
	.st74{fill:url(#SVGID_242_);}
	.st75{fill:#7D7D7D;}
	.st76{fill:#4A494A;}
	.st77{fill:#03576B;}
	.st78{fill:#37A5B7;}
	.st79{fill:#606161;}
	.st80{fill:url(#SVGID_243_);}
	.st81{fill:url(#SVGID_244_);}
	.st82{fill:url(#SVGID_245_);}
	.st83{fill:url(#SVGID_246_);}
	.st84{fill:url(#SVGID_247_);}
	.st85{fill:url(#SVGID_248_);}
	.st86{fill:#56C8E0;stroke:#56C8E0;stroke-width:3;stroke-miterlimit:10;}
	.st87{fill:#3C489E;}
	.st88{fill:none;stroke:#9BC9CE;stroke-width:3;stroke-miterlimit:10;}
	.st89{fill:#C61D69;}
	.st90{fill:#852656;}
	.st91{fill:#E4BD22;}
	.st92{fill:#3B9444;stroke:#FFFFFF;stroke-width:3;stroke-linecap:round;stroke-linejoin:round;stroke-miterlimit:10;}
	.st93{opacity:0.88;}
	.st94{opacity:0.58;fill:#939393;}
	.st95{fill:#EF3B27;}
	.st96{fill:#8A3830;}
	.st97{fill:#10464C;}
	.st98{clip-path:url(#SVGID_262_);}
	.st99{opacity:0.47;fill:#086472;}
	.st100{clip-path:url(#SVGID_264_);}
	.st101{clip-path:url(#SVGID_266_);}
	.st102{fill:#086472;}
</style>
<g id="Layer_11">
</g>
<g id="Layer_13">
</g>
<g id="Layer_10">
</g>
<g id="Layer_14">
</g>
<g id="Layer_18">
</g>
<g id="Layer_17">
</g>
<g id="Layer_7">
</g>
<g id="Layer_16">
</g>
<g id="Layer_8">
</g>
<g id="Layer_9">
	<g>
		<g>
			<g>
				<path class="st77" d="M30.65,55.79c-16.11,0-29.71-13.35-29.71-29.16C0.94,9.92,16.72,0.9,31.57,0.9
					c15.37,0,26.96,12.38,26.96,28.79C58.53,45.06,47.07,55.79,30.65,55.79z"/>
				<path class="st14" d="M31.57,1.8c15.41,0,26.06,12.49,26.06,27.9S46.06,54.9,30.65,54.9S1.84,42.04,1.84,26.63
					S16.16,1.8,31.57,1.8 M31.57,0c-8.2,0-15.93,2.49-21.75,7.02c-6.31,4.91-9.78,11.87-9.78,19.61c0,7.91,3.26,15.44,9.17,21.2
					c5.78,5.63,13.6,8.86,21.44,8.86c16.94,0,28.78-11.1,28.78-27c0-8.02-2.74-15.46-7.72-20.93C46.57,3.11,39.42,0,31.57,0L31.57,0
					z"/>
			</g>
			<path class="st78" d="M53.99,28.69c0,13.72-11.67,22.37-25.38,22.37S5.88,40.54,5.88,26.82s12.53-20.5,26.25-20.5
				S53.99,14.97,53.99,28.69z"/>
		</g>
		<g>
			
				<radialGradient id="SVGID_2_" cx="24.043" cy="34.2677" r="22.8442" fx="13.6857" fy="54.629" gradientTransform="matrix(0.9593 0 0 0.9593 11.6324 -4.5275)" gradientUnits="userSpaceOnUse">
				<stop  offset="0.0291" style="stop-color:#F7B43A;stop-opacity:0.9"/>
				<stop  offset="0.1468" style="stop-color:#F7B83A;stop-opacity:0.9"/>
				<stop  offset="0.3011" style="stop-color:#F9C43A;stop-opacity:0.9"/>
				<stop  offset="0.4748" style="stop-color:#FCD739;stop-opacity:0.9"/>
				<stop  offset="0.5556" style="stop-color:#FEE238;stop-opacity:0.9"/>
				<stop  offset="0.7567" style="stop-color:#FFEFA8;stop-opacity:0.9"/>
			</radialGradient>
			<path style="fill:url(#SVGID_2_);" d="M23.96,44.38c-0.11,0-0.23-0.03-0.33-0.08c-0.24-0.12-0.39-0.37-0.39-0.64V13.03
				c0-0.27,0.15-0.52,0.39-0.64c0.1-0.05,0.22-0.08,0.33-0.08c0.15,0,0.29,0.04,0.42,0.13l21.47,15.31c0.19,0.13,0.3,0.35,0.3,0.59
				s-0.11,0.45-0.3,0.59L24.38,44.24C24.25,44.33,24.11,44.38,23.96,44.38z"/>
			<path class="st14" d="M23.96,13.03l21.47,15.31L23.96,43.66V13.03 M23.96,11.6c-0.22,0-0.45,0.05-0.66,0.16
				c-0.48,0.25-0.78,0.74-0.78,1.28v30.63c0,0.54,0.3,1.03,0.78,1.28c0.21,0.11,0.43,0.16,0.66,0.16c0.29,0,0.59-0.09,0.83-0.27
				l21.47-15.31c0.38-0.27,0.6-0.71,0.6-1.17s-0.22-0.9-0.6-1.17L24.8,11.86C24.55,11.69,24.25,11.6,23.96,11.6L23.96,11.6z"/>
		</g>
	</g>
</g>
<g id="Layer_12">
</g>
<g id="Layer_15">
</g>
<g id="Layer_19">
</g>
<g id="Layer_20">
</g>
</svg>
