<svg id="Layer_1" data-name="Layer 1" xmlns="http://www.w3.org/2000/svg" viewBox="0 0 181.08 131.14"><defs><style>.cls-1,.cls-2{fill:#fff;}.cls-2{opacity:0.56;}.cls-3{fill:#153d4f;}.cls-4{fill:#bc3926;}.cls-5{font-size:9.77px;font-family:PatrickHand-Regular, Patrick Hand;letter-spacing:0.02em;}</style></defs><title>Artboard 2</title><path class="cls-1" d="M3.47,21.5l150-1.07L157.41,25c1.94,3.29,5.16,3.48,8.8,3.52,1.14,0,8-1.15,8.37-.1a12.46,12.46,0,0,1,.83,4.29l2,59.34c0,5.51-6.51,9.72-12,9.72l-102.65.92-4.6-5.92L47.82,92.61,35.2,96.44l-4.85,6.62-27.6,1Z"/><path d="M30.08,40.94c-.23-.67-.46-1.29-.71-1.84s-.55-1.26-.94-2.1l-.24-.54a.47.47,0,0,1-.05-.24.37.37,0,0,1,.12-.25.42.42,0,0,1,.29-.12.33.33,0,0,1,.27.15l.39.92c.56,1.29,1,2.23,1.2,2.81l.15-.58c.12-.51.25-1,.38-1.51.38-1.36.75-2,1.12-2a.27.27,0,0,1,.17.06.2.2,0,0,1,.07.15.66.66,0,0,1-.11.29,5.25,5.25,0,0,0-.26.69c-.11.34-.17.53-.2.59s-.15.52-.39,1.4-.45,1.56-.62,2.06a.44.44,0,0,1-.16.22.4.4,0,0,1-.26.08C30.2,41.14,30.13,41.08,30.08,40.94Z"/><path d="M33.32,35.85a.38.38,0,0,1,.29.14.41.41,0,0,1,.13.29.46.46,0,0,1-.14.31.41.41,0,0,1-.31.16.37.37,0,0,1-.28-.13.45.45,0,0,1-.13-.34c0-.27.14-.41.43-.43Zm.35,4.35v.58a.32.32,0,0,1-.12.26.39.39,0,0,1-.27.1c-.14,0-.21-.06-.21-.2C33,39.17,33,38.19,33,38s0-.42,0-.69c0-.1.08-.15.19-.15.3,0,.46.12.5.35a2,2,0,0,1,0,.29l0,.53Z"/><path d="M35.29,37.49a1.28,1.28,0,0,1,.81-.29,2.43,2.43,0,0,1,.89.17c.28.11.42.25.42.44a.25.25,0,0,1-.11.22.28.28,0,0,1-.18.08H37a2.39,2.39,0,0,1-.33-.15,1.16,1.16,0,0,0-.53-.15.69.69,0,0,0-.41.12.4.4,0,0,0-.17.35.41.41,0,0,0,.2.36,1.81,1.81,0,0,0,.68.23,2.29,2.29,0,0,1,.75.27.72.72,0,0,1,.26.65,1.19,1.19,0,0,1-.36,1,1.35,1.35,0,0,1-.87.28,2.29,2.29,0,0,1-.88-.14q-.36-.13-.36-.42a.28.28,0,0,1,.32-.32,1.16,1.16,0,0,1,.37.11,1.41,1.41,0,0,0,.56.12.5.5,0,0,0,.42-.18.63.63,0,0,0,.15-.41.37.37,0,0,0-.19-.34A2.15,2.15,0,0,0,36,39.3a2.72,2.72,0,0,1-.58-.14.85.85,0,0,1-.5-.89A1,1,0,0,1,35.29,37.49Z"/><path d="M38.37,37.22H39V35.51a.31.31,0,0,1,.14-.24.47.47,0,0,1,.25-.1.22.22,0,0,1,.18.08.32.32,0,0,1,.07.23c0,.11,0,.68,0,1.73l1,0c.17,0,.25.09.25.29a.38.38,0,0,1-.13.32.54.54,0,0,1-.27.12h-.8c0,.22,0,.67.07,1.34s.09,1.1.12,1.3a1.23,1.23,0,0,1,0,.38.14.14,0,0,1-.09.12.6.6,0,0,1-.29.05c-.12,0-.19-.06-.22-.2a26.71,26.71,0,0,1-.22-3h-.57c-.33,0-.5-.09-.5-.29S38.06,37.22,38.37,37.22Z"/><path d="M42.39,37.25a1.5,1.5,0,0,1,.83.26.73.73,0,0,1,.4.63,1.09,1.09,0,0,1-.32.73,1.39,1.39,0,0,1-.86.43,6,6,0,0,1-.7,0,1.51,1.51,0,0,0,.35.93.28.28,0,0,0,.23.1,1.2,1.2,0,0,0,.86-.33c.23-.22.4-.33.5-.33s.11,0,.2.12a.34.34,0,0,1,.13.24c0,.14-.17.35-.52.62a2.16,2.16,0,0,1-.56.32,1.6,1.6,0,0,1-.61.13c-.48,0-.84-.31-1.06-.93A3.4,3.4,0,0,1,41,38.94a2.18,2.18,0,0,1,.32-1.19A1.15,1.15,0,0,1,42.39,37.25Zm0,.57a.64.64,0,0,0-.54.36,1.58,1.58,0,0,0-.16.56c.77,0,1.16-.19,1.16-.57S42.74,37.82,42.43,37.82Z"/><path d="M48.72,37.21v-1.6c0-.3.1-.45.29-.45s.3.08.32.25,0,.5,0,1.3,0,1.55.08,2.24.06,1.35.06,1.95c0,.17-.13.25-.38.25s-.25-.11-.25-.35a1.33,1.33,0,0,1-.85.29,1.23,1.23,0,0,1-1-.47,1.71,1.71,0,0,1-.39-1.14,2.92,2.92,0,0,1,.28-1.28,1.61,1.61,0,0,1,.87-.85,1.69,1.69,0,0,1,.7-.16Zm.05,1.13a.68.68,0,0,0-.15-.27.31.31,0,0,0-.18-.12l-.22,0a.71.71,0,0,0-.33.1,1,1,0,0,0-.32.32,1.83,1.83,0,0,0-.27.95,1.48,1.48,0,0,0,.2.8.61.61,0,0,0,.55.31.62.62,0,0,0,.57-.35,1.82,1.82,0,0,0,.21-.92A3.25,3.25,0,0,0,48.77,38.34Z"/><path d="M50.27,37.3a.33.33,0,0,1,.22-.09.29.29,0,0,1,.17,0,.3.3,0,0,1,.08.07l0,.12c0,.43-.05.82-.05,1.17a6.93,6.93,0,0,0,.12,1.19c.08.44.18.66.27.66a1.09,1.09,0,0,0,.57-.24,1.75,1.75,0,0,0,.5-.53c-.07-.8-.1-1.48-.1-2a.44.44,0,0,1,.11-.3.37.37,0,0,1,.27-.12c.17,0,.26.11.26.35s0,1,.09,1.75A9.25,9.25,0,0,0,53,40.8.61.61,0,0,1,53,41c0,.06,0,.11-.11.17a.52.52,0,0,1-.29.07.23.23,0,0,1-.24-.19c0-.11,0-.28-.08-.5a1.67,1.67,0,0,1-1.17.6.7.7,0,0,1-.49-.2,1.34,1.34,0,0,1-.34-.57A4.16,4.16,0,0,1,50.06,39c0-.41,0-.91.07-1.5A.49.49,0,0,1,50.27,37.3Z"/><path d="M58,37.22c.25,0,.37.2.37.62V38l0,.58v.54L58.49,41q0,.21-.42.21H58a.15.15,0,0,1-.14-.08.35.35,0,0,1,0-.18.34.34,0,0,0,0-.24,1.31,1.31,0,0,1-1,.4c-.78,0-1.17-.6-1.17-1.81A2.58,2.58,0,0,1,56,37.76a1.26,1.26,0,0,1,1.08-.51,2,2,0,0,1,.67.12A.34.34,0,0,1,58,37.22Zm-.86.75a.84.84,0,0,0-.7.28,1.54,1.54,0,0,0-.24,1c0,.82.22,1.23.67,1.23a.64.64,0,0,0,.38-.16.9.9,0,0,0,.3-.35,3.1,3.1,0,0,0,.16-1,1.83,1.83,0,0,0-.13-.78A.46.46,0,0,0,57.16,38Z"/><path d="M59.34,37.22h.57V35.51a.34.34,0,0,1,.14-.24.47.47,0,0,1,.25-.1.26.26,0,0,1,.19.08.32.32,0,0,1,.06.23c0,.11,0,.68,0,1.73l1,0c.17,0,.25.09.25.29a.38.38,0,0,1-.13.32.47.47,0,0,1-.27.12h-.79c0,.22,0,.67.07,1.34s.08,1.1.11,1.3a1.38,1.38,0,0,1,0,.38.18.18,0,0,1-.1.12.58.58,0,0,1-.29.05c-.12,0-.19-.06-.21-.2a26.3,26.3,0,0,1-.23-3h-.57c-.33,0-.5-.09-.5-.29S59,37.22,59.34,37.22Z"/><path d="M66.21,37.21v-1.6c0-.3.1-.45.29-.45s.3.08.32.25,0,.5,0,1.3.05,1.55.08,2.24S67,40.3,67,40.9c0,.17-.13.25-.38.25s-.25-.11-.25-.35a1.32,1.32,0,0,1-.84.29,1.24,1.24,0,0,1-1-.47,1.71,1.71,0,0,1-.39-1.14,2.92,2.92,0,0,1,.28-1.28,1.61,1.61,0,0,1,.87-.85,1.69,1.69,0,0,1,.7-.16Zm.05,1.13a.68.68,0,0,0-.15-.27.32.32,0,0,0-.17-.12l-.23,0a.71.71,0,0,0-.33.1,1,1,0,0,0-.32.32,1.83,1.83,0,0,0-.27.95,1.48,1.48,0,0,0,.2.8.64.64,0,0,0,1.12,0,1.82,1.82,0,0,0,.21-.92A3.25,3.25,0,0,0,66.26,38.34Z"/><path d="M68.83,37.25a1.56,1.56,0,0,1,.84.26.75.75,0,0,1,.4.63,1.06,1.06,0,0,1-.33.73,1.34,1.34,0,0,1-.86.43,6,6,0,0,1-.7,0,1.45,1.45,0,0,0,.36.93.26.26,0,0,0,.22.1,1.22,1.22,0,0,0,.87-.33c.23-.22.39-.33.49-.33a.34.34,0,0,1,.2.12.36.36,0,0,1,.14.24c0,.14-.18.35-.53.62a2,2,0,0,1-.56.32,1.6,1.6,0,0,1-.61.13c-.48,0-.83-.31-1.06-.93a3.62,3.62,0,0,1-.22-1.26,2.1,2.1,0,0,1,.33-1.19A1.12,1.12,0,0,1,68.83,37.25Zm0,.57a.64.64,0,0,0-.54.36,1.84,1.84,0,0,0-.16.56q1.17,0,1.17-.57C69.34,37.94,69.18,37.82,68.87,37.82Z"/><path d="M71.31,37.22h.58V35.51a.31.31,0,0,1,.14-.24.47.47,0,0,1,.25-.1.23.23,0,0,1,.18.08.28.28,0,0,1,.06.23v1.73l1,0c.16,0,.25.09.25.29a.41.41,0,0,1-.13.32.54.54,0,0,1-.27.12h-.8c0,.22,0,.67.07,1.34s.09,1.1.11,1.3a1.05,1.05,0,0,1,0,.38.19.19,0,0,1-.09.12.6.6,0,0,1-.29.05c-.12,0-.19-.06-.22-.2a26.71,26.71,0,0,1-.22-3h-.57c-.34,0-.5-.09-.5-.29S71,37.22,71.31,37.22Z"/><path d="M77.27,39.88v.86a.35.35,0,0,1-.13.27.43.43,0,0,1-.27.13q-.19,0-.24-.3c0-.05,0-.45-.07-1.22a10,10,0,0,0-.22-1.81,3.24,3.24,0,0,1-.08-.37q0-.27.33-.27a.28.28,0,0,1,.23.1.61.61,0,0,1,.1.22c0,.08,0,.18,0,.31S77,38,77,38a1.21,1.21,0,0,1,.53-.62,1.43,1.43,0,0,1,.76-.21c.45,0,.68.11.68.35a.36.36,0,0,1-.12.28.45.45,0,0,1-.28.1,1.08,1.08,0,0,0-1,.45A2.77,2.77,0,0,0,77.27,39.88Z"/><path d="M80.76,37.25a1.51,1.51,0,0,1,.84.26.73.73,0,0,1,.4.63,1.09,1.09,0,0,1-.32.73,1.39,1.39,0,0,1-.87.43,5.81,5.81,0,0,1-.7,0,1.57,1.57,0,0,0,.36.93.28.28,0,0,0,.23.1,1.2,1.2,0,0,0,.86-.33c.23-.22.4-.33.5-.33a.4.4,0,0,1,.2.12.34.34,0,0,1,.13.24c0,.14-.17.35-.52.62a2.16,2.16,0,0,1-.56.32,1.63,1.63,0,0,1-.61.13c-.49,0-.84-.31-1.07-.93a3.62,3.62,0,0,1-.21-1.26,2.18,2.18,0,0,1,.32-1.19A1.14,1.14,0,0,1,80.76,37.25Zm0,.57a.62.62,0,0,0-.53.36,1.58,1.58,0,0,0-.16.56c.77,0,1.16-.19,1.16-.57S81.11,37.82,80.8,37.82Z"/><path d="M85.42,40.75a.93.93,0,0,1-.75.35,1.16,1.16,0,0,1-.79-.28,1.94,1.94,0,0,1-.7-1.65,2,2,0,0,1,.48-1.4,1.56,1.56,0,0,1,1.19-.53,1,1,0,0,1,1,.48A2.84,2.84,0,0,1,86,39l0,.68c0,.32,0,.77,0,1.34s0,1,0,1.28a1.4,1.4,0,0,1-.35,1.05,1.54,1.54,0,0,1-1.08.34,2.22,2.22,0,0,1-.88-.19c-.3-.12-.44-.26-.44-.42a.38.38,0,0,1,.09-.27.31.31,0,0,1,.22-.09,1.91,1.91,0,0,1,.56.19,1.93,1.93,0,0,0,.63.18c.4,0,.6-.33.6-1S85.44,41,85.42,40.75Zm0-1.75a1.5,1.5,0,0,0-.17-.85.66.66,0,0,0-.56-.24.7.7,0,0,0-.62.35,1.57,1.57,0,0,0-.23.88,1.43,1.43,0,0,0,.22.85.78.78,0,0,0,.68.32.54.54,0,0,0,.58-.39A3.12,3.12,0,0,0,85.41,39Z"/><path d="M87.22,40.84l-.09-3.37a.33.33,0,0,1,.1-.26.33.33,0,0,1,.22-.1c.18,0,.28.07.31.22a3.59,3.59,0,0,1,0,.47,1.34,1.34,0,0,1,1.12-.59c.69,0,1,.78,1,2.35v.65a3.21,3.21,0,0,1,0,.64.32.32,0,0,1-.36.24c-.13,0-.2-.08-.2-.26v-.47a9.24,9.24,0,0,0-.06-1.31,5.14,5.14,0,0,0-.12-.56c-.09-.3-.25-.45-.46-.45a.61.61,0,0,0-.58.3,1.78,1.78,0,0,0-.21.76c0,.52-.06,1.06-.06,1.64a.29.29,0,0,1-.13.26.44.44,0,0,1-.3.1C87.29,41.1,87.22,41,87.22,40.84Z"/><path d="M92,37.25a1.56,1.56,0,0,1,.84.26.74.74,0,0,1,.39.63,1,1,0,0,1-.32.73,1.37,1.37,0,0,1-.86.43,6,6,0,0,1-.7,0,1.45,1.45,0,0,0,.36.93.26.26,0,0,0,.22.1,1.2,1.2,0,0,0,.86-.33c.24-.22.4-.33.5-.33s.11,0,.2.12a.36.36,0,0,1,.14.24c0,.14-.18.35-.53.62a2,2,0,0,1-.56.32,1.6,1.6,0,0,1-.61.13c-.48,0-.84-.31-1.06-.93a3.4,3.4,0,0,1-.22-1.26A2.1,2.1,0,0,1,91,37.75,1.12,1.12,0,0,1,92,37.25Zm0,.57a.64.64,0,0,0-.54.36,1.58,1.58,0,0,0-.16.56c.78,0,1.16-.19,1.16-.57S92.37,37.82,92.06,37.82Z"/><path d="M95.36,39.88v.86a.33.33,0,0,1-.14.27.43.43,0,0,1-.26.13c-.13,0-.21-.1-.25-.3s0-.45-.06-1.22a9.84,9.84,0,0,0-.23-1.81,2.37,2.37,0,0,1-.07-.37q0-.27.33-.27a.28.28,0,0,1,.23.1.61.61,0,0,1,.1.22c0,.08,0,.18,0,.31s0,.21,0,.24a1.21,1.21,0,0,1,.53-.62,1.43,1.43,0,0,1,.76-.21c.45,0,.68.11.68.35a.36.36,0,0,1-.12.28.45.45,0,0,1-.28.1,1.11,1.11,0,0,0-1,.45A2.88,2.88,0,0,0,95.36,39.88Z"/><path d="M100.21,41.1c-.15,0-.23-.08-.26-.24a20.5,20.5,0,0,0-.2-3,.44.44,0,0,1,.12-.3.39.39,0,0,1,.27-.13.24.24,0,0,1,.23.18,1,1,0,0,1,.82-.41,1.12,1.12,0,0,1,1,.63,1.27,1.27,0,0,1,1.1-.6,1.11,1.11,0,0,1,1,.55,2.32,2.32,0,0,1,.32.9,10.41,10.41,0,0,1,.09,1.57,1.94,1.94,0,0,1-.08.62.34.34,0,0,1-.35.22c-.15,0-.22-.09-.22-.27l0-1c0-1.24-.33-1.87-1-1.87a.46.46,0,0,0-.44.22,1.3,1.3,0,0,0-.16.54c0,.33,0,.63,0,.9v1.21a.25.25,0,0,1-.13.22.48.48,0,0,1-.27.09q-.18,0-.24-.24l0-1.72c0-.61-.1-1-.31-1.13a.71.71,0,0,0-.45-.11.5.5,0,0,0-.45.22,1.34,1.34,0,0,0-.14.72l0,1.55C100.6,40.87,100.47,41.1,100.21,41.1Z"/><path d="M106.74,37.25a1.56,1.56,0,0,1,.84.26.73.73,0,0,1,.4.63,1.06,1.06,0,0,1-.33.73,1.34,1.34,0,0,1-.86.43,5.93,5.93,0,0,1-.7,0,1.45,1.45,0,0,0,.36.93.28.28,0,0,0,.23.1,1.2,1.2,0,0,0,.86-.33c.23-.22.4-.33.5-.33a.4.4,0,0,1,.2.12.39.39,0,0,1,.13.24c0,.14-.18.35-.52.62a2.34,2.34,0,0,1-.56.32,1.63,1.63,0,0,1-.61.13c-.49,0-.84-.31-1.07-.93a3.62,3.62,0,0,1-.21-1.26,2.1,2.1,0,0,1,.32-1.19A1.14,1.14,0,0,1,106.74,37.25Zm0,.57a.64.64,0,0,0-.54.36,1.93,1.93,0,0,0-.15.56c.77,0,1.16-.19,1.16-.57S107.09,37.82,106.78,37.82Z"/><path d="M109.51,37.49a1.24,1.24,0,0,1,.81-.29,2.42,2.42,0,0,1,.88.17c.28.11.43.25.43.44a.28.28,0,0,1-.11.22.32.32,0,0,1-.19.08h-.12a2.24,2.24,0,0,1-.34-.15,1.12,1.12,0,0,0-.52-.15.69.69,0,0,0-.41.12.38.38,0,0,0-.17.35.4.4,0,0,0,.19.36,1.87,1.87,0,0,0,.69.23,2.48,2.48,0,0,1,.75.27.75.75,0,0,1,.26.65,1.19,1.19,0,0,1-.36,1,1.38,1.38,0,0,1-.88.28,2.36,2.36,0,0,1-.88-.14q-.36-.13-.36-.42c0-.22.11-.32.33-.32a1.2,1.2,0,0,1,.36.11,1.45,1.45,0,0,0,.56.12.52.52,0,0,0,.43-.18.68.68,0,0,0,.14-.41.35.35,0,0,0-.19-.34,2.15,2.15,0,0,0-.58-.17,2.6,2.6,0,0,1-.57-.14.84.84,0,0,1-.5-.89A.93.93,0,0,1,109.51,37.49Z"/><path d="M112.59,37.22h.57V35.51a.34.34,0,0,1,.14-.24.47.47,0,0,1,.25-.1.26.26,0,0,1,.19.08.28.28,0,0,1,.06.23c0,.11,0,.68,0,1.73l1,0c.17,0,.25.09.25.29a.38.38,0,0,1-.13.32.47.47,0,0,1-.27.12h-.79c0,.22,0,.67.07,1.34s.08,1.1.11,1.3a1.38,1.38,0,0,1,0,.38.19.19,0,0,1-.09.12.65.65,0,0,1-.3.05c-.12,0-.19-.06-.21-.2a26.3,26.3,0,0,1-.23-3h-.57c-.33,0-.5-.09-.5-.29S112.28,37.22,112.59,37.22Z"/><path d="M118,35.85a.36.36,0,0,1,.28.14.41.41,0,0,1,.13.29.46.46,0,0,1-.14.31.41.41,0,0,1-.31.16.37.37,0,0,1-.28-.13.45.45,0,0,1-.13-.34c0-.27.14-.41.43-.43Zm.35,4.35v.58a.32.32,0,0,1-.12.26.39.39,0,0,1-.27.1c-.13,0-.21-.06-.21-.2-.07-1.77-.11-2.75-.11-2.93s0-.42,0-.69a.17.17,0,0,1,.2-.15c.29,0,.46.12.49.35a2,2,0,0,1,0,.29l0,.53Z"/><path d="M123.9,37.22c.24,0,.37.2.37.62V38l0,.58c0,.18,0,.37,0,.54l.12,1.88q0,.21-.42.21h-.12a.13.13,0,0,1-.13-.08.22.22,0,0,1,0-.18.41.41,0,0,0,0-.24,1.33,1.33,0,0,1-1,.4c-.79,0-1.17-.6-1.17-1.81a2.58,2.58,0,0,1,.37-1.52,1.28,1.28,0,0,1,1.09-.51,1.92,1.92,0,0,1,.66.12A.34.34,0,0,1,123.9,37.22ZM123,38a.85.85,0,0,0-.71.28,1.61,1.61,0,0,0-.23,1q0,1.23.66,1.23a.64.64,0,0,0,.39-.16.79.79,0,0,0,.29-.35,2.84,2.84,0,0,0,.16-1,1.69,1.69,0,0,0-.13-.78A.44.44,0,0,0,123,38Z"/><path d="M125.13,37.3a.33.33,0,0,1,.22-.09.29.29,0,0,1,.17,0,.3.3,0,0,1,.08.07,1,1,0,0,1,0,.12c0,.43,0,.82,0,1.17a6.93,6.93,0,0,0,.12,1.19c.09.44.18.66.28.66a1.12,1.12,0,0,0,.57-.24,1.84,1.84,0,0,0,.49-.53c-.07-.8-.1-1.48-.1-2a.44.44,0,0,1,.11-.3.37.37,0,0,1,.27-.12c.17,0,.26.11.26.35s0,1,.09,1.75a7.83,7.83,0,0,0,.18,1.48.66.66,0,0,1,0,.15c0,.06,0,.11-.11.17a.52.52,0,0,1-.29.07.23.23,0,0,1-.24-.19c0-.11,0-.28-.08-.5a1.67,1.67,0,0,1-1.17.6.71.71,0,0,1-.49-.2,1.34,1.34,0,0,1-.34-.57,4.16,4.16,0,0,1-.22-1.29c0-.41,0-.91.07-1.5A.49.49,0,0,1,125.13,37.3Z"/><path d="M130.88,40.75a.93.93,0,0,1-.76.35,1.18,1.18,0,0,1-.79-.28,2.27,2.27,0,0,1-.21-3,1.54,1.54,0,0,1,1.18-.53,1,1,0,0,1,1,.48,2.86,2.86,0,0,1,.22,1.28l0,.68c0,.32,0,.77.05,1.34s0,1,0,1.28a1.36,1.36,0,0,1-.36,1.05,1.51,1.51,0,0,1-1.07.34,2.18,2.18,0,0,1-.88-.19q-.45-.18-.45-.42a.38.38,0,0,1,.09-.27.33.33,0,0,1,.22-.09,1.94,1.94,0,0,1,.57.19,1.89,1.89,0,0,0,.62.18c.4,0,.6-.33.6-1S130.9,41,130.88,40.75Zm0-1.75a1.49,1.49,0,0,0-.18-.85.66.66,0,0,0-.56-.24.7.7,0,0,0-.62.35,1.57,1.57,0,0,0-.23.88,1.5,1.5,0,0,0,.22.85.78.78,0,0,0,.68.32.56.56,0,0,0,.59-.39A3.5,3.5,0,0,0,130.87,39Z"/><path d="M132.48,37.3a.33.33,0,0,1,.22-.09.29.29,0,0,1,.17,0,.3.3,0,0,1,.08.07,1,1,0,0,1,0,.12c0,.43,0,.82,0,1.17a6.93,6.93,0,0,0,.12,1.19c.09.44.18.66.28.66a1.12,1.12,0,0,0,.57-.24,1.84,1.84,0,0,0,.49-.53c-.07-.8-.1-1.48-.1-2a.44.44,0,0,1,.11-.3.37.37,0,0,1,.27-.12c.17,0,.26.11.26.35s0,1,.09,1.75a9.25,9.25,0,0,0,.17,1.48.34.34,0,0,1,0,.15c0,.06,0,.11-.11.17a.52.52,0,0,1-.29.07.23.23,0,0,1-.24-.19c0-.11,0-.28-.08-.5a1.67,1.67,0,0,1-1.17.6.71.71,0,0,1-.49-.2,1.34,1.34,0,0,1-.34-.57,4.16,4.16,0,0,1-.22-1.29c0-.41,0-.91.07-1.5A.49.49,0,0,1,132.48,37.3Z"/><path d="M136.33,37.49a1.24,1.24,0,0,1,.81-.29,2.47,2.47,0,0,1,.89.17c.28.11.42.25.42.44a.33.33,0,0,1-.29.3H138a2.39,2.39,0,0,1-.33-.15,1.16,1.16,0,0,0-.53-.15.69.69,0,0,0-.41.12.44.44,0,0,0,0,.71,2,2,0,0,0,.69.23,2.29,2.29,0,0,1,.75.27.72.72,0,0,1,.26.65,1.19,1.19,0,0,1-.36,1,1.35,1.35,0,0,1-.87.28,2.29,2.29,0,0,1-.88-.14q-.36-.13-.36-.42a.28.28,0,0,1,.32-.32,1.16,1.16,0,0,1,.37.11,1.41,1.41,0,0,0,.56.12.5.5,0,0,0,.42-.18.63.63,0,0,0,.15-.41.37.37,0,0,0-.19-.34,2.27,2.27,0,0,0-.58-.17,2.56,2.56,0,0,1-.58-.14.85.85,0,0,1-.5-.89A1,1,0,0,1,136.33,37.49Z"/><path d="M139.41,37.22H140V35.51a.31.31,0,0,1,.14-.24.47.47,0,0,1,.25-.1.23.23,0,0,1,.18.08.32.32,0,0,1,.07.23c0,.11,0,.68,0,1.73l1,0c.17,0,.25.09.25.29a.38.38,0,0,1-.13.32.54.54,0,0,1-.27.12h-.8c0,.22,0,.67.07,1.34s.09,1.1.11,1.3a1.05,1.05,0,0,1,0,.38.19.19,0,0,1-.09.12.6.6,0,0,1-.29.05c-.12,0-.19-.06-.22-.2a26.71,26.71,0,0,1-.22-3h-.57c-.34,0-.5-.09-.5-.29S139.1,37.22,139.41,37.22Z"/><path d="M144.78,41.1c-.15,0-.23-.08-.26-.24a20.5,20.5,0,0,0-.2-3,.44.44,0,0,1,.12-.3.39.39,0,0,1,.28-.13c.1,0,.17.06.22.18a1,1,0,0,1,.83-.41,1.12,1.12,0,0,1,1,.63,1.28,1.28,0,0,1,1.1-.6,1.13,1.13,0,0,1,1,.55,2.32,2.32,0,0,1,.31.9,10.41,10.41,0,0,1,.09,1.57,1.94,1.94,0,0,1-.08.62.33.33,0,0,1-.35.22c-.14,0-.22-.09-.22-.27l0-1c0-1.24-.32-1.87-1-1.87a.44.44,0,0,0-.43.22,1.31,1.31,0,0,0-.17.54q0,.49,0,.9v1.21A.26.26,0,0,1,147,41a.48.48,0,0,1-.27.09c-.12,0-.2-.08-.23-.24l0-1.72c0-.61-.1-1-.31-1.13a.71.71,0,0,0-.45-.11.5.5,0,0,0-.45.22,1.45,1.45,0,0,0-.14.72l0,1.55C145.17,40.87,145,41.1,144.78,41.1Z"/><path d="M152.44,37.22c.24,0,.36.2.36.62V38l0,.58v.54L152.9,41q0,.21-.42.21h-.12a.15.15,0,0,1-.14-.08.35.35,0,0,1,0-.18.34.34,0,0,0,0-.24,1.31,1.31,0,0,1-1,.4c-.78,0-1.17-.6-1.17-1.81a2.58,2.58,0,0,1,.38-1.52,1.26,1.26,0,0,1,1.08-.51,2,2,0,0,1,.67.12A.34.34,0,0,1,152.44,37.22Zm-.87.75a.84.84,0,0,0-.7.28,1.54,1.54,0,0,0-.24,1c0,.82.22,1.23.67,1.23a.64.64,0,0,0,.38-.16A.9.9,0,0,0,152,40a3.1,3.1,0,0,0,.16-1,1.83,1.83,0,0,0-.13-.78A.46.46,0,0,0,151.57,38Zm-.81-1.7a.62.62,0,0,1,.23-.48.85.85,0,0,1,.55-.2.6.6,0,0,1,.48.2.72.72,0,0,1,.17.51.66.66,0,0,1-.21.51.75.75,0,0,1-.51.19.63.63,0,0,1-.5-.22A.73.73,0,0,1,150.76,36.27Zm.76-.27a.29.29,0,0,0-.19.08.22.22,0,0,0-.08.18c0,.16.07.23.21.23s.27-.08.27-.24S151.66,36,151.52,36Z"/><path d="M153.86,40.84l-.1-3.37a.33.33,0,0,1,.11-.26.32.32,0,0,1,.22-.1c.18,0,.28.07.31.22a3.59,3.59,0,0,1,0,.47,1.34,1.34,0,0,1,1.12-.59c.69,0,1,.78,1,2.35v.65a3.21,3.21,0,0,1-.05.64.32.32,0,0,1-.36.24c-.13,0-.2-.08-.2-.26v-.47a9.24,9.24,0,0,0-.06-1.31,5.14,5.14,0,0,0-.12-.56c-.1-.3-.25-.45-.46-.45a.6.6,0,0,0-.58.3,1.94,1.94,0,0,0-.22.76c0,.52,0,1.06,0,1.64a.32.32,0,0,1-.13.26.44.44,0,0,1-.3.1C153.92,41.1,153.86,41,153.86,40.84Z"/><path d="M158.66,37.25a1.5,1.5,0,0,1,.83.26.73.73,0,0,1,.4.63,1.09,1.09,0,0,1-.32.73,1.39,1.39,0,0,1-.86.43,6,6,0,0,1-.7,0,1.51,1.51,0,0,0,.35.93.28.28,0,0,0,.23.1,1.2,1.2,0,0,0,.86-.33c.24-.22.4-.33.5-.33s.11,0,.2.12a.34.34,0,0,1,.13.24c0,.14-.17.35-.52.62a2,2,0,0,1-.56.32,1.6,1.6,0,0,1-.61.13c-.48,0-.84-.31-1.06-.93a3.4,3.4,0,0,1-.22-1.26,2.18,2.18,0,0,1,.32-1.19A1.15,1.15,0,0,1,158.66,37.25Zm0,.57a.64.64,0,0,0-.54.36,1.58,1.58,0,0,0-.16.56c.77,0,1.16-.19,1.16-.57S159,37.82,158.7,37.82Z"/><path d="M162.92,37.21v-1.6c0-.3.09-.45.28-.45s.3.08.32.25,0,.5.05,1.3,0,1.55.07,2.24.06,1.35.06,1.95c0,.17-.13.25-.38.25s-.24-.11-.24-.35a1.33,1.33,0,0,1-.85.29,1.25,1.25,0,0,1-1-.47,1.71,1.71,0,0,1-.39-1.14,3.07,3.07,0,0,1,.28-1.28,1.68,1.68,0,0,1,.87-.85,1.7,1.7,0,0,1,.71-.16Zm0,1.13a.84.84,0,0,0-.14-.27.38.38,0,0,0-.18-.12l-.23,0a.65.65,0,0,0-.32.1.92.92,0,0,0-.33.32,1.81,1.81,0,0,0-.26.95,1.48,1.48,0,0,0,.19.8.62.62,0,0,0,.56.31.63.63,0,0,0,.57-.35,1.93,1.93,0,0,0,.2-.92A3.25,3.25,0,0,0,163,38.34Z"/><path d="M166.33,36.36a.46.46,0,0,0-.21-.36.72.72,0,0,0-.43-.15.9.9,0,0,0-.4.09.66.66,0,0,0-.26.23q-.24.33-.36.33c-.24,0-.36-.11-.36-.35s.15-.42.44-.64a1.53,1.53,0,0,1,.92-.33,1.25,1.25,0,0,1,1.08.56,1,1,0,0,1,.22.62,1.58,1.58,0,0,1-.45,1.06c-.13.14-.25.28-.38.4-.3.31-.46.51-.46.61a.61.61,0,0,0,.12.33.73.73,0,0,1,.11.25.56.56,0,0,1,0,.15.34.34,0,0,1-.29.15.53.53,0,0,1-.38-.25.9.9,0,0,1-.19-.56,1.41,1.41,0,0,1,.41-1,2.88,2.88,0,0,1,.35-.35C166.15,36.82,166.33,36.55,166.33,36.36Zm-1.12,4a.45.45,0,0,1,.11-.27.41.41,0,0,1,.31-.12.44.44,0,0,1,.29.07.43.43,0,0,1,.09.33c0,.29-.14.44-.4.44a.38.38,0,0,1-.28-.15A.48.48,0,0,1,165.21,40.39Z"/><path d="M28.45,55.74a.61.61,0,0,1,.3-.08c.11,0,.18.06.21.19q0,1,0,2.88c0,.78,0,1.45-.07,2a.32.32,0,0,1-.15.22.5.5,0,0,1-.28.1c-.15,0-.23-.09-.23-.25,0-.55.08-1.24.08-2.06l-.05-2.79A.42.42,0,0,1,28.45,55.74Z"/><path d="M35.1,60.65c0,.26-.12.39-.35.39s-.24-.24-.41-.73a2.66,2.66,0,0,0-.69-1.13l-.35.32-.37.33v.83a1.49,1.49,0,0,1,0,.19.29.29,0,0,1-.12.13.39.39,0,0,1-.23.06c-.15,0-.23-.1-.23-.28q0-.76-.06-2.4c0-1.08-.07-2-.07-2.91a.27.27,0,0,1,.13-.24.39.39,0,0,1,.27-.1c.12,0,.2.08.23.24v1.47c0,.18,0,.31,0,.4s0,.22,0,.4c0,.37,0,.78,0,1.24a4.9,4.9,0,0,0,.62-.58,5.52,5.52,0,0,0,.57-.68c.2-.31.38-.47.55-.47a.22.22,0,0,1,.13,0,.27.27,0,0,1,.18.23.8.8,0,0,1-.12.35,5.34,5.34,0,0,1-.69.93,5.34,5.34,0,0,1,.75,1.19A2.07,2.07,0,0,1,35.1,60.65Z"/><path d="M38.07,57.15c.24,0,.36.21.36.62v.72c0,.19,0,.37,0,.54l.12,1.88q0,.21-.42.21H38a.13.13,0,0,1-.13-.08.22.22,0,0,1,0-.18.41.41,0,0,0,0-.24,1.36,1.36,0,0,1-1,.41c-.78,0-1.17-.61-1.17-1.81A2.56,2.56,0,0,1,36,57.7a1.24,1.24,0,0,1,1.08-.52,2,2,0,0,1,.67.12A.34.34,0,0,1,38.07,57.15Zm-.87.75a.87.87,0,0,0-.7.28,1.55,1.55,0,0,0-.24,1c0,.82.23,1.23.67,1.23a.62.62,0,0,0,.38-.16.82.82,0,0,0,.3-.35,2.84,2.84,0,0,0,.16-1,1.71,1.71,0,0,0-.13-.78A.46.46,0,0,0,37.2,57.9Z"/><path d="M39.49,60.77,39.4,57.4a.34.34,0,0,1,.1-.26.33.33,0,0,1,.22-.1c.18,0,.28.07.31.22a3.59,3.59,0,0,1,0,.47,1.36,1.36,0,0,1,1.12-.59c.69,0,1,.78,1,2.35v.65a3.21,3.21,0,0,1-.05.64.33.33,0,0,1-.36.25c-.13,0-.19-.09-.19-.27V60.3A9.42,9.42,0,0,0,41.55,59a5.14,5.14,0,0,0-.12-.56c-.09-.3-.25-.45-.46-.45a.61.61,0,0,0-.58.3,1.82,1.82,0,0,0-.21.76c0,.52-.06,1.06-.06,1.64a.29.29,0,0,1-.13.26.44.44,0,0,1-.3.11C39.56,61,39.49,61,39.49,60.77Z"/><path d="M45.66,57.42a1.24,1.24,0,0,1,.81-.29,2.38,2.38,0,0,1,.88.17c.29.11.43.25.43.44a.27.27,0,0,1-.11.22.32.32,0,0,1-.19.09h-.12a1.7,1.7,0,0,1-.34-.15,1.12,1.12,0,0,0-.52-.15.69.69,0,0,0-.41.12.39.39,0,0,0-.17.35.42.42,0,0,0,.19.37,1.91,1.91,0,0,0,.69.22,2.48,2.48,0,0,1,.75.27.75.75,0,0,1,.26.65,1.19,1.19,0,0,1-.36,1,1.36,1.36,0,0,1-.88.28,2.27,2.27,0,0,1-.87-.14c-.24-.09-.37-.23-.37-.42s.11-.32.33-.32a1.5,1.5,0,0,1,.36.11,1.45,1.45,0,0,0,.56.12.52.52,0,0,0,.43-.18.62.62,0,0,0,.14-.41A.35.35,0,0,0,47,59.4a2,2,0,0,0-.58-.17,2.6,2.6,0,0,1-.57-.14.85.85,0,0,1-.5-.89A1,1,0,0,1,45.66,57.42Z"/><path d="M48.74,57.15h.57v-1.7a.3.3,0,0,1,.14-.24.45.45,0,0,1,.25-.11.26.26,0,0,1,.19.08.28.28,0,0,1,.06.23c0,.11,0,.68,0,1.73l1,0c.16,0,.24.09.24.29a.41.41,0,0,1-.12.32.53.53,0,0,1-.28.12H50c0,.22,0,.67.07,1.34s.08,1.11.11,1.3a1.05,1.05,0,0,1,0,.38.19.19,0,0,1-.09.12.62.62,0,0,1-.29.06.21.21,0,0,1-.22-.2,24.84,24.84,0,0,1-.22-3h-.58c-.33,0-.5-.09-.5-.29S48.43,57.15,48.74,57.15Z"/><path d="M52.1,55.78a.42.42,0,0,1,.29.14.45.45,0,0,1,.13.29.47.47,0,0,1-.15.32.41.41,0,0,1-.3.15.39.39,0,0,1-.29-.13.49.49,0,0,1-.13-.34c0-.27.15-.41.44-.43Zm.35,4.35v.58a.32.32,0,0,1-.12.26.45.45,0,0,1-.27.11.2.2,0,0,1-.22-.21c-.07-1.77-.1-2.74-.1-2.93s0-.42,0-.69c0-.1.08-.15.19-.15.29,0,.46.12.5.36a1.62,1.62,0,0,1,0,.29l0,.52Z"/><path d="M56.6,59.79c.19,0,.29.16.29.49a.75.75,0,0,1-.29.53.93.93,0,0,1-.63.26.78.78,0,0,1-.74-.52,1,1,0,0,1-.35.36.83.83,0,0,1-.47.16A.76.76,0,0,1,54,61a.73.73,0,0,1-.27-.28,2.39,2.39,0,0,1-.17-.37,3.24,3.24,0,0,1-.1-.44c0-.28,0-.72-.06-1.33s0-1.2,0-1.75,0-.94,0-1.15a.92.92,0,0,1,.1-.41.32.32,0,0,1,.25-.09c.24,0,.36.09.36.29s0,.54,0,1.17,0,1.19,0,1.69a9.79,9.79,0,0,0,.06,1.21c.06.53.16.79.28.79s.21-.08.28-.25a.36.36,0,0,1,.12-.18.38.38,0,0,1,.24-.08h0C55,59.3,55,58.54,55,57.51s0-1.65,0-1.86a.8.8,0,0,1,.1-.41.3.3,0,0,1,.24-.09c.25,0,.37.09.37.29s0,.54,0,1.17,0,1.19,0,1.69,0,.9.05,1.21c.07.53.16.79.29.79s.21-.08.28-.25a.36.36,0,0,1,.12-.18A.36.36,0,0,1,56.6,59.79Z"/><path d="M58.52,57.18a1.54,1.54,0,0,1,.84.26.73.73,0,0,1,.4.63,1.07,1.07,0,0,1-.32.73,1.39,1.39,0,0,1-.87.43,4.08,4.08,0,0,1-.7,0,1.51,1.51,0,0,0,.36.93.3.3,0,0,0,.23.09,1.2,1.2,0,0,0,.86-.33c.23-.22.4-.33.5-.33s.11,0,.2.13a.32.32,0,0,1,.13.23c0,.14-.17.35-.52.62a2.34,2.34,0,0,1-.56.32,1.63,1.63,0,0,1-.61.13c-.49,0-.84-.31-1.07-.93a3.62,3.62,0,0,1-.21-1.26,2.1,2.1,0,0,1,.32-1.19A1.14,1.14,0,0,1,58.52,57.18Zm0,.57a.64.64,0,0,0-.54.36,1.93,1.93,0,0,0-.15.57c.77,0,1.16-.19,1.16-.58C59,57.87,58.87,57.75,58.56,57.75Z"/><path d="M64.07,57.18a1.56,1.56,0,0,1,.84.26.75.75,0,0,1,.4.63,1,1,0,0,1-.33.73,1.34,1.34,0,0,1-.86.43,4.16,4.16,0,0,1-.7,0,1.45,1.45,0,0,0,.36.93.28.28,0,0,0,.22.09,1.22,1.22,0,0,0,.87-.33c.23-.22.4-.33.49-.33a.32.32,0,0,1,.2.13.34.34,0,0,1,.14.23c0,.14-.18.35-.53.62a2,2,0,0,1-.56.32,1.56,1.56,0,0,1-.61.13c-.48,0-.83-.31-1.06-.93a3.62,3.62,0,0,1-.22-1.26,2.1,2.1,0,0,1,.33-1.19A1.13,1.13,0,0,1,64.07,57.18Zm0,.57a.64.64,0,0,0-.54.36,1.84,1.84,0,0,0-.16.57c.78,0,1.17-.19,1.17-.58C64.58,57.87,64.42,57.75,64.11,57.75Z"/><path d="M66.55,57.15h.58v-1.7a.28.28,0,0,1,.14-.24.42.42,0,0,1,.25-.11.23.23,0,0,1,.18.08.32.32,0,0,1,.07.23c0,.11,0,.68,0,1.73l1,0c.17,0,.25.09.25.29a.38.38,0,0,1-.13.32.54.54,0,0,1-.27.12h-.8c0,.22,0,.67.07,1.34s.09,1.11.11,1.3a1.05,1.05,0,0,1,0,.38.19.19,0,0,1-.09.12.6.6,0,0,1-.29.06c-.12,0-.19-.07-.22-.2a27.11,27.11,0,0,1-.22-3h-.57c-.34,0-.5-.09-.5-.29S66.24,57.15,66.55,57.15Z"/><path d="M71.46,55.41q0-.33.42-.33c.12,0,.2.08.22.23v1.25c0,.23,0,.46,0,.7a1.27,1.27,0,0,1,.42,0,1.53,1.53,0,0,1,1.25.54,2.09,2.09,0,0,1,.44,1.35,2,2,0,0,1-.52,1.37,1.72,1.72,0,0,1-1.33.57c-.55,0-.82-.16-.82-.47s0-1.08,0-2.34S71.46,56,71.46,55.41Zm1.68,2.68a1,1,0,0,0-.63-.24,1.33,1.33,0,0,0-.38.07c0,.45.05,1.26.05,2.42a1,1,0,0,0,.29,0,1.07,1.07,0,0,0,.65-.24,1.15,1.15,0,0,0,.48-1A1.21,1.21,0,0,0,73.14,58.09Z"/><path d="M76.15,57.83a.63.63,0,0,0-.34.1,1,1,0,0,0-.27.19.74.74,0,0,1-.22.14.17.17,0,0,1-.2,0A.27.27,0,0,1,75,58c0-.24.19-.46.57-.67a1.27,1.27,0,0,1,.52-.12,3,3,0,0,1,.45,0,1.21,1.21,0,0,1,.73.34,1.19,1.19,0,0,1,1-.38,1.16,1.16,0,0,1,.73.24.75.75,0,0,1,.31.61,1.42,1.42,0,0,1-.26.89,1,1,0,0,1-.85.37,5.58,5.58,0,0,1-.64-.05,1.32,1.32,0,0,0,.35.88.28.28,0,0,0,.22.09,1.16,1.16,0,0,0,.83-.3c.23-.23.4-.34.5-.34s.11,0,.2.12a.32.32,0,0,1,.13.23c0,.14-.17.34-.51.61a1.8,1.8,0,0,1-1.07.47,1,1,0,0,1-.82-.44,2.22,2.22,0,0,1-.39.28,1.31,1.31,0,0,1-.66.18,1.58,1.58,0,0,1-.65-.14,1.26,1.26,0,0,1-.52-.43,1.13,1.13,0,0,1-.21-.69,1.19,1.19,0,0,1,.47-1,1.39,1.39,0,0,1,.83-.26l.34,0,.28,0a1,1,0,0,0-.13-.62C76.65,57.88,76.46,57.83,76.15,57.83Zm.43,1.31a1.34,1.34,0,0,0-.4-.07.61.61,0,0,0-.41.18.64.64,0,0,0-.19.46.63.63,0,0,0,.32.57,1,1,0,0,0,.49.12,1,1,0,0,0,.73-.28,3,3,0,0,1-.2-.86Zm1.34-.39q.75,0,.75-.66c0-.23-.15-.34-.46-.34a.61.61,0,0,0-.53.34.86.86,0,0,0-.1.36q0,.24,0,.27Z"/><path d="M83.25,60.69a1,1,0,0,1-.76.35,1.18,1.18,0,0,1-.79-.29A2,2,0,0,1,81,59.1a2,2,0,0,1,.48-1.4,1.57,1.57,0,0,1,1.19-.53,1,1,0,0,1,1,.48,2.86,2.86,0,0,1,.22,1.28l0,.68c0,.33,0,.77,0,1.34s0,1,0,1.28a1.36,1.36,0,0,1-.36,1.05,1.46,1.46,0,0,1-1.07.34,2.18,2.18,0,0,1-.88-.19q-.45-.18-.45-.42a.34.34,0,0,1,.09-.26.3.3,0,0,1,.22-.1,2.17,2.17,0,0,1,.56.19,1.93,1.93,0,0,0,.63.18c.4,0,.6-.33.6-1S83.27,60.93,83.25,60.69Zm0-1.76a1.51,1.51,0,0,0-.18-.85.66.66,0,0,0-.56-.24.7.7,0,0,0-.62.35,1.57,1.57,0,0,0-.23.88,1.43,1.43,0,0,0,.22.85.78.78,0,0,0,.68.32.56.56,0,0,0,.59-.39A3.5,3.5,0,0,0,83.24,58.93Z"/><path d="M85.92,57.18a1.56,1.56,0,0,1,.84.26.75.75,0,0,1,.4.63,1,1,0,0,1-.33.73,1.34,1.34,0,0,1-.86.43,4.16,4.16,0,0,1-.7,0,1.45,1.45,0,0,0,.36.93.29.29,0,0,0,.22.09,1.22,1.22,0,0,0,.87-.33c.23-.22.4-.33.5-.33s.11,0,.2.13a.37.37,0,0,1,.13.23c0,.14-.18.35-.53.62a2,2,0,0,1-.56.32,1.56,1.56,0,0,1-.61.13c-.48,0-.83-.31-1.06-.93a3.62,3.62,0,0,1-.22-1.26,2.1,2.1,0,0,1,.33-1.19A1.13,1.13,0,0,1,85.92,57.18Zm0,.57a.64.64,0,0,0-.54.36,1.84,1.84,0,0,0-.16.57c.78,0,1.17-.19,1.17-.58C86.43,57.87,86.27,57.75,86,57.75Z"/><path d="M89.27,59.81v.86a.36.36,0,0,1-.14.27.38.38,0,0,1-.27.13q-.2,0-.24-.3c0-.05,0-.45-.07-1.22a9.86,9.86,0,0,0-.22-1.8,3.2,3.2,0,0,1-.08-.38q0-.27.33-.27a.26.26,0,0,1,.23.11.49.49,0,0,1,.1.22,1.68,1.68,0,0,1,0,.3c0,.13,0,.21,0,.24a1.3,1.3,0,0,1,.53-.62,1.45,1.45,0,0,1,.76-.21c.46,0,.68.12.68.35a.36.36,0,0,1-.12.28.4.4,0,0,1-.28.1,1.08,1.08,0,0,0-1,.45A2.81,2.81,0,0,0,89.27,59.81Z"/><path d="M93.76,57.24a.32.32,0,0,1,.22-.1.27.27,0,0,1,.17,0s.07,0,.08.08a.53.53,0,0,1,0,.11c0,.43-.05.82-.05,1.17a6.84,6.84,0,0,0,.12,1.19c.09.44.18.67.28.67a1.12,1.12,0,0,0,.57-.25,1.6,1.6,0,0,0,.49-.53c-.07-.79-.1-1.48-.1-2a.48.48,0,0,1,.11-.3.37.37,0,0,1,.27-.12c.17,0,.26.11.26.35s0,1,.09,1.75a8.83,8.83,0,0,0,.18,1.48.66.66,0,0,1,0,.15c0,.06,0,.11-.11.17a.5.5,0,0,1-.29.08.24.24,0,0,1-.24-.2c0-.11,0-.28-.08-.5A1.69,1.69,0,0,1,94.6,61a.68.68,0,0,1-.49-.21,1.34,1.34,0,0,1-.34-.57A4.16,4.16,0,0,1,93.55,59c0-.41,0-.91.07-1.5A.43.43,0,0,1,93.76,57.24Z"/><path d="M99.11,57.14v-1.6c0-.3.1-.45.29-.45a.28.28,0,0,1,.32.25c0,.07,0,.5,0,1.3s0,1.55.08,2.24,0,1.35,0,2c0,.16-.12.25-.37.25s-.25-.12-.25-.35a1.38,1.38,0,0,1-.85.28,1.27,1.27,0,0,1-1-.47A1.71,1.71,0,0,1,97,59.41a3.06,3.06,0,0,1,.27-1.28,1.72,1.72,0,0,1,.87-.85,1.91,1.91,0,0,1,.71-.16Zm0,1.13A.84.84,0,0,0,99,58a.47.47,0,0,0-.18-.12l-.23,0a.82.82,0,0,0-.32.1.87.87,0,0,0-.33.33,1.88,1.88,0,0,0-.26.94,1.46,1.46,0,0,0,.19.8.63.63,0,0,0,.56.32A.64.64,0,0,0,99,60a1.79,1.79,0,0,0,.21-.92A2.68,2.68,0,0,0,99.15,58.27Z"/><path d="M104.07,57.16a1.16,1.16,0,0,1,1,.57,2.57,2.57,0,0,1,0,2.74,1.21,1.21,0,0,1-1,.57,1.25,1.25,0,0,1-1-.58,2.25,2.25,0,0,1-.39-1.28,2.57,2.57,0,0,1,.36-1.45A1.31,1.31,0,0,1,104.07,57.16Zm-.09.68a.66.66,0,0,0-.58.36,1.46,1.46,0,0,0-.22.77,1.56,1.56,0,0,0,.25,1,.69.69,0,0,0,.56.33.67.67,0,0,0,.72-.49,1.92,1.92,0,0,0,.07-.58C104.78,58.29,104.51,57.84,104,57.84Z"/><path d="M108.5,60.69a1,1,0,0,1-.75.35,1.17,1.17,0,0,1-.79-.29,1.94,1.94,0,0,1-.7-1.65,2,2,0,0,1,.48-1.4,1.56,1.56,0,0,1,1.19-.53,1,1,0,0,1,1,.48,2.84,2.84,0,0,1,.23,1.28l0,.68c0,.33,0,.77.05,1.34s0,1,0,1.28a1.4,1.4,0,0,1-.35,1.05,1.51,1.51,0,0,1-1.08.34,2.18,2.18,0,0,1-.88-.19q-.45-.18-.45-.42a.35.35,0,0,1,.1-.26.28.28,0,0,1,.22-.1,2.31,2.31,0,0,1,.56.19,1.93,1.93,0,0,0,.63.18c.4,0,.59-.33.59-1S108.52,60.93,108.5,60.69Zm0-1.76a1.51,1.51,0,0,0-.18-.85.63.63,0,0,0-.56-.24.69.69,0,0,0-.61.35,1.5,1.5,0,0,0-.23.88,1.43,1.43,0,0,0,.22.85.76.76,0,0,0,.67.32.55.55,0,0,0,.59-.39A3.12,3.12,0,0,0,108.49,58.93Z"/><path d="M112.53,61c-.15,0-.23-.09-.26-.25a20.6,20.6,0,0,0-.2-3,.4.4,0,0,1,.12-.29.37.37,0,0,1,.28-.14.23.23,0,0,1,.22.18,1,1,0,0,1,.83-.41,1.12,1.12,0,0,1,1,.63,1.28,1.28,0,0,1,1.1-.6,1.15,1.15,0,0,1,1,.55,2.32,2.32,0,0,1,.31.9,10.46,10.46,0,0,1,.09,1.58,1.66,1.66,0,0,1-.08.61.34.34,0,0,1-.35.23c-.14,0-.21-.1-.21-.28l0-1c0-1.24-.32-1.87-1-1.87a.46.46,0,0,0-.43.22,1.31,1.31,0,0,0-.17.54q0,.49,0,.9v1.21a.26.26,0,0,1-.14.22.47.47,0,0,1-.27.1c-.12,0-.2-.09-.23-.25l0-1.72c0-.6-.1-1-.3-1.13a.8.8,0,0,0-.46-.11.5.5,0,0,0-.45.22,1.46,1.46,0,0,0-.14.73l0,1.54Q112.92,61,112.53,61Z"/><path d="M120.19,57.15c.24,0,.36.21.36.62v.14l0,.58V59l.12,1.88q0,.21-.42.21h-.12A.15.15,0,0,1,120,61a.28.28,0,0,1,0-.18.42.42,0,0,0,0-.24,1.32,1.32,0,0,1-1,.41c-.78,0-1.17-.61-1.17-1.81a2.56,2.56,0,0,1,.38-1.52,1.24,1.24,0,0,1,1.08-.52,2,2,0,0,1,.67.12A.34.34,0,0,1,120.19,57.15Zm-.87.75a.87.87,0,0,0-.7.28,1.55,1.55,0,0,0-.24,1c0,.82.23,1.23.67,1.23a.64.64,0,0,0,.38-.16.82.82,0,0,0,.3-.35,3.1,3.1,0,0,0,.16-1,1.86,1.86,0,0,0-.13-.78A.46.46,0,0,0,119.32,57.9Zm-.81-1.7a.62.62,0,0,1,.23-.48.87.87,0,0,1,.55-.2.6.6,0,0,1,.48.2.72.72,0,0,1,.17.51.66.66,0,0,1-.21.51.74.74,0,0,1-.51.19.63.63,0,0,1-.5-.22A.73.73,0,0,1,118.51,56.2Zm.76-.26a.28.28,0,0,0-.19.07.25.25,0,0,0-.08.18q0,.24.21.24c.18,0,.27-.09.27-.25S119.41,55.94,119.27,55.94Z"/><path d="M121.27,55.65a.8.8,0,0,1,.1-.41.32.32,0,0,1,.25-.09c.24,0,.36.09.36.29s0,.54,0,1.17,0,1.19,0,1.69a9.79,9.79,0,0,0,.06,1.21c.07.53.16.79.29.79s.21-.08.27-.25a.46.46,0,0,1,.13-.18.36.36,0,0,1,.24-.08c.19,0,.29.16.29.49a.75.75,0,0,1-.29.53.87.87,0,0,1-.57.26.83.83,0,0,1-.45-.1.69.69,0,0,1-.28-.28,2.3,2.3,0,0,1-.16-.37,2.26,2.26,0,0,1-.09-.44c0-.28-.06-.72-.07-1.33s0-1.2,0-1.75S121.26,55.86,121.27,55.65Z"/><path d="M124.86,57.18a1.51,1.51,0,0,1,.84.26.73.73,0,0,1,.4.63,1.07,1.07,0,0,1-.32.73,1.39,1.39,0,0,1-.87.43,4.08,4.08,0,0,1-.7,0,1.57,1.57,0,0,0,.36.93.3.3,0,0,0,.23.09,1.2,1.2,0,0,0,.86-.33c.23-.22.4-.33.5-.33s.11,0,.2.13a.32.32,0,0,1,.13.23c0,.14-.17.35-.52.62a2.16,2.16,0,0,1-.56.32,1.63,1.63,0,0,1-.61.13c-.49,0-.84-.31-1.07-.93a3.62,3.62,0,0,1-.21-1.26,2.18,2.18,0,0,1,.32-1.19A1.14,1.14,0,0,1,124.86,57.18Zm0,.57a.64.64,0,0,0-.54.36,1.93,1.93,0,0,0-.15.57c.77,0,1.16-.19,1.16-.58C125.37,57.87,125.21,57.75,124.9,57.75Z"/><path d="M130.1,58.34l.07,2a1.52,1.52,0,0,1,0,.42.38.38,0,0,1-.1.23.38.38,0,0,1-.3.09c-.07,0-.13,0-.18-.14a.78.78,0,0,1-.07-.31c0-1-.09-1.89-.16-2.75s-.09-1.65-.09-2.39a.34.34,0,0,1,.12-.27.36.36,0,0,1,.27-.1c.15,0,.25.13.28.4s.05.6.06,1,0,.69,0,.87a1.69,1.69,0,0,1,.83-.22,1.15,1.15,0,0,1,1.22.85,4.23,4.23,0,0,1,.15,1.24c0,.16,0,.42,0,.78s-.05.59-.05.69a.31.31,0,0,1-.14.25.49.49,0,0,1-.28.09c-.15,0-.23-.09-.23-.25l.06-1.45c0-.12,0-.32,0-.6a1.41,1.41,0,0,0-.17-.68.59.59,0,0,0-.54-.25C130.33,57.8,130.1,58,130.1,58.34Z"/><path d="M135.55,57.11a.19.19,0,0,1,.18.08.34.34,0,0,1,.05.17v.08c-.24.59-.41,1.07-.52,1.44s-.13.46-.16.59-.1.35-.18.67-.14.53-.17.62a.4.4,0,0,1-.4.28c-.1,0-.16-.06-.2-.18a15.23,15.23,0,0,0-.78-1.88c-.35-.69-.54-1.09-.59-1.2a.6.6,0,0,1-.07-.27.38.38,0,0,1,.11-.25.38.38,0,0,1,.26-.11.3.3,0,0,1,.24.15l.52,1q.42.84.6,1.32a.88.88,0,0,1,.06-.21,19.68,19.68,0,0,1,.69-2.1A.4.4,0,0,1,135.55,57.11Z"/><path d="M137.83,57.16a1.15,1.15,0,0,1,1,.57,2.37,2.37,0,0,1,.39,1.37,2.29,2.29,0,0,1-.4,1.37,1.21,1.21,0,0,1-1,.57,1.22,1.22,0,0,1-1-.58,2.18,2.18,0,0,1-.4-1.28,2.57,2.57,0,0,1,.36-1.45A1.32,1.32,0,0,1,137.83,57.16Zm-.1.68a.66.66,0,0,0-.58.36,1.46,1.46,0,0,0-.22.77,1.56,1.56,0,0,0,.25,1,.71.71,0,0,0,.56.33.69.69,0,0,0,.73-.49,2.35,2.35,0,0,0,.06-.58C138.53,58.29,138.26,57.84,137.73,57.84Z"/><path d="M140.94,59.81v.86a.36.36,0,0,1-.14.27.38.38,0,0,1-.27.13c-.12,0-.21-.1-.24-.3s0-.45-.07-1.22a9,9,0,0,0-.22-1.8,2.4,2.4,0,0,1-.07-.38q0-.27.33-.27a.24.24,0,0,1,.22.11.51.51,0,0,1,.11.22q0,.1,0,.3c0,.13,0,.21,0,.24a1.23,1.23,0,0,1,.52-.62,1.46,1.46,0,0,1,.77-.21c.45,0,.68.12.68.35a.36.36,0,0,1-.12.28.42.42,0,0,1-.28.1,1.11,1.11,0,0,0-1,.45A2.91,2.91,0,0,0,140.94,59.81Z"/><path d="M145.78,61c-.14,0-.23-.09-.26-.25a20.7,20.7,0,0,0-.19-3,.4.4,0,0,1,.12-.29.36.36,0,0,1,.27-.14.25.25,0,0,1,.23.18,1,1,0,0,1,.82-.41,1.1,1.1,0,0,1,1,.63,1.29,1.29,0,0,1,1.1-.6,1.15,1.15,0,0,1,1,.55,2.49,2.49,0,0,1,.32.9,10.46,10.46,0,0,1,.09,1.58,1.63,1.63,0,0,1-.09.61.33.33,0,0,1-.34.23c-.15,0-.22-.1-.22-.28l0-1c0-1.24-.32-1.87-1-1.87a.47.47,0,0,0-.43.22,1.48,1.48,0,0,0-.17.54q0,.49,0,.9v1.21a.25.25,0,0,1-.13.22.5.5,0,0,1-.28.1c-.12,0-.2-.09-.23-.25l0-1.72c0-.6-.11-1-.31-1.13a.78.78,0,0,0-.45-.11.5.5,0,0,0-.45.22,1.35,1.35,0,0,0-.15.73l0,1.54Q146.17,61,145.78,61Z"/><path d="M152.32,57.18a1.56,1.56,0,0,1,.84.26.75.75,0,0,1,.4.63,1,1,0,0,1-.33.73,1.34,1.34,0,0,1-.86.43,4.16,4.16,0,0,1-.7,0,1.45,1.45,0,0,0,.36.93.28.28,0,0,0,.22.09,1.22,1.22,0,0,0,.87-.33c.23-.22.39-.33.49-.33a.32.32,0,0,1,.2.13A.34.34,0,0,1,154,60c0,.14-.18.35-.53.62a2,2,0,0,1-.56.32,1.6,1.6,0,0,1-.61.13c-.48,0-.83-.31-1.06-.93a3.62,3.62,0,0,1-.22-1.26,2.1,2.1,0,0,1,.33-1.19A1.12,1.12,0,0,1,152.32,57.18Zm0,.57a.64.64,0,0,0-.54.36,1.84,1.84,0,0,0-.16.57c.78,0,1.17-.19,1.17-.58C152.83,57.87,152.67,57.75,152.36,57.75Z"/><path d="M157,60.69a1,1,0,0,1-.76.35,1.18,1.18,0,0,1-.79-.29,2,2,0,0,1-.69-1.65,2,2,0,0,1,.48-1.4,1.54,1.54,0,0,1,1.18-.53,1,1,0,0,1,1,.48,2.86,2.86,0,0,1,.22,1.28v.68c0,.33,0,.77,0,1.34s0,1,0,1.28a1.36,1.36,0,0,1-.36,1.05,1.46,1.46,0,0,1-1.07.34,2.18,2.18,0,0,1-.88-.19q-.45-.18-.45-.42a.31.31,0,0,1,.1-.26.27.27,0,0,1,.22-.1,2.31,2.31,0,0,1,.56.19,2,2,0,0,0,.62.18c.4,0,.6-.33.6-1S157,60.93,157,60.69Zm0-1.76a1.51,1.51,0,0,0-.18-.85.66.66,0,0,0-.56-.24.69.69,0,0,0-.61.35,1.74,1.74,0,0,0,0,1.73.79.79,0,0,0,.68.32.56.56,0,0,0,.59-.39A3.12,3.12,0,0,0,157,58.93Z"/><path d="M159.65,57.18a1.54,1.54,0,0,1,.84.26.73.73,0,0,1,.4.63,1,1,0,0,1-.33.73,1.34,1.34,0,0,1-.86.43,4.08,4.08,0,0,1-.7,0,1.45,1.45,0,0,0,.36.93.3.3,0,0,0,.23.09,1.2,1.2,0,0,0,.86-.33c.23-.22.4-.33.5-.33s.11,0,.2.13a.37.37,0,0,1,.13.23c0,.14-.17.35-.52.62a2.34,2.34,0,0,1-.56.32,1.63,1.63,0,0,1-.61.13c-.49,0-.84-.31-1.07-.93a3.62,3.62,0,0,1-.21-1.26,2.1,2.1,0,0,1,.32-1.19A1.14,1.14,0,0,1,159.65,57.18Zm0,.57a.64.64,0,0,0-.54.36,1.93,1.93,0,0,0-.15.57c.77,0,1.16-.19,1.16-.58C160.16,57.87,160,57.75,159.69,57.75Z"/><path d="M162.14,57.15h.57v-1.7a.28.28,0,0,1,.14-.24.42.42,0,0,1,.25-.11.26.26,0,0,1,.19.08.37.37,0,0,1,.06.23c0,.11,0,.68,0,1.73l1,0c.17,0,.25.09.25.29a.38.38,0,0,1-.13.32.5.5,0,0,1-.27.12h-.8c0,.22,0,.67.08,1.34s.08,1.11.11,1.3a1.23,1.23,0,0,1,0,.38.14.14,0,0,1-.09.12.6.6,0,0,1-.29.06.2.2,0,0,1-.21-.2,26.7,26.7,0,0,1-.23-3h-.57c-.33,0-.5-.09-.5-.29S161.82,57.15,162.14,57.15Z"/><path d="M29.93,67.11V65.5c0-.3.1-.45.29-.45a.29.29,0,0,1,.32.25c0,.08,0,.51,0,1.31s0,1.54.08,2.24.05,1.35.05,2c0,.17-.12.25-.37.25s-.25-.12-.25-.35a1.32,1.32,0,0,1-.85.28,1.26,1.26,0,0,1-1-.46,1.72,1.72,0,0,1-.38-1.15,3,3,0,0,1,.27-1.27,1.68,1.68,0,0,1,.87-.85,1.73,1.73,0,0,1,.71-.16A1,1,0,0,1,29.93,67.11Zm0,1.13a.84.84,0,0,0-.14-.27.32.32,0,0,0-.18-.12l-.23,0a.68.68,0,0,0-.32.1.78.78,0,0,0-.33.32,1.91,1.91,0,0,0-.26.94,1.52,1.52,0,0,0,.19.81.62.62,0,0,0,.56.31.64.64,0,0,0,.57-.36A1.75,1.75,0,0,0,30,69,2.68,2.68,0,0,0,30,68.24Z"/><path d="M32.55,67.15a1.49,1.49,0,0,1,.83.25.76.76,0,0,1,.4.64,1.09,1.09,0,0,1-.32.73,1.39,1.39,0,0,1-.86.43,6,6,0,0,1-.7,0,1.51,1.51,0,0,0,.35.93.3.3,0,0,0,.23.09,1.24,1.24,0,0,0,.86-.32c.23-.22.4-.33.5-.33s.11,0,.2.12a.32.32,0,0,1,.13.23c0,.15-.17.36-.52.63a2.49,2.49,0,0,1-.56.32,1.81,1.81,0,0,1-.61.13c-.48,0-.84-.31-1.06-.93a3.49,3.49,0,0,1-.22-1.27,2.15,2.15,0,0,1,.32-1.18A1.13,1.13,0,0,1,32.55,67.15Zm0,.57a.64.64,0,0,0-.54.36,1.58,1.58,0,0,0-.16.56c.77,0,1.16-.19,1.16-.57C33.05,67.84,32.9,67.72,32.59,67.72Z"/><path d="M35,67.11h.57v-1.7a.34.34,0,0,1,.14-.24.4.4,0,0,1,.25-.1.26.26,0,0,1,.19.08.27.27,0,0,1,.06.23c0,.1,0,.68,0,1.73l1,0c.17,0,.25.1.25.29a.39.39,0,0,1-.13.33.4.4,0,0,1-.27.11h-.79c0,.23,0,.68.07,1.35s.08,1.1.11,1.3a1.37,1.37,0,0,1,0,.38.19.19,0,0,1-.09.12.81.81,0,0,1-.3,0,.2.2,0,0,1-.21-.2,24.5,24.5,0,0,1-.22-3h-.58c-.33,0-.5-.1-.5-.29S34.72,67.11,35,67.11Z"/><path d="M41,69.78v.86a.38.38,0,0,1-.14.27.41.41,0,0,1-.27.12c-.12,0-.21-.1-.24-.3,0,0,0-.44-.07-1.21a9.16,9.16,0,0,0-.22-1.81,2.37,2.37,0,0,1-.07-.37c0-.18.11-.28.33-.28a.27.27,0,0,1,.22.11.57.57,0,0,1,.11.22c0,.08,0,.18,0,.31a1.85,1.85,0,0,0,0,.24,1.26,1.26,0,0,1,.52-.63,1.55,1.55,0,0,1,.77-.2c.45,0,.68.11.68.34a.35.35,0,0,1-.12.28.43.43,0,0,1-.28.11,1.11,1.11,0,0,0-1,.45A2.86,2.86,0,0,0,41,69.78Z"/><path d="M44.48,67.15a1.55,1.55,0,0,1,.84.25.78.78,0,0,1,.4.64,1.06,1.06,0,0,1-.33.73,1.34,1.34,0,0,1-.86.43,6,6,0,0,1-.7,0,1.45,1.45,0,0,0,.36.93.28.28,0,0,0,.22.09,1.26,1.26,0,0,0,.87-.32c.23-.22.39-.33.49-.33a.34.34,0,0,1,.2.12.34.34,0,0,1,.14.23c0,.15-.18.36-.53.63a2.29,2.29,0,0,1-.56.32,1.81,1.81,0,0,1-.61.13c-.48,0-.83-.31-1.06-.93a3.72,3.72,0,0,1-.22-1.27,2.07,2.07,0,0,1,.33-1.18A1.1,1.1,0,0,1,44.48,67.15Zm0,.57a.64.64,0,0,0-.54.36,1.84,1.84,0,0,0-.16.56q1.17,0,1.17-.57C45,67.84,44.83,67.72,44.52,67.72Z"/><path d="M49.14,70.65a1,1,0,0,1-.76.35,1.19,1.19,0,0,1-.79-.28,2.3,2.3,0,0,1-.21-3,1.52,1.52,0,0,1,1.19-.53,1,1,0,0,1,1,.48,2.83,2.83,0,0,1,.22,1.28v.68c0,.32,0,.77,0,1.33s0,1,0,1.29a1.43,1.43,0,0,1-.35,1,1.55,1.55,0,0,1-1.08.33,2.35,2.35,0,0,1-.88-.18q-.45-.18-.45-.42a.33.33,0,0,1,.1-.27.29.29,0,0,1,.22-.09,2.11,2.11,0,0,1,.56.18,1.8,1.8,0,0,0,.62.19c.4,0,.6-.33.6-1S49.16,70.9,49.14,70.65Zm0-1.75a1.47,1.47,0,0,0-.18-.85.65.65,0,0,0-.56-.25.71.71,0,0,0-.61.35,1.55,1.55,0,0,0-.24.89,1.53,1.53,0,0,0,.22.85.78.78,0,0,0,.68.31.56.56,0,0,0,.59-.39A3,3,0,0,0,49.13,68.9Z"/><path d="M50.93,70.73l-.09-3.37a.33.33,0,0,1,.11-.25.29.29,0,0,1,.21-.1c.18,0,.28.07.31.22a3.43,3.43,0,0,1,0,.47,1.33,1.33,0,0,1,1.12-.59c.68,0,1,.78,1,2.35v.65a3,3,0,0,1,0,.63.32.32,0,0,1-.36.25c-.13,0-.2-.09-.2-.26v-.47A9.24,9.24,0,0,0,53,69l-.12-.56c-.1-.3-.25-.45-.46-.45a.6.6,0,0,0-.58.3,1.78,1.78,0,0,0-.22.76c0,.51-.06,1.06-.06,1.64a.32.32,0,0,1-.12.26.44.44,0,0,1-.3.1Q50.93,71,50.93,70.73Z"/><path d="M55.73,67.15a1.5,1.5,0,0,1,.84.25A.76.76,0,0,1,57,68a1.09,1.09,0,0,1-.32.73,1.39,1.39,0,0,1-.87.43,5.81,5.81,0,0,1-.7,0,1.57,1.57,0,0,0,.36.93.3.3,0,0,0,.23.09,1.24,1.24,0,0,0,.86-.32c.23-.22.4-.33.5-.33a.4.4,0,0,1,.2.12.32.32,0,0,1,.13.23c0,.15-.17.36-.52.63a2.49,2.49,0,0,1-.56.32,1.86,1.86,0,0,1-.61.13c-.49,0-.84-.31-1.07-.93a3.72,3.72,0,0,1-.21-1.27,2.15,2.15,0,0,1,.32-1.18A1.12,1.12,0,0,1,55.73,67.15Zm0,.57a.64.64,0,0,0-.54.36,1.93,1.93,0,0,0-.15.56c.77,0,1.16-.19,1.16-.57C56.24,67.84,56.08,67.72,55.77,67.72Z"/><path d="M59.08,69.78v.86a.38.38,0,0,1-.14.27.41.41,0,0,1-.27.12q-.2,0-.24-.3s0-.44-.07-1.21a9.16,9.16,0,0,0-.22-1.81,3.24,3.24,0,0,1-.08-.37c0-.18.12-.28.34-.28a.27.27,0,0,1,.22.11.43.43,0,0,1,.1.22,2,2,0,0,1,0,.31,1.85,1.85,0,0,0,0,.24,1.26,1.26,0,0,1,.52-.63,1.54,1.54,0,0,1,.76-.2c.46,0,.69.11.69.34a.35.35,0,0,1-.12.28.45.45,0,0,1-.28.11,1.1,1.1,0,0,0-1,.45A2.86,2.86,0,0,0,59.08,69.78Z"/><path d="M64,65.74a.38.38,0,0,1,.28.15.41.41,0,0,1,.13.29.48.48,0,0,1-.14.31.41.41,0,0,1-.31.16.41.41,0,0,1-.28-.13.47.47,0,0,1-.13-.34c0-.27.14-.41.43-.44Zm.35,4.36v.58a.34.34,0,0,1-.12.26A.39.39,0,0,1,64,71a.19.19,0,0,1-.21-.21c-.07-1.76-.11-2.74-.11-2.93s0-.42,0-.69a.17.17,0,0,1,.2-.15c.29,0,.45.12.49.36a1.89,1.89,0,0,1,0,.29l0,.53Z"/><path d="M69.54,67.11V65.5c0-.3.09-.45.28-.45a.28.28,0,0,1,.32.25c0,.08,0,.51.05,1.31s0,1.54.07,2.24.06,1.35.06,2c0,.17-.13.25-.38.25s-.24-.12-.24-.35a1.34,1.34,0,0,1-.85.28,1.24,1.24,0,0,1-1-.46,1.72,1.72,0,0,1-.39-1.15,2.88,2.88,0,0,1,.28-1.27,1.79,1.79,0,0,1,1.57-1A1,1,0,0,1,69.54,67.11Zm0,1.13a.84.84,0,0,0-.14-.27.32.32,0,0,0-.18-.12l-.23,0a.71.71,0,0,0-.33.1.82.82,0,0,0-.32.32,1.82,1.82,0,0,0-.27.94,1.52,1.52,0,0,0,.2.81.62.62,0,0,0,.56.31.64.64,0,0,0,.57-.36,1.86,1.86,0,0,0,.2-.91A3.25,3.25,0,0,0,69.58,68.24Z"/><path d="M73.27,67.11c.25,0,.37.21.37.63v.14l0,.58c0,.18,0,.36,0,.54l.13,1.88c0,.13-.14.2-.43.2h-.12a.14.14,0,0,1-.13-.07.27.27,0,0,1,0-.18.4.4,0,0,0,0-.24,1.31,1.31,0,0,1-1,.4c-.78,0-1.17-.6-1.17-1.81a2.51,2.51,0,0,1,.38-1.52,1.26,1.26,0,0,1,1.08-.51,2.17,2.17,0,0,1,.66.11A.37.37,0,0,1,73.27,67.11Zm-.86.76a.89.89,0,0,0-.71.27,1.66,1.66,0,0,0-.23,1c0,.82.22,1.23.67,1.23a.64.64,0,0,0,.38-.16.92.92,0,0,0,.3-.36,3.05,3.05,0,0,0,.15-1,1.84,1.84,0,0,0-.12-.77A.47.47,0,0,0,72.41,67.87Z"/><path d="M76.76,70.65A1,1,0,0,1,76,71a1.16,1.16,0,0,1-.79-.28,1.94,1.94,0,0,1-.7-1.65,2,2,0,0,1,.48-1.4,1.52,1.52,0,0,1,1.19-.53,1,1,0,0,1,1,.48,2.81,2.81,0,0,1,.23,1.28l0,.68c0,.32,0,.77,0,1.33s0,1,0,1.29a1.43,1.43,0,0,1-.35,1,1.55,1.55,0,0,1-1.08.33,2.35,2.35,0,0,1-.88-.18q-.45-.18-.45-.42a.37.37,0,0,1,.1-.27.31.31,0,0,1,.22-.09,2.11,2.11,0,0,1,.56.18,1.77,1.77,0,0,0,.63.19c.4,0,.59-.33.59-1S76.78,70.9,76.76,70.65Zm0-1.75a1.47,1.47,0,0,0-.18-.85A.64.64,0,0,0,76,67.8a.71.71,0,0,0-.61.35,1.55,1.55,0,0,0-.23.89,1.45,1.45,0,0,0,.22.85.75.75,0,0,0,.67.31.56.56,0,0,0,.59-.39A3,3,0,0,0,76.75,68.9Z"/><path class="cls-2" d="M45.64,125.06c-9.23,0-15.29-7.09-15.29-16.32S38.78,94.93,48,94.93,62.73,100.76,62.73,110,54.88,125.06,45.64,125.06Z"/><path class="cls-1" d="M47.64,91.89c-10.37,0-20,6.35-20,16.72s9,19,19.39,19,18.17-6.6,18.17-17S58,91.89,47.64,91.89Zm-2,33.17c-9.23,0-15.29-7.09-15.29-16.32S38.78,94.93,48,94.93,62.73,100.76,62.73,110,54.88,125.06,45.64,125.06Z"/><path class="cls-3" d="M45.26,118h-.14a1.39,1.39,0,0,1-.74-.32l-1.29-1.07-3.92-3.26a.39.39,0,0,0-.26-.1H36.37a1.39,1.39,0,0,1-1.47-1.48V108a1.39,1.39,0,0,1,1.46-1.47H39l.06,0L43,103.24l.88-.73c.17-.15.35-.29.53-.43a1.33,1.33,0,0,1,.86-.32,1.37,1.37,0,0,1,.59.13,1.32,1.32,0,0,1,.8,1.26c0,1.66,0,3.32,0,5v8.46A1.36,1.36,0,0,1,45.26,118Z"/><path class="cls-1" d="M45.26,102.06a1.19,1.19,0,0,1,.47.11,1,1,0,0,1,.62,1v13.44a1.06,1.06,0,0,1-1.09,1.11h-.11a1,1,0,0,1-.57-.25l-5.21-4.32a.66.66,0,0,0-.46-.17H36.37a1.08,1.08,0,0,1-1.17-1.17V108a1.08,1.08,0,0,1,1.16-1.16H39a.41.41,0,0,0,.26-.09l4.59-3.81.73-.6a1.11,1.11,0,0,1,.67-.25m0-.61h0a1.65,1.65,0,0,0-1,.39l-.53.43-.21.17-.79.66-3.74,3.1H36.36A1.69,1.69,0,0,0,34.59,108v3.81a1.69,1.69,0,0,0,1.78,1.78h2.54s0,0,.07,0l3.9,3.24,1.31,1.08a1.61,1.61,0,0,0,.91.39h.16a1.67,1.67,0,0,0,1.7-1.72V103.15a1.62,1.62,0,0,0-1-1.53,1.72,1.72,0,0,0-.72-.17Z"/><path class="cls-3" d="M53.46,118.9a1.29,1.29,0,0,1-.73-.23,1.45,1.45,0,0,1-.66-1.85,1.6,1.6,0,0,1,.24-.36,10.3,10.3,0,0,0-.2-13.37,1.38,1.38,0,0,1,.06-1.9,1.59,1.59,0,0,1,1.13-.54,1.26,1.26,0,0,1,.83.31,4.45,4.45,0,0,1,.55.6l0,0a13.16,13.16,0,0,1,2.77,6.3c.07.48.1,1,.13,1.33,0,.13,0,.26,0,.36s0,0,0,0a13.59,13.59,0,0,1-3.06,8.72A1.49,1.49,0,0,1,53.46,118.9Z"/><path class="cls-1" d="M53.3,101a1,1,0,0,1,.63.24,4.35,4.35,0,0,1,.54.59,12.65,12.65,0,0,1,2.7,6.16c.1.64.13,1.3.17,1.67a13.17,13.17,0,0,1-3,8.52,1.17,1.17,0,0,1-.89.46,1.07,1.07,0,0,1-.56-.17,1.16,1.16,0,0,1-.55-1.48,1.81,1.81,0,0,1,.19-.29,10.2,10.2,0,0,0,2.32-5.17,10.42,10.42,0,0,0-2.51-8.59,1.08,1.08,0,0,1,0-1.49,1.3,1.3,0,0,1,.91-.45m0-.61h0A1.89,1.89,0,0,0,52,101a1.68,1.68,0,0,0-.07,2.31,9.88,9.88,0,0,1,2.38,8.11,9.68,9.68,0,0,1-2.19,4.86,1.74,1.74,0,0,0,.49,2.66,1.55,1.55,0,0,0,.9.28,1.77,1.77,0,0,0,1.36-.68,13.79,13.79,0,0,0,3.13-8.9v-.07q0-.15,0-.36c0-.36-.07-.86-.14-1.34a13.32,13.32,0,0,0-2.84-6.45l0,0a4.49,4.49,0,0,0-.6-.65,1.57,1.57,0,0,0-1-.38Z"/><path class="cls-3" d="M50.05,115.45a1.53,1.53,0,0,1-1-.41,1.48,1.48,0,0,1-.18-2,4.55,4.55,0,0,0,.56-1,5.32,5.32,0,0,0-.72-5.45,1.35,1.35,0,0,1-.25-1.47,1.54,1.54,0,0,1,1.26-1h.17a1.27,1.27,0,0,1,1,.5,8.12,8.12,0,0,1,1.81,4.11c0,.29.06.58.07.78a1.91,1.91,0,0,1,0,.2v0a8.5,8.5,0,0,1-1.65,5.16A1.36,1.36,0,0,1,50.05,115.45Z"/><path class="cls-1" d="M49.88,104.39a1,1,0,0,1,.8.38,7.8,7.8,0,0,1,1.74,4c0,.38.07.77.09,1a8.18,8.18,0,0,1-1.59,5,1.06,1.06,0,0,1-.87.46,1.23,1.23,0,0,1-.95-2,4.61,4.61,0,0,0,.61-1.08,5.6,5.6,0,0,0-.77-5.75,1.07,1.07,0,0,1-.21-1.15,1.25,1.25,0,0,1,1-.81h.14m0-.61h-.21a1.85,1.85,0,0,0-1.5,1.16,1.66,1.66,0,0,0,.28,1.77,5,5,0,0,1,.69,5.16,4,4,0,0,1-.53.94,1.84,1.84,0,0,0,1.44,2.93,1.68,1.68,0,0,0,1.36-.7,8.83,8.83,0,0,0,1.71-5.35.13.13,0,0,0,0-.06,1.42,1.42,0,0,0,0-.19c0-.21,0-.5-.08-.8a8.37,8.37,0,0,0-1.87-4.26,1.59,1.59,0,0,0-1.27-.61Z"/><path class="cls-2" d="M166,27.44c-7.12,0-11.79-5.45-11.79-12.57s6.5-10.64,13.62-10.64S179.2,8.72,179.2,15.84,173.14,27.44,166,27.44Z"/><path class="cls-1" d="M167.57,1.89c-8,0-15.43,4.89-15.43,12.88s7,14.66,15,14.66,14-5.08,14-13.07S175.56,1.89,167.57,1.89ZM166,27.44c-7.12,0-11.79-5.45-11.79-12.57s6.5-10.64,13.62-10.64S179.2,8.72,179.2,15.84,173.14,27.44,166,27.44Z"/><path class="cls-4" d="M172,23.58a1.46,1.46,0,0,1-1-.42l-4.34-4.34-4.33,4.34a1.46,1.46,0,0,1-1,.42,1.43,1.43,0,0,1-1-.42,1.4,1.4,0,0,1-.43-1,1.41,1.41,0,0,1,.43-1l4.34-4.34-4.34-4.34a1.45,1.45,0,0,1,1-2.46,1.43,1.43,0,0,1,1,.43l4.33,4.33L171,10.41a1.43,1.43,0,0,1,1-.43,1.4,1.4,0,0,1,1,.43,1.44,1.44,0,0,1,0,2l-4.34,4.34L173,21.12a1.45,1.45,0,0,1,0,2,1.43,1.43,0,0,1-1,.42Z"/><path class="cls-1" d="M161.26,10.29a1.13,1.13,0,0,1,.8.33l4.55,4.56,4.56-4.56a1.13,1.13,0,0,1,.8-.33,1.17,1.17,0,0,1,.81.33,1.15,1.15,0,0,1,0,1.61l-4.56,4.55,4.56,4.56a1.15,1.15,0,0,1,0,1.61,1.17,1.17,0,0,1-.81.33,1.13,1.13,0,0,1-.8-.33l-4.56-4.56L162.06,23a1.13,1.13,0,0,1-.8.33,1.14,1.14,0,0,1-.81-1.94L165,16.78l-4.56-4.55a1.14,1.14,0,0,1,.81-1.94m0-.61a1.75,1.75,0,0,0-1.24,3l4.12,4.12L160,20.91a1.75,1.75,0,0,0,2.47,2.47l4.12-4.13,4.13,4.13a1.75,1.75,0,1,0,2.47-2.47l-4.12-4.13,4.12-4.12a1.75,1.75,0,0,0-2.47-2.47l-4.13,4.12-4.12-4.12a1.73,1.73,0,0,0-1.23-.51Z"/><text class="cls-5" transform="translate(15.97 43.86)">?</text><path d="M18.11,44.86a5,5,0,1,1,5-5A5,5,0,0,1,18.11,44.86Zm0-9.46a4.49,4.49,0,1,0,4.49,4.49A4.49,4.49,0,0,0,18.11,35.4Z"/><text class="cls-5" transform="translate(16.95 62.04)">!</text><path d="M18.11,63.2a5,5,0,1,1,5-5A5,5,0,0,1,18.11,63.2Zm0-9.46a4.49,4.49,0,1,0,4.49,4.48A4.49,4.49,0,0,0,18.11,53.74Z"/><path class="cls-3" d="M109.06,90.93h2.16v.44h-1.64V92.7h1.51v.42h-1.51v1.81h-.52Z"/><path class="cls-3" d="M113.26,94.93l0-.36h0a1.06,1.06,0,0,1-.88.43.82.82,0,0,1-.88-.82c0-.7.62-1.08,1.73-1.07v-.06a.6.6,0,0,0-.65-.67,1.44,1.44,0,0,0-.75.22l-.12-.35a1.82,1.82,0,0,1,.94-.25,1,1,0,0,1,1.1,1.17v1.08a4.61,4.61,0,0,0,0,.68Zm-.08-1.46c-.57,0-1.22.09-1.22.65a.46.46,0,0,0,.5.49.7.7,0,0,0,.69-.48.45.45,0,0,0,0-.16Zm-1.12-2.26a.6.6,0,0,1,1.19,0,.6.6,0,0,1-1.19,0Zm.9,0a.31.31,0,0,0-.31-.33.3.3,0,0,0-.29.34.3.3,0,1,0,.6,0Z"/><path class="cls-3" d="M115.79,92.84c0-.3,0-.54,0-.78h.46l0,.46h0a1,1,0,0,1,.9-.52.85.85,0,0,1,.82.57h0a1.17,1.17,0,0,1,.32-.37,1,1,0,0,1,.63-.2c.38,0,1,.25,1,1.24v1.69h-.51V93.31c0-.55-.2-.89-.62-.89a.72.72,0,0,0-.66.74v1.77h-.51V93.21c0-.45-.21-.79-.6-.79a.71.71,0,0,0-.65.53.66.66,0,0,0,0,.25v1.73h-.51Z"/><path class="cls-3" d="M121,93.59a.92.92,0,0,0,1,1,1.8,1.8,0,0,0,.8-.15l.09.38a2.41,2.41,0,0,1-1,.17,1.33,1.33,0,0,1-1.41-1.44A1.39,1.39,0,0,1,121.88,92a1.21,1.21,0,0,1,1.18,1.35c0,.11,0,.19,0,.24Zm1.53-.37a.74.74,0,0,0-.72-.85.86.86,0,0,0-.8.85Z"/><path class="cls-3" d="M123.71,93c0-.34,0-.63,0-.9h.46v.57h0A.85.85,0,0,1,125,92h.15v.5l-.18,0a.73.73,0,0,0-.7.67,1.66,1.66,0,0,0,0,.24v1.53h-.52Z"/><path class="cls-3" d="M125.89,93.59a.92.92,0,0,0,1,1,1.83,1.83,0,0,0,.8-.15l.08.38a2.35,2.35,0,0,1-1,.17,1.33,1.33,0,0,1-1.41-1.44A1.39,1.39,0,0,1,126.73,92a1.21,1.21,0,0,1,1.19,1.35,1.25,1.25,0,0,1,0,.24Zm1.53-.37a.75.75,0,0,0-.73-.85.86.86,0,0,0-.8.85Z"/><path class="cls-3" d="M130.41,91.26a.33.33,0,1,1-.32-.33A.31.31,0,0,1,130.41,91.26Zm-.58,3.67V92.06h.52v2.87Z"/><path class="cls-3" d="M131.22,92.84c0-.3,0-.54,0-.78h.46l0,.48h0a1,1,0,0,1,1-.54c.39,0,1,.23,1,1.22v1.71h-.52V93.28c0-.46-.17-.85-.67-.85a.74.74,0,0,0-.7.53,1,1,0,0,0,0,.25v1.72h-.52Z"/><path class="cls-3" d="M134.44,94.4a1.37,1.37,0,0,0,.69.21c.38,0,.56-.19.56-.43s-.15-.38-.54-.53-.76-.47-.76-.81a.89.89,0,0,1,1-.84,1.4,1.4,0,0,1,.71.18l-.13.37a1.13,1.13,0,0,0-.59-.16c-.31,0-.48.18-.48.39s.17.34.55.49.75.44.75.86-.39.86-1.07.86a1.62,1.62,0,0,1-.81-.19Z"/><path class="cls-3" d="M136.86,93c0-.37,0-.66,0-.94h.47l0,.49h0a1.13,1.13,0,0,1,1-.55,1.3,1.3,0,0,1,1.22,1.46A1.36,1.36,0,0,1,138.27,95a1,1,0,0,1-.88-.45h0v1.56h-.52Zm.52.77a1.49,1.49,0,0,0,0,.21.81.81,0,0,0,.79.61c.55,0,.87-.45.87-1.11s-.3-1.07-.86-1.07a.84.84,0,0,0-.79.65,1.33,1.33,0,0,0,0,.21Z"/><path class="cls-3" d="M140.82,91.26a.31.31,0,0,1-.33.32.33.33,0,0,1,0-.65A.31.31,0,0,1,140.82,91.26Zm-.58,3.67V92.06h.52v2.87Z"/><path class="cls-3" d="M141.63,93c0-.34,0-.63,0-.9h.45l0,.57h0a.86.86,0,0,1,.8-.63h.15v.5l-.18,0a.73.73,0,0,0-.7.67,1.66,1.66,0,0,0,0,.24v1.53h-.52Z"/><path class="cls-3" d="M145.13,94.93l0-.36h0a1.06,1.06,0,0,1-.88.43.82.82,0,0,1-.88-.82c0-.7.62-1.08,1.73-1.07v-.06a.59.59,0,0,0-.65-.67,1.44,1.44,0,0,0-.75.22l-.12-.35a1.83,1.83,0,0,1,.95-.25c.87,0,1.09.6,1.09,1.17v1.08a3.49,3.49,0,0,0,.05.68Zm-.08-1.46c-.57,0-1.21.09-1.21.65a.46.46,0,0,0,.49.49.7.7,0,0,0,.69-.48.45.45,0,0,0,0-.16Z"/><path class="cls-3" d="M147,91.24v.82h.75v.4H147V94c0,.35.1.56.39.56a1,1,0,0,0,.3,0l0,.39a1.41,1.41,0,0,1-.47.07.69.69,0,0,1-.56-.22,1,1,0,0,1-.2-.74V92.46h-.45v-.4h.45v-.69Z"/><path class="cls-3" d="M148.92,91.26a.31.31,0,0,1-.33.32.33.33,0,0,1,0-.65A.31.31,0,0,1,148.92,91.26Zm-.58,3.67V92.06h.53v2.87Z"/><path class="cls-3" d="M152.33,93.47A1.4,1.4,0,0,1,150.9,95a1.37,1.37,0,0,1-1.38-1.48A1.4,1.4,0,0,1,151,92,1.36,1.36,0,0,1,152.33,93.47Zm-2.28,0c0,.63.37,1.11.88,1.11s.87-.47.87-1.12c0-.48-.24-1.1-.86-1.1S150.05,93,150.05,93.5Z"/><path class="cls-3" d="M153,92.84c0-.3,0-.54,0-.78h.46l0,.48h0a1,1,0,0,1,.95-.54c.4,0,1,.23,1,1.22v1.71h-.53V93.28c0-.46-.17-.85-.66-.85a.74.74,0,0,0-.7.53.93.93,0,0,0,0,.25v1.72H153Z"/><path class="cls-3" d="M157.55,90.72h.52v1.79h0a.94.94,0,0,1,.37-.37A1.2,1.2,0,0,1,159,92c.38,0,1,.23,1,1.23v1.7h-.52V93.28c0-.46-.17-.85-.67-.85a.77.77,0,0,0-.7.52.64.64,0,0,0,0,.25v1.73h-.52Z"/><path class="cls-3" d="M161.13,93.59a.92.92,0,0,0,1,1,1.78,1.78,0,0,0,.79-.15l.09.38a2.41,2.41,0,0,1-1,.17,1.33,1.33,0,0,1-1.41-1.44A1.39,1.39,0,0,1,162,92a1.21,1.21,0,0,1,1.19,1.35c0,.11,0,.19,0,.24Zm1.53-.37a.74.74,0,0,0-.72-.85.86.86,0,0,0-.8.85Z"/><path class="cls-3" d="M163.81,93c0-.34,0-.63,0-.9h.46l0,.57h0a.85.85,0,0,1,.79-.63h.15v.5l-.18,0a.75.75,0,0,0-.7.67,1.66,1.66,0,0,0,0,.24v1.53h-.52Z"/><path class="cls-3" d="M108.61,95.68v-.3h56.71v.3Z"/></svg>