<svg id="Layer_1" data-name="Layer 1" xmlns="http://www.w3.org/2000/svg" viewBox="0 0 1144.34 330.89"><defs><style>.cls-1{fill:#9f4539;}.cls-2{fill:#828f8c;}.cls-3{fill:#d2563b;}.cls-4{fill:#505b3b;}.cls-5{fill:#c46227;}</style></defs><title>Artboard 1</title><path class="cls-1" d="M1030.89,172.08c-1.15,1.52-2.36,3-3.45,4.56-16.37,23.32-32.81,46.58-49,70-4.13,6-9.05,8.87-16.42,7.75-5.42-.82-10.94-1-16.42-1.48-5.88-.49-9.23-3.57-10.72-9.37-6.46-25.13-13.11-50.22-19.72-75.31-.53-2-1.27-4-1.91-6l-1.28,0a57.91,57.91,0,0,0-1.8,5.8q-9.52,46.45-19,92.93c-1.28,6.3-4.22,8.29-10.54,7.75-11.29-1-22.59-1.79-33.88-2.63-8.25-.61-9.82-2.69-8.08-10.9,1.18-5.52,2.33-11,3.59-17l23.08,1.63c3.15.22,6.32.6,9.47.52a9.64,9.64,0,0,0,9.26-9.34c0-4.49-3-7.24-8.7-7.64-18.95-1.33-37.89-2.59-56.84-3.92-6.9-.48-9.8-2.65-10.56-7.66a12.16,12.16,0,0,1,7.75-13.13,23,23,0,0,1,8.32-.86c8.48.37,16.93,1,26,1.61,2.07-10,4.13-19.89,6.14-29.76q11.44-56,22.88-112c1.4-6.85,3.7-8.7,10.61-8.41,11.82.5,23.64,1,35.45,1.75,7.78.48,9.82,2.33,11.78,9.72q14.58,55,29.15,110a7.5,7.5,0,0,0,.36,1.45c1,2,2.08,3.94,3.14,5.91,1.68-1.44,3.76-2.6,5-4.36,24.44-34.74,48.89-69.47,73-104.41,4.68-6.78,10-10,18.38-9,11.4,1.39,22.89,2,34.33,3.1,5.1.46,7,3.16,5.91,8.72q-7.2,37.25-14.57,74.46-12.78,64.89-25.59,129.78c-1.83,9.31-3.58,10.77-13.16,9.73-11.42-1.24-22.83-2.59-34.24-4-5.07-.6-7-3.53-6-8.81q9.49-47.73,19-95.46c.34-1.72.46-3.49.68-5.23Z"/><path class="cls-2" d="M736.08,45.25c15.66,0,31.32-.1,47,0,29.17.23,52.19,20.8,57.11,50.84,6.17,37.73-14.41,78.82-48.3,96.44-6.75,3.51-7.33,5.24-4.06,12.18q11.91,25.29,23.83,50.57c2.91,6.19,1.52,8.24-5.42,7.83-15.63-.92-31.26-2-46.88-2.94-5.44-.34-8.77-3.29-11-8.1-6.67-14.52-13.64-28.9-20.15-43.48-2.5-5.6-6.25-8.31-12.3-8.23-4,.05-8,0-12-.29-5.13-.32-7.7,2.3-8.68,7-2.71,13-5.45,26.06-8.13,39.09-1.74,8.45-3.93,10.2-12.6,9.83-11.49-.48-23-.89-34.46-1.47-6-.31-7.55-2.46-6.29-8.45q20.31-96.72,40.62-193.43c1.37-6.51,4-8.61,10.72-8.62q25.49,0,51,0ZM788,110.31a3.46,3.46,0,0,0,.12-.92,6.65,6.65,0,0,0-.41-1.43c-3.69-9.17-11.45-12.17-20.35-12.62-13.63-.69-27.28-.89-40.93-1.18-5.83-.12-7.93,1.7-9.16,7.62q-4.34,20.75-8.6,41.51c-1.17,5.67.35,7.66,6.3,7.87,12.81.47,25.63.88,38.44,1.15,3.14.07,6.5.12,9.38-.88,8.32-2.89,16.72-1.94,25.17-1.48,9.8.53,19.62,1.09,29.43,1.3a9.6,9.6,0,0,0,10-9.62c0-4.84-2.85-7.08-9.26-7.33l-31.43-1.25c-8.65-.34-17.31-.52-25.95-1-8.4-.51-12.12-7.65-7.89-14.93a12.77,12.77,0,0,1,11.93-6.79C772.39,110.37,780,110.31,788,110.31Z"/><path class="cls-3" d="M440.16,235.87c1.95-.08,4.08.29,5.83-.36,2.83-1.06,6.11-2.22,7.89-4.41a8.86,8.86,0,0,0,1.09-7.66c-.74-1.77-4.11-3.31-6.37-3.39-8.49-.3-17,0-25.49.16-10.83.18-21.66.42-32.49.64-4.31.08-8.6-.08-10.4-5s.27-9.11,4.06-11.87a20,20,0,0,1,9.53-3.51c5.93-.56,11.95-.16,18.6-.16-1.18-5.7-2.39-10.46-3.11-15.3-3.54-23.77,2.25-45.83,13.94-66.2,23.7-41.32,58.9-67.51,106-75.8,37-6.49,68.19,4.32,89.88,36.1,17.17,25.15,18.64,52.85,9.44,81.32C611.05,214.73,557,254.83,500,255.81c-19.56.33-38-4.21-54.62-14.9-1.94-1.24-3.74-2.68-5.61-4Zm139.09-98.34c.06-26.24-20.88-46.61-46.24-45a75.7,75.7,0,0,0-68.26,56.11c-5.71,21.5,4.07,43.1,23.71,52.24,11.39,5.3,23.19,5.22,35.17,2.45C554.35,196.26,579.19,166.88,579.25,137.53Z"/><path class="cls-4" d="M159.6,67c12.58.08,27.23,2.52,40.3,10.92,14.58,9.36,20,23,18.09,39.88a9,9,0,0,1-8.52,8.44c-12.43,1.23-24.89,2.13-37.33,3.19-4,.34-6.23-1.41-7-5.38-1.44-7.28-6.5-11.12-13.3-12.59-11.65-2.53-22.83-.64-33.43,4.69a21.67,21.67,0,0,0-3.74,2.48c-8.34,6.75-7.54,14.27,2.45,17.93,8.56,3.14,17.51,5.23,26.3,7.72,14.19,4,27.74,9.4,39.72,18.2,20.94,15.37,25.12,36.46,11.73,58.73-8.79,14.62-21.58,24.81-36.57,32.3-23.66,11.81-48.54,18.42-75.22,15.64-14.93-1.56-29.16-5.46-40.87-15.57-8.61-7.45-12.61-16.95-11.93-28.38.32-5.47,3.26-9.3,8.65-9.94,12.4-1.45,24.83-2.77,37.28-3.61,2.21-.15,5.79,1.75,6.68,3.66,3,6.54,8.35,9.44,14.81,10.54A67.34,67.34,0,0,0,132.13,223a25.45,25.45,0,0,0,4.46-2.23c4-2.42,7.42-5.51,7.19-10.59-.22-4.81-3.94-7.41-7.9-8.79-8.62-3-17.36-5.69-26.18-8-13.54-3.61-27-7.4-39-14.93-20.16-12.64-25.64-32.13-15.33-53.54,1.77-3.67,4.9-3,7.62-3.29,11.73-1.47,23.52-2.44,35.21-4.17a14.55,14.55,0,0,0,8.24-4.8c1.45-1.74,1.86-5.46,1-7.64-.55-1.45-4.21-2.61-6.32-2.41C85.74,104.05,70.37,106,55,107.72c-5,.57-9.92,1.37-14.9,1.56-6.25.25-9.18-4.15-6.75-9.93,2.58-6.13,7.64-9,14-9.79,14-1.72,28.11-3.3,42.14-5.15a25.85,25.85,0,0,0,8.41-2.63C115.51,72.63,137.11,67.15,159.6,67Z"/><path class="cls-5" d="M284.22,177.08c-9.48.56-19,1.08-28.44,1.68-3.66.23-7.2,0-9.19-3.58-2.16-3.86-.74-7.44,1.69-10.66,3.15-4.17,7.55-5.8,12.62-6.05,7.49-.37,15-.94,22.46-1.13,2.87-.08,4.14-1.13,4.72-3.88,2.85-13.34,5.86-26.65,8.76-40,1.1-5.08-.34-6.82-5.68-6.48-16.12,1-32.24,2.24-48.36,3.25-7.61.48-8.88-1.17-7.23-8.64q3.41-15.35,6.82-30.7c1.59-7.13,3.8-9.25,11.09-9.76q72-5,144.09-9.87c7.31-.5,14.64-.89,22-1.21,5.65-.24,7.41,1.81,6.25,7.23q-3.72,17.33-7.58,34.62c-1.33,6-3.83,8.18-9.88,8.49-15.8.8-31.62,1.46-47.42,2.39-8.62.51-9.66,1.61-11.53,10.11q-14.61,66.3-29.18,132.6c-1.47,6.68-3.75,8.67-10.48,9q-18,.79-36,1.52c-6.44.25-8.08-1.75-6.7-8.06,3.75-17.06,7.61-34.1,11.23-51.19.69-3.26,2.16-4.26,5.36-4.33,8.66-.18,17.34-.42,25.95-1.23,3.26-.31,7.06-1.56,9.3-3.73,1.82-1.77,2.87-6,2-8.32-.65-1.83-4.72-3.45-7.26-3.42-9.82.1-19.63.9-29.44,1.44Z"/></svg>